<?xml version="1.0" encoding="utf-8"?>
<!-- Generator: Adobe Illustrator 24.3.0, SVG Export Plug-In . SVG Version: 6.00 Build 0)  -->
<svg version="1.1" id="Layer_1" xmlns="http://www.w3.org/2000/svg" xmlns:xlink="http://www.w3.org/1999/xlink" x="0px" y="0px"
	 viewBox="0 0 841.9 595.3" style="enable-background:new 0 0 841.9 595.3;" xml:space="preserve">
<style type="text/css">
	.st0{fill:#2128BF;}
	.st1{fill:#040DBF;}
	.st2{fill:#FFFFFF;}
	.st3{fill:#5F65D9;}
	.st4{fill:#F4CD58;}
	.st5{fill:#F48558;}
	.st6{fill:#C17AD6;}
	.st7{fill:none;stroke:#FFFFFF;stroke-width:2.78;stroke-linecap:round;stroke-linejoin:round;}
	.st8{opacity:0.45;}
	.st9{fill:#8492FF;}
	.st10{fill:none;stroke:#8492FF;stroke-width:2.09;stroke-linecap:round;stroke-linejoin:round;}
	.st11{fill:none;stroke:#000E33;stroke-width:2.09;stroke-linecap:round;stroke-linejoin:round;}
	.st12{fill:#000E33;stroke:#000E33;stroke-width:2.09;stroke-linecap:round;stroke-linejoin:round;}
	.st13{fill:none;}
	.st14{fill:#E8505B;}
	.st15{fill-rule:evenodd;clip-rule:evenodd;fill:#5F65D9;}
	.st16{fill:#E06001;}
	.st17{fill:#FFFCF3;}
	.st18{fill:#E06004;}
	.st19{fill:#536DF2;}
	.st20{fill:#6C80FF;}
	.st21{fill:#0B1937;}
	.st22{fill:#818E94;}
	.st23{fill:#E36001;}
	.st24{fill:#AABBC1;}
	.st25{fill:none;stroke:#FFFCF3;stroke-width:0.75;stroke-miterlimit:10;}
	.st26{fill:#E05F03;}
	.st27{fill:#FFCBD3;}
	.st28{fill:#F7A491;}
	.st29{fill:#2D2861;}
	.st30{fill:#352E73;}
	.st31{fill:#FE875E;}
	.st32{fill:#40100C;}
	.st33{fill:#F8A492;}
	.st34{fill:#7F0000;}
	.st35{fill:#694329;}
	.st36{opacity:0.5;}
	.st37{fill:#400000;}
	.st38{fill:#4C3E35;}
	.st39{fill:#7A553C;}
	.st40{opacity:0.3;}
	.st41{fill:#F0BB8F;}
	.st42{fill:#DBDFE8;}
	.st43{fill:#C3C6D5;}
	.st44{fill:#403834;}
	.st45{fill:#E8AB79;}
	.st46{fill:#E8A393;}
	.st47{fill:#FCD4CA;}
	.st48{fill:#F45762;}
	.st49{fill:#110239;}
	.st50{fill:#0186CB;}
	.st51{opacity:0.65;fill:#0056A3;enable-background:new    ;}
</style>
<path class="st0" d="M250.1,153.8H604c14.2,0,25.7,11.5,25.7,25.7V453c0,14.2-11.5,25.7-25.7,25.7H250.1
	c-14.2,0-25.7-11.5-25.7-25.7V179.5C224.4,165.3,235.9,153.8,250.1,153.8z"/>
<path class="st1" d="M617.5,182.1v268.4c0,9.2-7.5,16.7-16.7,16.7H253.4c-9.2,0-16.7-7.5-16.7-16.7V182.1c0-9.2,7.5-16.7,16.7-16.7
	h347.4C610,165.3,617.5,172.8,617.5,182.1z"/>
<path class="st2" d="M257.4,174.1h339.3c6,0,10.8,4.8,10.8,10.8v262.7c0,6-4.8,10.8-10.8,10.8H257.4c-6,0-10.8-4.8-10.8-10.8V184.9
	C246.6,178.9,251.5,174.1,257.4,174.1z"/>
<path class="st0" d="M200.1,457.8c8.4,13.9,23.4,22.4,39.6,22.4h374.8c16.2,0,31.2-8.5,39.6-22.4H200.1z"/>
<path class="st1" d="M204.9,464.3h444.3c1.8-2,3.4-4.2,4.8-6.6H200C201.5,460.1,203.1,462.3,204.9,464.3z"/>
<path class="st3" d="M607.5,184.9v31.2H246.6v-31.2c0-6,4.9-10.9,10.9-10.9l0,0h339.2C602.7,174.1,607.5,178.9,607.5,184.9z"/>
<rect x="533.4" y="236.3" class="st4" width="45.7" height="45.7"/>
<rect x="533.4" y="293.4" class="st5" width="45.7" height="45.7"/>
<rect x="533.4" y="350.4" class="st6" width="45.7" height="45.7"/>
<line class="st7" x1="580.7" y1="187.9" x2="531.8" y2="187.9"/>
<g class="st8">
	<path class="st9" d="M627.5,241.8h134.3c5.5,0,10,4.5,10,10v134.3c0,5.5-4.5,10-10,10H627.5c-5.5,0-10-4.5-10-10V251.8
		C617.4,246.3,621.9,241.8,627.5,241.8z"/>
	<path class="st10" d="M627.5,241.8h134.3c5.5,0,10,4.5,10,10v134.3c0,5.5-4.5,10-10,10H627.5c-5.5,0-10-4.5-10-10V251.8
		C617.4,246.3,621.9,241.8,627.5,241.8z"/>
</g>
<path class="st2" d="M617.7,232.1H752c5.5,0,10,4.5,10,10v134.3c0,5.5-4.5,10-10,10H617.7c-5.5,0-10-4.5-10-10V242.1
	C607.7,236.6,612.2,232.1,617.7,232.1z"/>
<path class="st11" d="M617.7,232.1H752c5.5,0,10,4.5,10,10v134.3c0,5.5-4.5,10-10,10H617.7c-5.5,0-10-4.5-10-10V242.1
	C607.7,236.6,612.2,232.1,617.7,232.1z"/>
<line class="st11" x1="620.7" y1="252" x2="628.6" y2="244.1"/>
<line class="st11" x1="620.7" y1="244.1" x2="628.6" y2="252"/>
<path class="st11" d="M574.4,275.4c23.6,0,22.4,17.9,43.7,17.9"/>
<path class="st12" d="M626,293.2L626,293.2c0-2.2-1.8-4-4-4l0,0c-2.2,0-4,1.8-4,4l0,0c0,2.2,1.8,4,4,4l0,0
	C624.2,297.2,626,295.4,626,293.2z"/>
<path class="st12" d="M574.4,275.4L574.4,275.4c0-2.2-1.8-4-4-4l0,0c-2.2,0-4,1.8-4,4l0,0c0,2.2,1.8,4,4,4l0,0
	C572.6,279.3,574.4,277.5,574.4,275.4z"/>
<path class="st12" d="M626,317.8L626,317.8c0-2.2-1.8-4-4-4l0,0c-2.2,0-4,1.8-4,4l0,0c0,2.2,1.8,4,4,4l0,0
	C624.2,321.7,626,319.9,626,317.8z"/>
<path class="st12" d="M574.4,317.8L574.4,317.8c0-2.2-1.8-4-4-4l0,0c-2.2,0-4,1.8-4,4l0,0c0,2.2,1.8,4,4,4l0,0
	C572.6,321.7,574.4,319.9,574.4,317.8z"/>
<line class="st11" x1="574.4" y1="317.8" x2="618.1" y2="317.8"/>
<path class="st11" d="M574.4,360.1c23.6,0,22.4-17.9,43.7-17.9"/>
<path class="st12" d="M626,342.3L626,342.3c0,2.2-1.8,4-4,4l0,0c-2.2,0-4-1.8-4-4l0,0c0-2.2,1.8-4,4-4l0,0
	C624.2,338.3,626,340.1,626,342.3z"/>
<path class="st12" d="M574.4,360.1L574.4,360.1c0,2.2-1.8,4-4,4l0,0c-2.2,0-4-1.8-4-4l0,0c0-2.2,1.8-4,4-4l0,0
	C572.6,356.2,574.4,358,574.4,360.1z"/>
<path class="st13" d="M663.9,358.9c-1.8,0.3-3.6,0.3-5.4,0.1l-2.8,4.1l-7.7-3l0.7-4.9c-1.5-1-2.8-2.3-3.9-3.7l-4.9,1l-3.3-7.5l4-3
	c-0.3-1.8-0.3-3.6-0.1-5.4l-4.1-2.8l3-7.7l4.9,0.7c1-1.5,2.3-2.8,3.7-3.9l-1-4.9l7.5-3.3l3,4c1.8-0.3,3.6-0.3,5.4-0.1l2.8-4.1l7.7,3
	l-0.7,4.9c1.5,1.1,2.8,2.3,3.9,3.7l4.9-1l3.3,7.5l-4,3c0.3,1.8,0.3,3.6,0.1,5.4l4.1,2.8l-3,7.7l-4.9-0.7c-1,1.5-2.3,2.8-3.7,3.9
	l1,4.9l-7.5,3.3L663.9,358.9L663.9,358.9z M663.9,347.1c4.5-2,6.5-7.2,4.5-11.6c-2-4.5-7.2-6.5-11.6-4.5s-6.5,7.2-4.5,11.6l0,0
	C654.2,347,659.4,349,663.9,347.1L663.9,347.1L663.9,347.1z"/>
<path class="st14" d="M663.9,347c0,0-0.2,0.1-0.5,0.3c-0.5,0.2-1,0.4-1.6,0.5c-2,0.4-4.1,0.1-5.9-0.9c-4.4-2.4-6.1-7.9-3.7-12.3
	c1-1.8,2.5-3.2,4.3-4s3.8-1,5.7-0.6c4.9,1.1,8,5.9,6.9,10.8c0,0.1,0,0.1,0,0.2c-0.5,2-1.7,3.8-3.3,5c-0.4,0.3-0.9,0.6-1.4,0.8
	C664.1,347,663.9,347.1,663.9,347c0,0,0.7-0.4,1.8-1.2c1.5-1.2,2.6-2.9,3-4.9c0.6-2.8-0.2-5.8-2.2-7.9c-2.5-2.6-6.3-3.3-9.5-1.9
	c-1.6,0.7-3,2-3.9,3.5c-0.8,1.5-1.2,3.1-1.1,4.8c0.2,2.9,1.8,5.5,4.3,6.9c1.7,1,3.7,1.3,5.6,1C663.2,347.3,663.9,347,663.9,347z"/>
<path class="st14" d="M663.9,358.9c0.1,0.1,0.1,0.1,0.2,0.2l0.6,0.7l2.3,3h-0.1l7.5-3.4l-0.1,0.2c-0.3-1.5-0.6-3.1-1-4.9v-0.1
	l0.1-0.1c1.4-1.1,2.6-2.4,3.6-3.9l0.1-0.1h0.2l4.9,0.7l-0.3,0.2l2.9-7.7l0.1,0.3l-4.1-2.8l-0.2-0.1V341c0.2-1.8,0.1-3.5-0.1-5.3
	v-0.2l0.2-0.1l4-3l-0.1,0.4l-3.4-7.5l0.4,0.2l-4.9,1h-0.2l-0.1-0.2c-1.1-1.4-2.4-2.6-3.8-3.6l-0.2-0.1v-0.2c0.2-1.5,0.5-3.2,0.7-4.9
	l0.2,0.4l-7.7-3l0.4-0.1l-2.8,4.1l-0.1,0.2h-0.2c-1.8-0.2-3.5-0.1-5.3,0.1l0,0l-0.3-0.1l0,0l0,0l0,0V319l-0.1-0.1l-0.2-0.3l-0.4-0.5
	l-0.8-1c-0.5-0.7-1-1.3-1.5-2l0.4,0.1l-7.5,3.3l0.2-0.4c0.3,1.6,0.6,3.3,1,4.9v0.2l-0.2,0.1c-1.4,1.1-2.6,2.4-3.6,3.8l-0.1,0.2h-0.2
	l-4.9-0.7l0.4-0.2c-1,2.6-2,5.2-3,7.7l-0.1-0.4l4.1,2.8l0.2,0.1v0.2c-0.2,1.7-0.2,3.5,0.1,5.2v0.2l-0.2,0.1l-4,3l0.1-0.4
	c1.2,2.6,2.3,5.1,3.3,7.5l-0.3-0.2l4.9-0.9h0.2l0.1,0.1c1.1,1.4,2.4,2.6,3.8,3.7l0.1,0.1v0.1c-0.3,1.8-0.5,3.4-0.8,4.9l-0.1-0.2
	l7.7,3l-0.2,0.1l2.8-4.1v-0.1h0.1c1.3,0.1,2.7,0.2,4,0.1l1-0.1C663.6,358.9,663.7,358.9,663.9,358.9l-0.4,0.2c-0.2,0-0.5,0.1-1,0.1
	c-1.3,0.1-2.7,0.1-4.1,0h0.1l-2.7,4.1l-0.1,0.1h-0.1l-7.6-3l-0.2-0.1v-0.2c0.2-1.5,0.4-3.1,0.7-4.9l0.1,0.2c-1.5-1.1-2.8-2.3-4-3.7
	l0.3,0.1l-4.9,1h-0.2l-0.1-0.2l-3.4-7.5l-0.1-0.2l0.2-0.1l4-3l-0.1,0.3c-0.3-1.8-0.3-3.6-0.1-5.4l0.1,0.3l-4.1-2.8L636,334l0.1-0.3
	l3-7.7l0.1-0.3h0.3l4.9,0.7l-0.3,0.1c1.1-1.5,2.3-2.8,3.8-4l-0.1,0.3c-0.3-1.6-0.6-3.2-1-4.9l-0.1-0.3l0.3-0.1l7.5-3.3l0.3-0.1
	l0.2,0.2c0.5,0.7,1,1.3,1.5,2l0.8,1l0.4,0.5l0.2,0.3l0.1,0.1v0.1l0,0l0,0l-0.3-0.1l0,0c1.8-0.3,3.6-0.3,5.5-0.1l-0.3,0.2l2.8-4.1
	l0.2-0.2l0.3,0.1l7.7,3l0.3,0.1v0.3c-0.3,1.7-0.5,3.4-0.7,4.9l-0.1-0.3c1.5,1.1,2.8,2.3,3.9,3.8l-0.3-0.1l4.9-1h0.3l0.1,0.2
	c1.2,2.6,2.3,5.2,3.3,7.5l0.1,0.2l-0.2,0.1l-4,3l0.1-0.3c0.3,1.8,0.3,3.6,0.1,5.4l-0.1-0.3l4.1,2.8l0.2,0.1l-0.1,0.2
	c-1,2.7-2,5.3-3,7.7l-0.1,0.2h-0.2L677,351l0.2-0.1c-1.1,1.5-2.3,2.8-3.8,3.9l0.1-0.2c0.3,1.8,0.7,3.4,0.9,4.9v0.1l-0.1,0.1
	l-7.5,3.3h-0.1l-0.1-0.1l-2.1-3l-0.5-0.8C663.9,359,663.9,358.9,663.9,358.9z"/>
<path class="st1" d="M663.9,347l-0.3,0.1c-0.2,0.1-0.4,0.2-0.8,0.3c-1,0.3-2.1,0.4-3.2,0.4c-4.9-0.4-8.5-4.6-8.1-9.5
	s4.6-8.5,9.5-8.1c2.3,0.2,4.5,1.3,6,3c2.5,2.9,2.9,7,1.1,10.3c-0.5,0.8-1,1.6-1.8,2.3c-0.4,0.3-0.7,0.6-1.1,0.9l-0.6,0.4l-0.3,0.2
	l-0.2,0.1H664l0,0l0,0c0.1-0.1,0.1-0.3,0-0.4l-0.4-0.2c0.3-0.1,0.7-0.3,1-0.5c3.2-1.9,4.7-5.6,3.9-9.2c-1.1-4.7-5.8-7.6-10.4-6.5
	c-1.8,0.4-3.4,1.4-4.6,2.7c-3.2,3.6-2.9,9.2,0.7,12.4c0.2,0.2,0.4,0.3,0.6,0.5c1.4,1,3,1.6,4.6,1.7c1.1,0.1,2.1,0,3.2-0.4
	C663.5,347.2,663.8,347,663.9,347c-0.4,0.2-0.7,0.4-1.1,0.5c-1,0.4-2.1,0.5-3.2,0.5c-1.7-0.1-3.4-0.7-4.8-1.7
	c-1.9-1.4-3.2-3.4-3.7-5.7c-1-5.1,2.4-10,7.4-10.9c2.9-0.6,5.9,0.3,8.1,2.4c1.3,1.3,2.3,2.9,2.7,4.7c0.9,3.9-0.8,7.9-4.3,10
	c-0.4,0.2-0.8,0.4-1.2,0.6l-0.3,0.1l-0.1-0.3c-0.1-0.1,0-0.3,0.1-0.4l0.1-0.1h0.1h0.1l0.2-0.1l0.3-0.2c0.2-0.1,0.4-0.2,0.6-0.4
	c0.4-0.3,0.7-0.5,1-0.8c3.4-3.1,3.6-8.4,0.5-11.7c-3.1-3.4-8.4-3.6-11.7-0.5c-2,1.9-3,4.6-2.6,7.4c0.3,2.1,1.5,4.1,3.2,5.4
	c1.3,1,2.8,1.6,4.5,1.8c1,0.1,2.1,0,3.1-0.2C663.5,347.1,663.9,347,663.9,347z"/>
<path class="st1" d="M663.9,358.9l3,4h-0.1c1.9-0.9,4.5-2,7.7-3.4l-0.1,0.1c-0.3-1.5-0.6-3.2-1-5h0.3v0.1l-0.2-0.2
	c1.4-1.1,2.6-2.4,3.7-3.9l0.2,0.3l-0.2,0.1v-0.3l5.1,0.7l-0.2,0.1c1-2.5,2-5.1,3.1-8l0.1,0.3L681,341l0.3-0.3l0.1,0.2L681,341
	c0.2-1.8,0.1-3.6-0.1-5.4h0.5l-0.1,0.2l-0.4-0.3l4.1-3.1l-0.1,0.3c-1.1-2.4-2.3-5.1-3.5-7.9l0.3,0.1l-5.1,1v-0.5l0.2,0.1l-0.3,0.4
	c-1.1-1.4-2.4-2.6-3.9-3.7l0.4-0.3l0.1,0.2l-0.5,0.1c0.2-1.5,0.5-3.3,0.7-5.1l0.2,0.3l-8-3.1l0.4-0.1l-2.9,4.3l-0.4-0.5l0.2-0.1
	l0.1,0.6c-1.8-0.2-3.6-0.1-5.3,0.1l0,0V318l0,0l-0.2,0.6l0,0c0,0,0,0,0.1,0l0.2-0.5l0,0l0,0l0,0h0.1l0.2,0.1l-0.4,0.5l-3.1-4.1
	l0.4,0.1l-7.9,3.5l0.2-0.4l1,5.1h-0.6l0.1-0.2l0.5,0.4c-1.4,1.1-2.6,2.4-3.7,3.9l-0.4-0.5l0.2-0.1l0.1,0.6l-5.1-0.7l0.4-0.2
	c-1,2.5-2,5.2-3.1,8l-0.1-0.4l4.3,2.9l-0.5,0.4l-0.1-0.2l0.7-0.1c-0.2,1.8-0.1,3.6,0.1,5.3l-0.7-0.1c0-0.1,0.1-0.1,0.1-0.2l0.5,0.4
	l-4.1,3.1l0.1-0.4l3.5,7.8l-0.4-0.2l5-1v0.7l-0.2-0.1l0.4-0.6c1.1,1.4,2.4,2.6,3.9,3.6l-0.5,0.4l-0.1-0.2l0.7-0.1
	c-0.2,1.6-0.5,3.3-0.7,5l-0.2-0.4l7.9,3l-0.4,0.1c0.9-1.3,1.8-2.8,2.8-4.2l0.5,0.5H659l-0.1-0.7c1.5,0.2,3,0.1,4.5-0.1h0.4l0,0
	c0,0,0,0,0,0.1l0,0l0,0c-0.1,0,0.1,0.5,0.2,0.5l0,0h0.1l-0.8,0.1c-0.5,0.1-1,0.1-1.6,0.1c-1,0-2.1,0-3.1-0.1l0.3-0.1l-2.8,4.1
	l-0.4-0.5h0.1v0.7l-7.7-3l0.5-0.5l0.1,0.2L648,360c0.3-1.7,0.5-3.3,0.8-5l0.2,0.3c-1.5-1.1-2.9-2.4-4.1-3.9l0.3,0.1l-5,1l0.1-0.7
	l0.2,0.1l-0.5,0.5c-1.1-2.5-2.2-5-3.3-7.5h0.7l-0.1,0.3l-0.6-0.4l4.1-3l-0.1,0.3c-0.3-1.9-0.3-3.8-0.1-5.7l0.2,0.3l-4.1-2.7l0.5-0.4
	l0.1,0.3h-0.7c1-2.6,2-5.1,3-7.7l0.5,0.4l-0.3,0.1l-0.1-0.6l5.1,0.8l-0.3,0.1c1.1-1.6,2.4-2.9,3.9-4.1l-0.1,0.3
	c-0.3-1.7-0.7-3.4-1-5l0.6,0.1l-0.1,0.3l-0.4-0.5l7.5-3.3v0.6l-0.3-0.1l0.3-0.5l3,4l-0.1-0.1l0.2,0.1h0.1l0,0l-0.3,0.2l0.1,0.4l0,0
	l0,0l0.2-0.6l0,0h-0.2l0,0c1.8-0.3,3.7-0.3,5.5-0.1l-0.3,0.1c1-1.5,1.9-2.9,2.9-4.3l0.3,0.5l-0.3,0.1v-0.6l7.7,3L673,318l-0.2-0.3
	l0.5-0.1c-0.3,1.8-0.5,3.4-0.8,5.1l-0.1-0.3c1.5,1.1,2.9,2.4,4.1,3.9l-0.3-0.1l5-1l-0.1,0.5l-0.3-0.1l0.4-0.3l3.3,7.5H684l0.1-0.3
	l0.4,0.3l-4.1,3l0.1-0.2c0.3,1.9,0.4,3.7,0.1,5.6l-0.1-0.2l4.2,2.8l-0.3,0.2l-0.1-0.2h0.4l-3,7.7l-0.3-0.2l0.2-0.1l0.1,0.3l-5-0.7
	l0.2-0.1c-1.1,1.5-2.4,2.8-3.8,4v-0.1c0.4,2.1,0.7,3.6,1,5h-0.2l0.1-0.1l0.2,0.2l-7.5,3.3v-0.1h0.1l-0.1,0.1L663.9,358.9
	c0.3,0.3,0.6,0.6,0.8,1l2.3,3l0.2,0.2L667,363h-0.1l-0.2-0.1l0.2-0.1l7.5-3.4l0.3-0.1l-0.2,0.3l-0.1,0.1l-0.2,0.3l-0.1-0.4
	c-0.3-1.4-0.6-2.9-1-5v-0.1l0.1-0.1c1.4-1.2,2.7-2.5,3.7-4l0.1-0.1h0.1l5,0.7l0.5,0.1l-0.5,0.3l-0.2,0.1l-0.5,0.3l0.2-0.5
	c0.9-2.3,1.8-4.8,2.9-7.7l0.2-0.6l0.2,0.6l0.1,0.2l0.2,0.6l-0.5-0.3l-4.2-2.8l-0.1-0.1v-0.1c0.2-1.8,0.1-3.7-0.2-5.5v-0.1l0.1-0.1
	l4.1-3.1l0.6-0.4l-0.2,0.7l-0.1,0.3l-0.2,0.7l-0.3-0.6c-1-2.4-2.2-4.8-3.4-7.5l-0.3-0.7l0.7,0.3l0.3,0.1l0.7,0.3l-0.7,0.1l-5,1h-0.2
	l-0.1-0.1c-1.2-1.4-2.5-2.7-4-3.8l-0.1-0.1v-0.2c0.2-1.6,0.5-3.3,0.7-5.1l0.1-0.8l0.4,0.7l0.2,0.3l0.4,0.7l-0.8-0.3l-7.7-2.9
	l-0.8-0.3l0.8-0.3l0.3-0.1l0.8-0.3l-0.5,0.7c-0.9,1.4-1.9,2.8-2.8,4.3l-0.1,0.1H663c-1.8-0.2-3.6-0.2-5.3,0.1h-0.1h-0.1l0,0l0.1-0.1
	l0,0l0.1-0.3c0.1-0.1,0-0.1,0-0.1l0,0l0,0l0.1,0.4l-0.3,0.2h-0.1h-0.1l-0.2-0.1H657v-0.1l-3-4l-0.5-0.7l0.9,0.2l0.3,0.1l0.9,0.2
	l-0.8,0.4l-7.5,3.3l-0.8,0.4l0.4-0.8l0.2-0.3l0.4-0.8l0.2,0.9c0.3,1.6,0.7,3.3,1,5v0.2l-0.2,0.1c-1.4,1.1-2.7,2.5-3.8,4l-0.1,0.2
	h-0.2l-5.1-0.7l-1-0.1l0.8-0.5l0.3-0.1l0.8-0.5l-0.3,0.9l-3,7.7l-0.3,0.9l-0.3-0.9l-0.1-0.3l-0.3-0.9l0.8,0.5l4.3,2.9l0.2,0.1v0.2
	c-0.2,1.8-0.2,3.7,0.1,5.5v0.2l-0.2,0.1l-4.1,3l-0.8,0.6l0.3-1l0.1-0.3l0.3-1l0.4,0.9c1.1,2.5,2.2,5,3.3,7.5l0.4,0.9l-0.9-0.5
	l-0.2-0.1L639,352l1-0.2l5-1h0.2l0.1,0.2c1.1,1.4,2.4,2.7,3.9,3.8l0.2,0.1v0.2c-0.2,1.7-0.5,3.3-0.7,5l-0.2,1l-0.5-0.9l-0.1-0.2
	l-0.5-0.9l1,0.4l7.7,3l1,0.4l-1,0.3H656l-1,0.3l0.6-0.9l2.8-4.1l0.1-0.2h0.2c1,0.1,2,0.2,3,0.1c0.5,0,1,0,1.5-0.1l0.8-0.1h0.2
	c0.1-0.1,0.3,0.5,0.2,0.5l0,0l-0.1,0.1L664,359c-0.1,0.1-0.2,0.1-0.4,0.1h-0.4c-1.6,0.2-3.2,0.3-4.7,0.1l-1.3-0.1l1.2-0.6h0.1
	l1.2-0.5l-0.7,1.1c-1,1.4-1.9,2.9-2.8,4.2l-0.2,0.2l-0.3-0.1l-7.9-3l-0.3-0.1V360c0.3-1.7,0.5-3.5,0.7-5l0.2-1.3l0.5,1.2l0.1,0.2
	l0.5,1.2l-1-0.8c-1.5-1.1-2.8-2.4-4-3.8l-0.8-1l1.2,0.4l0.2,0.1l1.2,0.4L645,352l-5,1l-0.3,0.1l-0.1-0.3l-3.5-7.8l-0.1-0.3l0.2-0.2
	l4.1-3.1l1-0.8l-0.5,1.2l-0.1,0.2l-0.5,1.2L640,342c-0.3-1.8-0.3-3.7-0.1-5.5l0.1-1.2l0.5,1.1l0.1,0.2l0.5,1.1l-1-0.7l-4.3-2.9
	l-0.2-0.1l0.1-0.3l3.1-8l0.1-0.3h0.3l5.1,0.8l1.2,0.2l-1.1,0.5l-0.2,0.1l-1.1,0.5l0.7-1c1.1-1.5,2.4-2.8,3.8-4l0.9-0.7l-0.4,1.1
	l-0.1,0.2l-0.4,1.1l-0.2-1.2c-0.3-1.8-0.7-3.5-1-5.1v-0.3l0.2-0.1l7.9-3.5l0.2-0.1l0.2,0.2l3.1,4.1l0.7,0.9l-1-0.4l-0.2-0.1h-0.1
	l0,0l0,0l0,0l0.2-0.5c0.1,0,0.1,0,0.1,0l0,0v0.1l-0.2,0.4l0,0l-0.1,0.2l0,0l-0.8-0.3l0.8-0.3l0,0c1.8-0.3,3.7-0.3,5.5-0.1l1.1,0.1
	l-1,0.5l-0.2,0.1l-1,0.5l0.6-0.9l2.9-4.3l0.1-0.2l0.2,0.1l8,3.1l0.2,0.1v0.2c-0.3,1.8-0.5,3.6-0.8,5.1l-0.2,1l-0.4-0.9l-0.1-0.2
	l-0.4-0.9l0.8,0.6c1.5,1.1,2.8,2.4,4,3.8l0.6,0.8l-0.9-0.3l-0.2-0.1l-0.9-0.3l1-0.2l5.1-1h0.2l0.1,0.2c1.2,2.8,2.4,5.4,3.5,7.9
	l0.1,0.2l-0.2,0.1l-4.4,3l-0.7,0.5l0.3-0.8c0-0.1,0.1-0.1,0.1-0.2l0.3-0.8l0.1,0.8c0.3,1.8,0.3,3.7,0.1,5.5l-0.1,0.8l-0.3-0.7
	l-0.1-0.2l-0.3-0.7l0.7,0.5l4.3,2.9l0.1,0.1l-0.1,0.2c-1.1,2.8-2.1,5.5-3.1,7.9v0.1h-0.2l-5-0.8l-0.6-0.1l0.6-0.2l0.2-0.1l0.6-0.2
	l-0.4,0.5c-1.1,1.5-2.4,2.8-3.8,3.9l-0.4,0.3l0.2-0.5v-0.1l0.2-0.5l0.1,0.5c0.3,1.8,0.7,3.5,1,5v0.1h-0.1l-7.8,3.3h-0.1l0,0
	l-2.2-3.1l-0.5-0.8C663.9,358.9,663.9,358.9,663.9,358.9z"/>
<path class="st14" d="M656.6,298.6c-1.2,0.2-2.4,0.2-3.6,0.1l-1.9,2.8l-5.2-2l0.5-3.3c-1-0.7-1.9-1.6-2.6-2.5l-3.3,0.6l-2.3-5.1
	l2.7-2c-0.2-1.2-0.2-2.4-0.1-3.6l-2.8-1.9l2-5.2l3.3,0.5c0.7-1,1.5-1.9,2.5-2.6l-0.7-3.3l5.1-2.3l2,2.7c1.2-0.2,2.4-0.2,3.6-0.1
	l1.9-2.8l5.2,2l-0.5,3.3c1,0.7,1.9,1.5,2.6,2.5l3.3-0.6l2.2,5.1l-2.6,2c0.2,1.2,0.2,2.4,0.1,3.6l2.8,1.9l-2,5.2l-3.3-0.5
	c-0.7,1-1.6,1.9-2.5,2.6l0.7,3.3l-5.1,2.2L656.6,298.6L656.6,298.6z M656.6,290.7c3-1.3,4.3-4.8,3-7.8s-4.8-4.3-7.8-3
	s-4.3,4.8-3,7.8l0,0C650.1,290.7,653.6,292,656.6,290.7C656.7,290.7,656.7,290.7,656.6,290.7L656.6,290.7z"/>
<path class="st14" d="M656.7,290.7c-0.4,0.2-0.9,0.4-1.4,0.5c-1.3,0.3-2.7,0-3.9-0.6c-0.8-0.4-1.5-1.1-2.1-1.9c-0.6-0.9-1-1.9-1.1-3
	c0-0.6,0-1.2,0.1-1.7c0.1-0.6,0.3-1.2,0.7-1.7c0.6-1.1,1.6-2,2.8-2.5s2.5-0.7,3.8-0.4c1.2,0.3,2.3,0.9,3.1,1.7
	c0.7,0.8,1.3,1.8,1.5,2.8c0.5,2.3-0.3,4.7-2.2,6.1C657.6,290.3,657.2,290.5,656.7,290.7c0,0,0.5-0.2,1.3-0.8c1-0.8,1.7-2,2-3.3
	c0.4-1.9-0.1-3.9-1.5-5.3c-0.8-0.8-1.8-1.4-2.9-1.6c-2.5-0.5-5,0.6-6.2,2.8c-0.3,0.5-0.5,1-0.6,1.6c-0.1,0.5-0.2,1.1-0.1,1.6
	c0.2,3.2,3,5.7,6.3,5.4c0.2,0,0.3,0,0.5-0.1C656.2,290.9,656.7,290.6,656.7,290.7z"/>
<path class="st14" d="M656.6,298.6l0.1,0.2l0.4,0.5l1.5,2h-0.1l5-2.3v0.1l-0.7-3.3v-0.1l0,0c0.9-0.8,1.8-1.6,2.5-2.6l0,0h0.1
	l3.3,0.5l-0.1,0.1c0.6-1.6,1.3-3.4,2-5.2v0.2l-2.7-2h-0.1v-0.1c0.1-1.2,0.1-2.4-0.1-3.6v0h0.1l2.7-2v0.2c-0.7-1.6-1.5-3.3-2.3-5.1
	l0.2,0.1l-3.3,0.6H665l-0.1-0.1c-0.8-0.9-1.6-1.8-2.6-2.5h-0.1v-0.1c0.2-1,0.3-2.2,0.5-3.3l0.1,0.2l-5.2-2l0.2-0.1l-1.9,2.8
	l-0.1,0.1h0.2c-1.2-0.1-2.4-0.1-3.6,0.1l0,0c-0.1,0,0.2,0.1-0.2-0.1l0,0l0,0l0,0l-0.1-0.1l-0.1-0.2l-0.3-0.3l-0.5-0.7l-1-1.3h0.2
	l-5.1,2.2l0.1-0.2c0.2,1.1,0.4,2.2,0.6,3.3v0.1l-0.1,0.1c-0.9,0.8-1.8,1.6-2.5,2.6v0.1h-0.1l-3.3-0.5l0.2-0.1
	c-0.7,1.8-1.3,3.5-2,5.2l-0.1-0.2l2.8,1.9h0.1v0.1c-0.1,1.2-0.1,2.4,0.1,3.6v0.1l-0.1,0.1l-2.7,2v-0.2l2.2,5.1l-0.2-0.1l3.3-0.6h0.1
	v0.1c0.7,0.9,1.6,1.8,2.6,2.5h0.1v0.1c-0.2,1.2-0.3,2.3-0.5,3.3l-0.1-0.1l5.2,2h-0.1c0.8-1.1,1.4-2,1.9-2.8l0,0l0,0
	c0.9,0.1,1.8,0.1,2.7,0l0.7-0.1L656.6,298.6l-0.2,0.1c-0.2,0-0.4,0.1-0.7,0.1c-0.9,0.1-1.8,0.1-2.7,0h0.1l-1.8,2.8l0,0h-0.1l-5.2-2
	h-0.1v-0.1c0.2-1,0.3-2.1,0.5-3.3v0.1c-1-0.7-1.9-1.6-2.7-2.5h0.1l-3.3,0.6h-0.1v-0.1l-2.3-5.1v-0.1l0.1-0.1l2.7-2l-0.1,0.1
	c-0.2-1.2-0.2-2.4-0.1-3.6l0.1,0.1l-2.8-1.8l-0.1-0.1v-0.1l2-5.2v-0.1h0.1l3.3,0.5l-0.2,0.1c0.7-1,1.6-1.9,2.5-2.6l-0.1,0.2
	c-0.2-1.1-0.4-2.2-0.7-3.3v-0.1h0.1l5.1-2.3l0.1-0.1l0.1,0.1l1,1.3l0.5,0.7l0.3,0.3l0.1,0.2l0.1,0.1l0,0l0,0l0,0l-0.2-0.1l0,0
	c1.2-0.2,2.4-0.2,3.7-0.1l-0.2,0.1l1.9-2.8l0.1-0.1h0.1l5.2,2h0.1v0.1c-0.2,1.1-0.3,2.3-0.5,3.3l-0.1-0.1c1,0.7,1.9,1.6,2.6,2.5
	l-0.2-0.1l3.3-0.6h0.1v0.1c0.8,1.8,1.5,3.5,2.2,5.1v0.1l-0.1,0.1l-2.7,2v-0.1c0.2,1.2,0.2,2.4,0.1,3.6l-0.1-0.1l2.8,1.9l0.1,0.1v0.1
	l-2,5.2v0.1h-0.1l-3.3-0.5h0.1c-0.7,1-1.6,1.9-2.5,2.6v-0.1c0.2,1.2,0.4,2.3,0.6,3.3v0.1h-0.1l-5.1,2.2l0,0l0,0l-1.5-2l-0.4-0.5
	L656.6,298.6z"/>
<path class="st15" d="M724.8,319.9c-2.3-0.3-4.6-1-6.7-1.9l-5,4.1l-8.4-6.6l2.8-5.9c-1.4-1.9-2.6-3.9-3.4-6.1l-6.4-0.6l-1.3-10.6
	l6.1-2.2c0.3-2.3,0.9-4.6,1.9-6.7l-4.1-5l6.6-8.4l5.8,2.8c1.9-1.4,3.9-2.6,6.1-3.4l0.7-6.4l10.6-1.3l2.2,6.1
	c2.3,0.3,4.6,0.9,6.7,1.9l5-4.1l8.4,6.6l-2.8,5.8c1.4,1.9,2.6,3.9,3.5,6.1l6.4,0.6l1.3,10.6l-6.1,2.2c-0.3,2.3-1,4.6-1.9,6.7l4.1,5
	l-6.6,8.4l-5.8-2.8c-1.9,1.4-3.9,2.6-6.1,3.4l-0.7,6.4L727,326L724.8,319.9L724.8,319.9z M729.4,305.3c6.3-0.8,10.8-6.5,10-12.8
	s-6.5-10.8-12.8-10s-10.8,6.5-10,12.8C717.4,301.5,723.1,306,729.4,305.3L729.4,305.3z"/>
<path class="st1" d="M656.6,298.6c-1.2,0.2-2.4,0.2-3.6,0.1l-1.9,2.8l-5.2-2l0.5-3.3c-1-0.7-1.9-1.6-2.6-2.5l-3.3,0.6l-2.3-5.1
	l2.7-2c-0.2-1.2-0.2-2.4-0.1-3.6l-2.8-1.9l2-5.2l3.3,0.5c0.7-1,1.5-1.9,2.5-2.6l-0.7-3.3l5.1-2.3l2,2.7c1.2-0.2,2.4-0.2,3.6-0.1
	l1.9-2.8l5.2,2l-0.5,3.3c1,0.7,1.9,1.5,2.6,2.5l3.3-0.6l2.2,5.1l-2.6,2c0.2,1.2,0.2,2.4,0.1,3.6l2.8,1.9l-2,5.2l-3.3-0.5
	c-0.7,1-1.6,1.9-2.5,2.6l0.7,3.3l-5.1,2.2L656.6,298.6L656.6,298.6z M656.6,290.7c3-1.3,4.3-4.8,3-7.8s-4.8-4.3-7.8-3
	s-4.3,4.8-3,7.8l0,0C650.1,290.7,653.6,292,656.6,290.7C656.7,290.7,656.7,290.7,656.6,290.7L656.6,290.7z"/>
<path class="st1" d="M656.7,290.7c-0.4,0.2-0.9,0.4-1.4,0.5c-1.3,0.3-2.7,0-3.9-0.6c-0.8-0.4-1.5-1.1-2.1-1.9c-0.6-0.9-1-1.9-1.1-3
	c0-0.6,0-1.2,0.1-1.7c0.1-0.6,0.3-1.2,0.7-1.7c0.6-1.1,1.6-2,2.8-2.5s2.5-0.7,3.8-0.4c1.2,0.3,2.3,0.9,3.1,1.7
	c0.7,0.8,1.3,1.8,1.5,2.8c0.5,2.3-0.3,4.7-2.2,6.1C657.6,290.3,657.2,290.5,656.7,290.7c0,0,0.5-0.2,1.3-0.8c1-0.8,1.7-2,2-3.3
	c0.4-1.9-0.1-3.9-1.5-5.3c-0.8-0.8-1.8-1.4-2.9-1.6c-2.5-0.5-5,0.6-6.2,2.8c-0.3,0.5-0.5,1-0.6,1.6c-0.1,0.5-0.2,1.1-0.1,1.6
	c0.2,3.2,3,5.7,6.3,5.4c0.2,0,0.3,0,0.5-0.1C656.2,290.9,656.7,290.6,656.7,290.7z"/>
<path class="st1" d="M656.6,298.6l0.1,0.2l0.4,0.5l1.5,2h-0.1l5-2.3v0.1l-0.7-3.3v-0.1l0,0c0.9-0.8,1.8-1.6,2.5-2.6l0,0h0.1l3.3,0.5
	l-0.1,0.1c0.6-1.6,1.3-3.4,2-5.2v0.2l-2.7-2h-0.1v-0.1c0.1-1.2,0.1-2.4-0.1-3.6v0h0.1l2.7-2v0.2c-0.7-1.6-1.5-3.3-2.3-5.1l0.2,0.1
	l-3.3,0.6H665l-0.1-0.1c-0.8-0.9-1.6-1.8-2.6-2.5h-0.1v-0.1c0.2-1,0.3-2.2,0.5-3.3l0.1,0.2l-5.2-2l0.2-0.1l-1.9,2.8l-0.1,0.1h0.2
	c-1.2-0.1-2.4-0.1-3.6,0.1l0,0c-0.1,0,0.2,0.1-0.2-0.1l0,0l0,0l0,0l-0.1-0.1l-0.1-0.2l-0.3-0.3l-0.5-0.7l-1-1.3h0.2l-5.1,2.2
	l0.1-0.2c0.2,1.1,0.4,2.2,0.6,3.3v0.1l-0.1,0.1c-0.9,0.8-1.8,1.6-2.5,2.6v0.1h-0.1l-3.3-0.5l0.2-0.1c-0.7,1.8-1.3,3.5-2,5.2
	l-0.1-0.2l2.8,1.9h0.1v0.1c-0.1,1.2-0.1,2.4,0.1,3.6v0.1l-0.1,0.1l-2.7,2v-0.2l2.2,5.1l-0.2-0.1l3.3-0.6h0.1v0.1
	c0.7,0.9,1.6,1.8,2.6,2.5h0.1v0.1c-0.2,1.2-0.3,2.3-0.5,3.3l-0.1-0.1l5.2,2h-0.1c0.8-1.1,1.4-2,1.9-2.8l0,0l0,0
	c0.9,0.1,1.8,0.1,2.7,0l0.7-0.1L656.6,298.6l-0.2,0.1c-0.2,0-0.4,0.1-0.7,0.1c-0.9,0.1-1.8,0.1-2.7,0h0.1l-1.8,2.8l0,0h-0.1l-5.2-2
	h-0.1v-0.1c0.2-1,0.3-2.1,0.5-3.3v0.1c-1-0.7-1.9-1.6-2.7-2.5h0.1l-3.3,0.6h-0.1v-0.1l-2.3-5.1v-0.1l0.1-0.1l2.7-2l-0.1,0.1
	c-0.2-1.2-0.2-2.4-0.1-3.6l0.1,0.1l-2.8-1.8l-0.1-0.1v-0.1l2-5.2v-0.1h0.1l3.3,0.5l-0.2,0.1c0.7-1,1.6-1.9,2.5-2.6l-0.1,0.2
	c-0.2-1.1-0.4-2.2-0.7-3.3v-0.1h0.1l5.1-2.3l0.1-0.1l0.1,0.1l1,1.3l0.5,0.7l0.3,0.3l0.1,0.2l0.1,0.1l0,0l0,0l0,0l-0.2-0.1l0,0
	c1.2-0.2,2.4-0.2,3.7-0.1l-0.2,0.1l1.9-2.8l0.1-0.1h0.1l5.2,2h0.1v0.1c-0.2,1.1-0.3,2.3-0.5,3.3l-0.1-0.1c1,0.7,1.9,1.6,2.6,2.5
	l-0.2-0.1l3.3-0.6h0.1v0.1c0.8,1.8,1.5,3.5,2.2,5.1v0.1l-0.1,0.1l-2.7,2v-0.1c0.2,1.2,0.2,2.4,0.1,3.6l-0.1-0.1l2.8,1.9l0.1,0.1v0.1
	l-2,5.2v0.1h-0.1l-3.3-0.5h0.1c-0.7,1-1.6,1.9-2.5,2.6v-0.1c0.2,1.2,0.4,2.3,0.6,3.3v0.1h-0.1l-5.1,2.2l0,0l0,0l-1.5-2l-0.4-0.5
	L656.6,298.6z"/>
<polygon class="st16" points="265.5,180.5 264.7,194.7 262.8,198.5 258.9,194.7 258.2,178.8 "/>
<path class="st17" d="M264.7,194.7c0,0,1.3,4.1,1,4.9s-12.3,8.2-12.3,8.2c-0.5-0.9-0.7-1.9-0.6-2.9c0.3-1.6,5.5-4.1,5.9-10.2
	c0.2-3,3.8-1.8,3.4,0.5C261.8,197.1,264.7,194.7,264.7,194.7z"/>
<polygon class="st16" points="253.1,178.5 252.3,192.7 250.4,196.4 246.5,192.7 245.8,176.7 "/>
<path class="st17" d="M252.3,192.7c0,0,1.3,4.1,1,4.9s-12.3,8.2-12.3,8.2c-0.5-0.9-0.7-1.9-0.6-2.9c0.3-1.6,5.5-4.1,5.9-10.2
	c0.2-3,3.8-1.8,3.4,0.5C249.4,195,252.3,192.7,252.3,192.7z"/>
<path class="st18" d="M253,113.4c0,0-4.4,9.7-5.5,12.6c-1.1,2.9-1.3,8.2,6.3,7.1c7.6-1.1,6.8-20.1,6.8-20.1L253,113.4z"/>
<path class="st19" d="M277.6,137.9c0,0,4.8,13.2-0.2,16s-17.5,1.5-17.5,1.5l-0.5,28.6h-16.8l1-31.1c0,0-0.7-8.2,7.4-10
	c11.6-2.5,10.6-5.5,10.6-5.5L277.6,137.9z"/>
<path class="st20" d="M286.6,137.9c0,0,4.8,13.4-0.2,16.2s-17.4,1.5-17.4,1.5l-0.5,30.5h-16.9l1-33c0,0-0.9-9.5,7.4-10.1
	c9.9-0.7,10.5-4.9,10.5-4.9L286.6,137.9z"/>
<path class="st21" d="M266.7,87.2c0,0,5.4-3.7,10,1.2c2.9,3.1,4.5,10.5,5.7,13.4h-21.6C260.8,101.8,261.7,86.4,266.7,87.2z"/>
<path class="st18" d="M265.4,106.2c1.7-0.4,3.1-1.7,3.6-3.4c-1.7-0.2-3.1-1.2-3.7-2.8c-0.6-1.5-0.6-3.2-0.1-4.8
	c0.5-1.6,1.2-3.1,2-4.5c2.4,0.5,4.6,1.9,6.2,3.8c1.5,2,1.1,4.6,2.1,6.9c0.1,0.2,1,2.6,1.6,3.6c0.6,1.1,1.5,1.9,2.6,2.3
	c-2.1,1.6-4.7,2.3-7.4,2.1C269.6,109.2,267.2,108,265.4,106.2z"/>
<path class="st4" d="M292,113.8l-6.4,6.8l2.6,18l-29-0.6l-2.1-17.4l-4.8-7.5c0,0,3.1-7.6,16.1-7.2
	C280.1,106.3,289.7,106.7,292,113.8z"/>
<path class="st22" d="M286.2,132.2h-10.9l-3.5-16.9h-22.5l3.5,19.8h31.7l2-2.1c0.2-0.2,0.2-0.5,0-0.7
	C286.5,132.3,286.4,132.2,286.2,132.2z"/>
<path class="st23" d="M291.6,114.5c0,0,3.8,14.6,4.7,18.8s0.1,7.7-8.9,6.8s-10.5-2.3-14.8-1.3s-5.5-1.3-5.5-3.1
	c-0.1-0.7,0-1.4,0.1-2.1c0,0,3.8,0,8.9,0.4c4.1,0.2,8.1,0.1,12.2-0.1l-2.6-13.3L291.6,114.5z"/>
<path class="st24" d="M256.9,121.8c0,1.6,1.3,2.9,2.9,2.9s2.9-1.3,2.9-2.9s-1.3-2.9-2.9-2.9S256.9,120.2,256.9,121.8L256.9,121.8z"
	/>
<ellipse transform="matrix(0.9856 -0.1692 0.1692 0.9856 -12.4132 48.1468)" class="st18" cx="276.3" cy="96.9" rx="1.1" ry="1.5"/>
<polygon class="st17" points="303.2,154.5 310.1,154.5 311.6,142.5 301.7,142.5 "/>
<path class="st25" d="M308.4,148.5c0,1.6,1.3,2.9,2.9,2.9s2.9-1.3,2.9-2.9c0-1.6-1.3-2.9-2.9-2.9S308.4,146.8,308.4,148.5
	L308.4,148.5z"/>
<path class="st26" d="M310.7,144.6l-1.1,9.1h-5.7l-1.1-8.9c0.6-0.7,1.6-1.1,2.5-0.9C307,144.2,308,146,310.7,144.6z"/>
<path class="st17" d="M306.4,140.6c-0.2-0.2-0.2-0.5,0-0.7l0.1-0.1c0.2-0.1,0.5-0.2,0.8-0.2c0.5,0,0.9,0,1.4,0
	c0.8,0,1.6-0.3,2.3-0.8c1-0.7,1.3-2.1,0.5-3.2c-0.1-0.2-0.3-0.3-0.5-0.5c-1-0.7-3.2-0.7-3.4-2.2c0-1,0.6-1.9,1.5-2.3
	c0.8-0.5,1.7-0.7,2.7-0.6c2.4,0.1,4.2,1.7,6.1,2.8c0.1,0.1,0.3,0,0.3-0.1s0-0.2,0-0.3c-1.5-1.7-3.5-2.8-5.7-3.2
	c-1.9-0.3-3.9,0.4-5.1,1.9c-0.5,0.7-0.7,1.7-0.4,2.5c0.4,0.7,1,1.2,1.8,1.4s1.5,0.5,2.1,1c0.9,1-0.1,2.3-1.1,2.6
	c-0.6,0.2-1.2,0.3-1.8,0.3c-0.5-0.1-1.1,0-1.5,0.2c-0.5,0.2-0.7,0.8-0.5,1.3c0.1,0.1,0.2,0.3,0.3,0.4
	C306.4,141,306.6,140.7,306.4,140.6L306.4,140.6z"/>
<g class="st8">
	<path class="st9" d="M182.7,268.3h82.2c5.5,0,10,4.5,10,10v44.6c0,5.5-4.5,10-10,10h-82.2c-5.5,0-10-4.5-10-10v-44.6
		C172.7,272.7,177.2,268.3,182.7,268.3z"/>
	<path class="st10" d="M182.7,268.3h82.2c5.5,0,10,4.5,10,10v44.6c0,5.5-4.5,10-10,10h-82.2c-5.5,0-10-4.5-10-10v-44.6
		C172.7,272.7,177.2,268.3,182.7,268.3z"/>
</g>
<path class="st2" d="M173,258.5h82.2c5.5,0,10,4.5,10,10v44.6c0,5.5-4.5,10-10,10H173c-5.5,0-10-4.5-10-10v-44.6
	C163,263,167.4,258.5,173,258.5z"/>
<path class="st11" d="M173,258.5h82.2c5.5,0,10,4.5,10,10v44.6c0,5.5-4.5,10-10,10H173c-5.5,0-10-4.5-10-10v-44.6
	C163,263,167.4,258.5,173,258.5z"/>
<line class="st11" x1="175.9" y1="278.4" x2="183.9" y2="270.5"/>
<line class="st11" x1="175.9" y1="270.5" x2="183.9" y2="278.4"/>
<g>
	<path class="st9" d="M193.7,282.7V294c0.1,1.4-0.4,2.7-1.4,3.6s-2.3,1.4-3.6,1.3c-1.4,0.1-2.7-0.4-3.7-1.3c-1-1-1.5-2.3-1.4-3.7
		h3.2c0,0.6,0.2,1.1,0.5,1.6c0.3,0.4,0.8,0.6,1.4,0.6c0.5,0,1-0.2,1.3-0.5c0.3-0.4,0.5-1,0.5-1.5v-11.3h3.2V282.7z"/>
	<path class="st9" d="M207.3,295.7h-6.4l-1.1,3.1h-3.4l5.8-16.1h3.8l5.8,16.1h-3.4L207.3,295.7z M206.4,293.2l-2.3-6.7l-2.3,6.7
		H206.4z"/>
	<path class="st9" d="M228.3,282.7l-5.9,16.1h-3.9l-5.9-16.1h3.4l4.4,12.8l4.4-12.8H228.3z"/>
	<path class="st9" d="M240.1,295.7h-6.4l-1.1,3.1h-3.4l5.8-16.1h3.8l5.8,16.1h-3.4L240.1,295.7z M239.2,293.2l-2.3-6.7l-2.3,6.7
		H239.2z"/>
</g>
<g class="st8">
	<path class="st9" d="M308.8,284.2h206.3c5.5,0,10,4.5,10,10v8.8c0,5.5-4.5,10-10,10H308.8c-5.5,0-10-4.5-10-10v-8.8
		C298.8,288.7,303.3,284.2,308.8,284.2z"/>
	<path class="st10" d="M308.8,284.2h206.3c5.5,0,10,4.5,10,10v8.8c0,5.5-4.5,10-10,10H308.8c-5.5,0-10-4.5-10-10v-8.8
		C298.8,288.7,303.3,284.2,308.8,284.2z"/>
</g>
<path class="st2" d="M301,276.4h206.3c5.5,0,10,4.5,10,10v8.8c0,5.5-4.5,10-10,10H301c-5.5,0-10-4.5-10-10v-8.8
	C291,280.9,295.5,276.4,301,276.4z"/>
<path class="st11" d="M301,276.4h206.3c5.5,0,10,4.5,10,10v8.8c0,5.5-4.5,10-10,10H301c-5.5,0-10-4.5-10-10v-8.8
	C291,280.9,295.5,276.4,301,276.4z"/>
<path class="st27" d="M500.6,286.1h-150c-2.6,0-4.7,2.1-4.7,4.7l0,0l0,0c0,2.6,2.1,4.7,4.7,4.7l0,0h150.1c2.6,0,4.7-2.1,4.7-4.7l0,0
	l0,0C505.4,288.2,503.2,286.1,500.6,286.1L500.6,286.1z"/>
<path class="st9" d="M471.4,286.1H350.6c-2.6,0-4.7,2.1-4.7,4.7s2.1,4.7,4.7,4.7h120.8L471.4,286.1L471.4,286.1z"/>
<rect x="324.9" y="287" class="st11" width="7.9" height="7.9"/>
<g class="st8">
	<path class="st9" d="M308.8,244.1h206.3c5.5,0,10,4.5,10,10v8.8c0,5.5-4.5,10-10,10H308.8c-5.5,0-10-4.5-10-10v-8.8
		C298.8,248.6,303.3,244.1,308.8,244.1z"/>
	<path class="st10" d="M308.8,244.1h206.3c5.5,0,10,4.5,10,10v8.8c0,5.5-4.5,10-10,10H308.8c-5.5,0-10-4.5-10-10v-8.8
		C298.8,248.6,303.3,244.1,308.8,244.1z"/>
</g>
<path class="st2" d="M301,236.3h206.3c5.5,0,10,4.5,10,10v8.8c0,5.5-4.5,10-10,10H301c-5.5,0-10-4.5-10-10v-8.8
	C291,240.8,295.5,236.3,301,236.3z"/>
<path class="st11" d="M301,236.3h206.3c5.5,0,10,4.5,10,10v8.8c0,5.5-4.5,10-10,10H301c-5.5,0-10-4.5-10-10v-8.8
	C291,240.8,295.5,236.3,301,236.3z"/>
<path class="st27" d="M500.6,246h-150c-2.6,0-4.7,2.1-4.7,4.7l0,0l0,0c0,2.6,2.1,4.7,4.7,4.7l0,0h150.1c2.6,0,4.7-2.1,4.7-4.7l0,0
	l0,0C505.4,248.1,503.2,246,500.6,246L500.6,246z"/>
<path class="st9" d="M384.3,246h-33.8c-2.6,0-4.7,2.1-4.7,4.7c0,2.6,2.1,4.7,4.7,4.7l0,0h33.8V246z"/>
<rect x="324.9" y="246.8" class="st11" width="7.9" height="7.9"/>
<g class="st8">
	<path class="st9" d="M308.8,324.3h206.3c5.5,0,10,4.5,10,10v8.8c0,5.5-4.5,10-10,10H308.8c-5.5,0-10-4.5-10-10v-8.8
		C298.8,328.8,303.3,324.3,308.8,324.3z"/>
	<path class="st10" d="M308.8,324.3h206.3c5.5,0,10,4.5,10,10v8.8c0,5.5-4.5,10-10,10H308.8c-5.5,0-10-4.5-10-10v-8.8
		C298.8,328.8,303.3,324.3,308.8,324.3z"/>
</g>
<path class="st2" d="M301,316.5h206.3c5.5,0,10,4.5,10,10v8.8c0,5.5-4.5,10-10,10H301c-5.5,0-10-4.5-10-10v-8.8
	C291,321,295.5,316.5,301,316.5z"/>
<path class="st11" d="M301,316.5h206.3c5.5,0,10,4.5,10,10v8.8c0,5.5-4.5,10-10,10H301c-5.5,0-10-4.5-10-10v-8.8
	C291,321,295.5,316.5,301,316.5z"/>
<path class="st27" d="M500.6,326.3h-150c-2.6,0-4.7,2.1-4.7,4.7l0,0l0,0c0,2.6,2.1,4.7,4.7,4.7l0,0h150.1c2.6,0,4.7-2.1,4.7-4.7l0,0
	l0,0C505.4,328.4,503.2,326.3,500.6,326.3L500.6,326.3z"/>
<path class="st9" d="M494.9,326.3H350.6c-2.6,0-4.7,2.1-4.7,4.7s2.1,4.7,4.7,4.7H495v-9.4H494.9z"/>
<rect x="324.9" y="327.1" class="st11" width="7.9" height="7.9"/>
<path class="st11" d="M300.5,252.2c-23.6,0-22.4,17.9-43.7,17.9"/>
<path class="st12" d="M248.9,270.1L248.9,270.1c0-2.2,1.8-4,4-4l0,0c2.2,0,4,1.8,4,4l0,0c0,2.2-1.8,4-4,4l0,0
	C250.7,274,248.9,272.2,248.9,270.1z"/>
<path class="st12" d="M300.5,252.2L300.5,252.2c0-2.2,1.8-4,4-4l0,0c2.2,0,4,1.8,4,4l0,0c0,2.2-1.8,4-4,4l0,0
	C302.3,256.2,300.5,254.4,300.5,252.2z"/>
<path class="st12" d="M248.9,291.8L248.9,291.8c0-2.2,1.8-4,4-4l0,0c2.2,0,4,1.8,4,4l0,0c0,2.2-1.8,4-4,4l0,0
	C250.7,295.7,248.9,294,248.9,291.8z"/>
<path class="st12" d="M300.5,291.8L300.5,291.8c0-2.2,1.8-4,4-4l0,0c2.2,0,4,1.8,4,4l0,0c0,2.2-1.8,3.9-4,4l0,0
	C302.3,295.7,300.5,294,300.5,291.8z"/>
<line class="st11" x1="300.5" y1="291.8" x2="256.8" y2="291.8"/>
<path class="st11" d="M300.5,330c-23.6,0-22.4-17.9-43.7-17.9"/>
<path class="st12" d="M248.9,312.1L248.9,312.1c0,2.2,1.8,4,4,4l0,0c2.2,0,4-1.8,4-4l0,0c0-2.2-1.8-4-4-4l0,0
	C250.7,308.2,248.9,309.9,248.9,312.1z"/>
<path class="st12" d="M300.5,330L300.5,330c0,2.2,1.8,4,4,4l0,0c2.2,0,3.9-1.8,3.9-4l0,0c0-2.2-1.8-4-4-4l0,0
	C302.3,326,300.5,327.8,300.5,330z"/>
<path class="st28" d="M774,483.3c0,0,1.7,1.7,1.7,2.3s0.2,7.2-0.5,7.8s-2.7,1-2.1,1.7c0.5,0.5,4.3,0.4,6.8,0.3c0.7,0,1.6-6,1.9-6.8
	c0.4-1.3,1.9-4,1.6-4.9c-0.8-0.9-1.8-1.6-2.8-2.2c-1-0.8-1.9-1.7-2.6-2.8L774,483.3z"/>
<path class="st28" d="M751.5,487.4l1.5,4.3c0.1,0.7,0.5,2.4,0.5,3c0,2.3-10.4-2-8.1-3c0.5-0.4,0.9-1,0.9-1.6c0-1-0.3-1.9-0.9-2.8
	L751.5,487.4z"/>
<path class="st29" d="M734.1,405.7c0,0-0.8,7.1-0.8,7.3c0,12.5-1.5,37-1,39.3c1.1,5.8,13.5,37,13.5,37l6.4-0.9l-8.6-36.9l3.2-14.1
	l4.5-27.9L734.1,405.7z"/>
<path class="st30" d="M758.4,412l1.3,7.3l3.4,30.2l16.6,30.6c0,0-2.5,3.8-5.2,4.4l-23.6-31l-12.8-38.8l0.5-8.6L758.4,412z"/>
<path class="st28" d="M731.7,327.9c-0.3,0.5-0.6,1-1,1.5c0,0,1.9,20.1,2,21.4l5.7,8.6L732,364c0,0-6.5-10.4-6.6-11
	s0.2-15.6,0.2-15.6s0.5-7.8,0.5-8.2s-1.2-2.9-1.4-3.9c-0.2-1.3-0.3-2.5-0.3-3.8l0.5-0.7l2.2-0.5l1.6,0.2c0,0,3.6,1.5,3.8,1.9
	c0,1.3-0.1,2.7-0.3,4C732.1,327,731.9,327.4,731.7,327.9z"/>
<path class="st31" d="M731,324.1c-0.2,0.5-0.5,1-0.9,1.5c-0.6,0.6-1.5,0.5-2.1-0.1c-0.1-0.1-0.1-0.2-0.2-0.3
	c-0.4-0.5-0.7-1.1-0.9-1.7L731,324.1z"/>
<path class="st28" d="M731,324.1c0-0.5,0-0.9,0-1.4c0,0-0.9-1.8-0.7-1.9c0.7-0.4,2.2,1.6,2.2,1.6S731.1,325.6,731,324.1z"/>
<path class="st28" d="M724.8,325.3c0,0-1-3.8-0.6-4.8c0.3-0.7,4-2.1,4.5-1.5s-3.2,1.8-3,2s2.7-1.5,3.2-1.2s-2.4,2.2-2.3,2.5
	s1.7-1.5,1.9-0.8S724.8,325.3,724.8,325.3z"/>
<path class="st32" d="M734,401.3l1.3-17.9l0,0c0.4-4.4,0.6-7.9,0.2-9.2c-0.8-2.7-6.3-11.8-6.3-11.8s5.3-5.9,9.1-5.9
	c0,0,4.2,8,9.2,8.8s3.9,0.7,5.9,1c2.2,0.2,4.4,0.6,6.4,1.4c3.8,1.6,0.9,15.8,0.5,18.1c-0.7,3.5,0.6,32.9,0.6,32.9
	s-10.9,2.4-27.5-5.7L734,401.3z"/>
<path class="st28" d="M752.4,358.5l1.2,8c0,0-4.4,9.3-7,8.5c-2.2-0.7-0.8-9.2-0.8-9.2s1.2-4.3,0.8-6.5S752.4,358.5,752.4,358.5z"/>
<path class="st31" d="M751.5,360.9c-1.6,0.8-3.3,1.3-5.1,1.5c0.2-1,0.2-2.1,0.1-3.2c-0.2-1,1.1-1.3,2.4-1.2c1.8,0.2,3.4,0.5,3.4,0.5
	l0.2,1.5C752.3,360.4,751.9,360.7,751.5,360.9z"/>
<path class="st28" d="M758,349.3c0.2,0-1.8,8.9-4.8,10.4s-7.6,0.7-8.4-1.7c-0.9-2.6,2.5-11.7,6.8-12.9S758,349.3,758,349.3z"/>
<path class="st33" d="M770.4,382.4c0,0,3.9,5.3,4.1,6.2s-1.5,22.8-1.6,24.7c0,0,0.7,2.3,1.1,3.8s0.6,2.6,0.4,2.9s-0.8,0.1-1.1,0.6
	s-1,0.5-1.2,0.6s-0.9,0.9-1.1,0.9c-0.3-0.1-0.6,0-0.9,0.1c-0.3,0.3-0.7,0.4-1.1,0.4c-0.3,0-0.6-0.2-0.8-0.4c0,0,0.4-4,0.1-4
	c-0.4,0.1-0.8,0.3-1.1,0.6c-0.1,0.3,0,0.8-0.2,1c-0.1,0.3-0.4,0.4-0.7,0.4c-0.3-0.1-0.3-1.5-0.3-1.5c0-0.6,0.2-1.2,0.5-1.8
	c1.4-2.3,1.7-2,1.9-2.3s0-5.8,0-5.8s-0.6-16.1-0.6-17l-4.1-6.1L770.4,382.4z"/>
<path class="st32" d="M772,382.4l-8.2,6.2c0,0-4.5-6.8-6.9-9.2c-3-3,1.2-12.6,3-11.7C764.4,369.8,772,382.4,772,382.4z"/>
<path class="st29" d="M754.5,341.1c1.7,1.1,3.1,2.7,3.9,4.6c1.1,0.6,2.5,1.8,3.2,5.2c0.6,3.7-1.6,7.2-5.1,8.3
	c-3.1,1-3.6,3.1-3.6,3.1l-0.3-2.3c0.4-1.1,1-2.1,1.7-3c1-1-0.5-2.5-0.6-3.7c-0.1-0.9,0.5-2.7,0.4-4.3l-0.4-1.3
	c-0.7-1.1-1.8-1.9-3-2.2C748.9,345.3,751.4,339.2,754.5,341.1z"/>
<path class="st28" d="M753.3,354.8c-0.4,1-0.2,2,0.4,2.3s1.4-0.4,1.8-1.4s0.2-2-0.4-2.3S753.7,353.8,753.3,354.8z"/>
<path class="st29" d="M780.5,481.4c0,0-3.9,11.1-5.4,11.6c-0.4,0.1-2.3,0.5-2.7,1.4c-0.1,0.4-0.1,0.8,0,1.1h8.1c0,0,1-4.9,1.4-7
	c0,0,2.2-5.3,1.9-5.7S780.5,481.4,780.5,481.4z"/>
<path class="st29" d="M754.2,495.5l-1.2-3.8c0,0-2.5,1.1-3.8,0.9s-3.7-0.9-3.7-0.9c-5,1.7-9.1,2.5-8.3,3.8H754.2L754.2,495.5z"/>
<polygon class="st34" points="510.4,446.5 479.1,449.7 479.1,410.1 508.9,413.3 "/>
<path class="st35" d="M525.4,430.6c3.2,1.1,5.2,4.1,5.1,7.5c0,3.8-12.4,14.2-24.7,15.5s-18.5-5.3-18.5-5.3s16.2-4.5,21.6-8.5
	C514.4,435.8,520.9,428.8,525.4,430.6z"/>
<g class="st36">
	<path class="st37" d="M481,427c0,0,0.6-8.8,1-12.4c0,0-1,10,3,11.5s24.5,0.7,24.5,0.7l0.1,3.1l-26.4,1.3L481,427z"/>
</g>
<path class="st38" d="M471.2,451.2c-5.2,0.5-6.8,1.4-8.1,3.3s1,6.7,4,7.6s15.3-3.1,19.3-4S471.2,451.2,471.2,451.2z"/>
<path class="st38" d="M504.2,460.1c2.5,0,5.8,1.1,11.1,0.7s6.7-2.2,6.5-5.8s-2.7-5.6-8.8-4.7s-10.6,2-10.6,2L504.2,460.1z"/>
<path class="st39" d="M502.7,463.4c2.4,0.2,5.1-10.9,4.2-12.2s-8.7-1.1-19.1-5.8s-16-15.3-20.9-14.7s-8.2,4.7-9.1,7.3
	s2.9,7.1,10.7,11.8S497.5,463,502.7,463.4z"/>
<g class="st40">
	<path class="st35" d="M471.6,433.5c-0.5,2.8-0.4,4.4,3.8,7.4c2.5,1.8,5.2,3.2,8.1,4.1l2.4-4.7L471.6,433.5z"/>
</g>
<g class="st40">
	<path class="st35" d="M528.5,432.6c-0.9-0.9-1.9-1.5-3-2c-4.5-1.8-11.1,5.1-16.5,9.1l1.6,2.9C516.9,440.5,527.8,434,528.5,432.6z"
		/>
</g>
<path class="st41" d="M480.7,429.1c-1.4,0.2-2.8,0.4-4.3,0.7c-1.6,0.4-3.2,0.6-4.8,0.8c-0.1,1.4-0.1,2.9,0.2,4.3
	c0.7,2.1,10.2,8.3,10.2,8.3s4.3-2.7,5.3-5.7l-7-6L480.7,429.1z"/>
<path class="st34" d="M493.6,399c-3.8,2.2-9.3,2.2-14.2,3.9s-5.1,4.5-6.2,10.7c-0.9,5.5-1.5,11.1-1.7,16.7c1.7-0.1,3.5-0.4,5.2-0.8
	c1.3-0.3,3.4-0.5,4.7-0.6l0.5-11.2l16.4-2.6V399H493.6z"/>
<path class="st34" d="M515,425c2.2-1.9,5.1-2.9,7.7-4.2c-0.9-1.3-1.9-2.8-2.9-4.4c-3.6-6.1-4.3-8.2-7.7-10.1
	c-2.9-1.7-9.6-6-10.7-7.4h-3V415l8,2.1C506.5,417.1,514.3,424.2,515,425z"/>
<path class="st41" d="M515.1,425.1c1.2,1.3,2.3,2.7,3.4,4.1c0,0-7,8.5-8.9,8.5s-4.5-0.1-5.6,0.6s-6.1,4.3-4.5,4.4s0.5-0.6,4.8-0.1
	s3.7-0.5,6-1.5c2.8-1.1,5.5-2.4,8.1-3.8c4.8-2.6,8.3-6.1,8.7-8.7c0.3-1.9-1.7-4.2-4.1-7.6C520.2,422.2,517.3,423.2,515.1,425.1z"/>
<path class="st41" d="M493.7,399.4c-1.1,0.9-1.4,2.5-0.1,5.2c0.8,1.7,2.6,6.2,4,9.1c0,0,2.5-5.1,4.2-7.6c1.1-1.7,1.9-3.5,1.3-4.8
	C501.6,398.2,493.7,399.4,493.7,399.4z"/>
<path class="st37" d="M513.9,423.8c-0.5,0.5,1.4,3.5,2.7,3.5s5.4-4.7,7-5.3s-1.4-4.1-2.2-4.1S515.1,422.8,513.9,423.8z"/>
<path class="st37" d="M470.8,428.4c-0.2,0.5-0.2,3.7,0.6,4.3s10,0.8,10.3-1.5s0.6-4.2-0.7-4.2s-5.4,0.6-7.1,0.6
	S471.1,427.4,470.8,428.4z"/>
<path class="st42" d="M481.5,447.4l-2.8-16.1c-0.1-0.5,0.3-1.1,0.8-1.2c0.1,0,0.1,0,0.2,0h32.8c0.6,0,1,0.4,1,1c0,0.1,0,0.2,0,0.3
	l-3.6,16L481.5,447.4z"/>
<g class="st36">
	<polygon class="st43" points="481.3,446.1 481.5,447.4 509.9,447.4 510.2,446.1 	"/>
</g>
<path class="st2" d="M499.1,438.3c0,0.9-1.3,1.7-3,1.7s-3-0.8-3-1.7s1.3-1.7,3-1.7S499.1,437.4,499.1,438.3z"/>
<g class="st40">
	<polygon class="st2" points="504.8,430.2 489.6,447.4 494.2,447.4 506.7,430.2 	"/>
</g>
<g class="st40">
	<polygon class="st2" points="508.8,430.2 498.1,447.4 500.8,447.4 510.2,430.2 	"/>
</g>
<path class="st44" d="M499.5,380.4c-1.1-1.4-2.4-5.4,1.8-5.4c5.1,0,3.8,5.4,2.1,6.4S499.5,380.4,499.5,380.4z"/>
<path class="st35" d="M499.5,380.4l0.1,0.6c0.5,0.7,1.4,1.1,2.3,1c1.6-0.1,2.1-0.7,2.1-0.7v-0.5
	C503.9,380.8,500.5,381.3,499.5,380.4z"/>
<path class="st45" d="M503,401.3c-1.5-3.1-9.3-2-9.3-2c-0.5,0.4-0.8,1-0.9,1.7c0.5,1.2,3.9,4.8,9.9,3.4
	C503.2,403.5,503.3,402.4,503,401.3z"/>
<path class="st41" d="M497.5,403.5c2.3,0.2,4.7-0.7,6.1-2.6c1.3-1.9,2.2-4,2.9-6.2c0.7-1.9,2.4-8.2,0.9-10.4c-1.5-2-3.7-3.4-6.2-3.8
	L497.5,403.5z"/>
<path class="st41" d="M506.6,392.5c0.4-0.4,1.5-0.5,1.4,0.2s-1,1.1-1.2,2.1s-0.7,2.2-1.8,2.1S506.6,392.5,506.6,392.5z"/>
<path class="st41" d="M497.5,403.5c-2.3-0.5-4.2-2.2-5-4.4c-0.6-2.2-0.9-4.5-0.8-6.8c-0.1-2,0.3-8.5,2.4-10.2c2-1.5,4.6-2.1,7.1-1.7
	L497.5,403.5z"/>
<path class="st41" d="M492.3,390.2c-0.3-0.5-1.3-0.9-1.4-0.2s0.6,1.3,0.5,2.3s0,2.3,1,2.6S492.3,390.2,492.3,390.2z"/>
<path class="st44" d="M507.4,384.2c1.1,1.7,0.4,5.7-0.3,8.4c-0.4,0.6-0.7,1.2-1,1.9c0,0,0.1-4.7-1.2-5.4s-1.6,0.6-5,0l1.4-8.6
	C503.7,380.8,506,382.1,507.4,384.2z"/>
<path class="st44" d="M494.1,382c-1.5,1.3-2.2,5.3-2.3,8c0,0,0.3,1.2,0.4,2.1c0,0,1.7-4.5,3.3-4.7s1,1,4.4,1.5l1.4-8.6
	C498.7,379.9,496.2,380.6,494.1,382z"/>
<g class="st40">
	<path class="st35" d="M481.5,447.4c2,0.7,20.1,2.6,28.4,0H481.5z"/>
</g>
<path class="st46" d="M175.3,321.8c0.4,0.1,0.6-0.8,0.7-1c0.3-0.5,3.2-1.7,2.8-2c-0.6-0.4-1.4-0.5-2.1-0.3c-0.7,0-1.3,0.4-1.7,0.9
	c-0.4,0.7-0.4,1.6,0.1,2.3C175.1,321.7,175.2,321.8,175.3,321.8z"/>
<path class="st47" d="M180.4,317.9c0.4,0.1,2,0.6,2.1,0s-1.5-1.2-2-1.1c-0.8,0-1.5,0-2.3,0.1c-0.7,0.2-1.4,0.4-2.1,0.5
	c-0.4,0.2-0.7,0.3-1.1,0.5c-0.4,0.3-0.9,0.4-1.4,0.5c-0.2,0-0.4,0-0.6-0.1c0,0.1,0,0.2-0.1,0.3c-0.4,1-0.8,1.9-1.3,2.9
	c0.6,0.1,1.2,0.1,1.8,0c0.4-0.1,0.7,0,1.1,0.2l1,0.4c0.3,0.1,0.5,0.2,0.8,0.3c0.3,0,0.7,0,0.8-0.3c0-0.3-0.1-0.6-0.4-0.8
	c-0.4-0.3-1.6-0.2-1.3-0.9c0.1-0.3,0.3-0.6,0.6-0.8c0.2-0.2,0.5-0.4,0.9-0.5c0.6-0.2,1.3-0.3,2-0.2c0.4,0.1,0.8,0.1,1.2-0.1
	c0.3-0.2,0.4-0.4,0.1-0.7c-0.1-0.1-0.3-0.2-0.4-0.2C179.9,317.9,180.2,317.9,180.4,317.9z"/>
<path class="st48" d="M124.4,292.1c2.9-2.6,7.2-2.6,10.1-0.2c4.9,3.9,14.1,11.1,17,13c4.1,2.8,22.4,12.7,22.4,12.7l-2.3,5.1
	c0,0-22.6-8.3-25.8-10.5S124,300.3,123,296C122.7,294.5,123.3,293,124.4,292.1z"/>
<path class="st37" d="M124.4,292.1c2.9-2.6,7.2-2.6,10.1-0.2c4.9,3.9,14.1,11.1,17,13c4.1,2.8,22.4,12.7,22.4,12.7l-2.3,5.1
	c0,0-22.6-8.3-25.8-10.5S124,300.3,123,296C122.7,294.5,123.3,293,124.4,292.1z"/>
<polygon class="st49" points="101.1,348.8 102.4,345 158.1,345 157,348.8 "/>
<polygon class="st49" points="94.5,368.6 95.8,364.9 151.8,364.9 150.6,368.6 "/>
<polygon class="st49" points="109.5,328.9 110.8,325.1 166.5,325.1 165.3,328.9 "/>
<polygon class="st49" points="87.8,388.7 89.1,384.9 145.4,384.9 144.2,388.7 "/>
<polygon class="st49" points="81,409 82.3,405.2 139,405.2 137.8,409 "/>
<polygon class="st49" points="74.2,429.6 75.5,425.7 132.5,425.7 131.2,429.6 "/>
<polygon class="st49" points="67.3,450.3 68.6,446.4 125.9,446.4 124.6,450.3 "/>
<path class="st49" d="M60.9,480.2h-0.3c-1.4,0-2.6-1.2-2.6-2.6c0-0.3,0-0.6,0.1-0.8l52.4-156.9c0.3-1.1,1.3-1.8,2.4-1.8h3.6
	L63.3,478.4C63,479.5,62,480.2,60.9,480.2z"/>
<path class="st49" d="M117.6,480.2h-0.3c-1.4,0-2.6-1.2-2.6-2.6c0-0.3,0-0.5,0.1-0.8L164.9,320c0.3-1.1,1.3-1.8,2.5-1.8h0.1
	c1.4,0,2.6,1.2,2.6,2.6c0,0.3,0,0.5-0.1,0.8l-49.8,156.8C119.7,479.5,118.7,480.2,117.6,480.2z"/>
<path class="st47" d="M140.4,276.8c0.1,0.2,0.1,0.3,0.1,0.5c0.5,1.5,1.2,2.9,1.9,4.3c0.5,0.8,1.5,1.6,1.9,2.4
	c0.2,0.3,0.3,0.6,0.5,0.9c-1.3,1.8-4.6,6.7-5.4,8.9c0,0-6.2-3.4-7.4-7C132.1,286.6,138,280.7,140.4,276.8z"/>
<path class="st46" d="M138.9,289.1c0.4-2.1,0.2-4.2-0.7-6.2c-0.3-0.6-0.6-1.2-1-1.8c1.2-1.4,2.2-2.8,3.2-4.3
	c0.1,0.2,0.1,0.3,0.1,0.5c0.5,1.5,1.2,2.9,1.9,4.3c0.5,0.8,1.5,1.6,1.9,2.4c0.2,0.3,0.3,0.6,0.5,0.9c-1.3,1.8-4.6,6.7-5.4,8.9
	c-0.8-0.5-1.6-1-2.4-1.5C138,291.4,138.7,290.3,138.9,289.1z"/>
<path class="st49" d="M121.6,398.5c0,0,0.2,7,1.3,8s15.1,1.4,16.3,0.1s0.5-3.4-2.5-4.3c-3.2-0.9-4.8,0-6.8-0.9s-1.5-4-1.5-4
	L121.6,398.5z"/>
<path class="st49" d="M86.9,398.3c0,0-1.1,6.9,0,7.9s15.3,2.1,16.6,0.9s0.6-3.4-2.3-4.4c-3.2-1-4.7-0.4-6.8-1.1
	c-1.6-0.6-0.5-3.9-0.5-3.9L86.9,398.3z"/>
<path class="st50" d="M97.3,358.8c-0.2-13.1,0.7-26.2,2.9-39.1c2.4,0,4.8,0.4,7,1.4c4.3,2,8.6,3.8,12.9,5.7
	c-3.5,7.2-11.1,30.8-12,35.7c-1.2,6.1-14,37.4-14,37.4l-7.8-1C86.4,393.8,97.3,360.5,97.3,358.8z"/>
<path class="st51" d="M113.2,323.8c2.3,1.1,4.6,2,6.9,2.8c-3.4,7.1-9.7,26.6-11.1,31.9c-1.1-3.3-6.3-11.2-8.4-19.9
	c-1.4-5.8-1.6-11.8-0.7-17.7v-0.1C104.3,321.1,108.6,321.6,113.2,323.8z"/>
<path class="st50" d="M107.4,322.8c3,1,8.5,2.5,12.7,4c2.9,7.3,11.4,24.6,11.9,32.4c0.5,8.6-2.5,41.2-2.5,41.2h-8.9
	c0,0-0.8-36.8-2.1-39.1c-4.1-7.8-8.6-14-11.2-18.8c-4.3-8.1-5.8-13.3-6.5-17.1c-0.3-1.7-1.8-7.3,1-9.1
	C104.2,316.8,104.8,321.9,107.4,322.8z"/>
<path class="st34" d="M122.2,330c0,0-8-0.4-14.4-4c-4.7-2.7-7.3-4-9.4-6.8c0,0,14.1-22.7,21.1-28.7s13.5-4.8,13.5-4.8
	s3.4,4.8,7.2,6.4c0,0-6.8,14.8-9.8,20.6S122.2,330,122.2,330z"/>
<path class="st37" d="M131.5,310.6c0.3-0.6,0.6-1.3,1-2c0.1-0.1,0.1-0.2,0.1-0.3c0.3-0.7,0.7-1.4,1-2.1l0.2-0.4l1.2-2.5l0,0
	c-0.3-0.1-0.6-0.3-0.9-0.5c-2.1-1.5-3.6-3.8-5.1-5.9c-0.3-0.4-0.5-0.7-0.8-1c-1.8,3-2.2,7.5-2.7,10.3c-1.5,7.7-4.6,17-9.1,23
	c1.9,0.4,3.9,0.7,5.8,0.9c0,0,5.2-11.5,8.2-17.3l0.9-1.8L131.5,310.6z"/>
<path class="st47" d="M142.8,267.4c0,0,6.4-2.8,9.3,0.1s4.4,5,3.7,6.5s-2.8,5.3-3,7.2s0,4.9-0.5,5.4s-2.4-0.8-2.7-0.7
	s-4.6,3.2-5.6,3.1s-4.8-7.5-4.2-10S139.9,270.3,142.8,267.4z"/>
<path class="st49" d="M148.6,273.3c0.2,0.3,0.5,0.7,0.7,1c0.4,0.5,0.8,0.9,1.2,1.4c0.7,1,1.6,1.8,2.7,2.3c1.7,0.7,2.4-0.9,3.8-1.3
	c0.7-0.2,1.3,0.4,2,0.1s1.4-0.7,1.9-1.4c1.2-1.4,0-2.7-0.9-3.9c-1-1.4-0.4-2.1-0.2-3.6c0.6-3.6-4.3-2.2-5.8-3.8
	c-0.8-0.8-1.1-2.1-2.4-2.4c-1-0.1-2.1,0-3.1,0.3c-1,0.2-1.3-0.5-2.3-0.8c-0.8-0.2-1.6-0.3-2.4-0.2c-1.8,0.2-3.3,1.2-4.3,2.7
	c-0.7,1.3-0.4,2.6-1.3,3.7c-0.9,0.9-1.6,2-2,3.2c-0.4,1.7,0.9,3.1,1.1,4.7c0.2,1.6,1.1,3.1,2.5,4c0.9-0.7,2-2.2,1.6-3.3
	c-0.3-0.5-0.5-1-0.6-1.5c-0.1-1,0.6-1.8,1.6-1.9c0.6,0,1.2,0.2,1.6,0.7c0.8,1-1,4,0.4,4.4c1.1,0.4,1.3-1.8,1.4-2.4
	c0.2-0.8,1.4-2.5,2.4-2.5C148.4,273.1,148.5,273.2,148.6,273.3z"/>
<path class="st47" d="M155.9,337.7c0.3-0.1,0.7-0.1,1-0.1c0.8,0.1,1.6,0,2.3-0.3c1.1-0.4,2.7-1.1,3.8-0.9c0.6,0.1,4.5,1,3.6,2.6
	c-0.1,0.2-0.6,0.5-0.7,0.5l-1.5-0.5c0.3,0.1,0.7,0.3,1,0.4c0.1,0.1,0.4,0.2,0.5,0.4c0.2,0.3-0.1,1-0.4,1.1s-0.6-0.2-0.9-0.4l0,0
	c0.3,0.2,0.9,0.4,0.5,1.2s-0.7,0.3-1.1,0.2c-0.1,0-0.3-0.1-0.4-0.2c0.1,0.1,0.7,0.3,0.8,0.4c0.4,0.3-0.4,1.4-1.1,1.3
	c-0.4-0.1-1.5-0.7-1.7-0.6c-0.3,0.1-0.6,0.1-0.9,0.1c-0.9,0-1.8-0.1-2.6-0.5c-0.4-0.2-1.1-0.5-1.4-0.6c-0.8-0.4-1.5-0.9-2.1-1.5
	C155,339.2,156,339,155.9,337.7z"/>
<path class="st34" d="M156,342.3l3.7-5.6c0,0-10.1-14-13.7-21.1s-5.9-20.1-9.8-22.1s-8.7-1.1-8.2,5.4s10.1,17.9,11.8,21.2
	S154.1,340.2,156,342.3z"/>
<g class="st8">
	<path class="st9" d="M127.7,87.5h76.8c5.5,0,10,4.5,10,10v112.1c0,5.5-4.5,10-10,10h-76.8c-5.5,0-10-4.5-10-10v-112
		C117.7,92,122.1,87.5,127.7,87.5z"/>
	<path class="st10" d="M127.7,87.5h76.8c5.5,0,10,4.5,10,10v112.1c0,5.5-4.5,10-10,10h-76.8c-5.5,0-10-4.5-10-10v-112
		C117.7,92,122.1,87.5,127.7,87.5z"/>
</g>
<path class="st2" d="M117.9,77.8h76.8c5.5,0,10,4.5,10,10V200c0,5.5-4.5,10-10,10h-76.8c-5.5,0-10-4.5-10-10V87.8
	C107.9,82.3,112.4,77.8,117.9,77.8z"/>
<path class="st11" d="M117.9,77.8h76.8c5.5,0,10,4.5,10,10V200c0,5.5-4.5,10-10,10h-76.8c-5.5,0-10-4.5-10-10V87.8
	C107.9,82.3,112.4,77.8,117.9,77.8z"/>
<line class="st11" x1="120.9" y1="97.7" x2="128.8" y2="89.8"/>
<line class="st11" x1="120.9" y1="89.8" x2="128.8" y2="97.7"/>
<g>
	<g>
		<g>
			<path class="st9" d="M126.9,154.1v-9.7h-4v9.7h-3.4V132h3.4v9.4h4V132h3.4v22.2H126.9z"/>
			<path class="st9" d="M139.4,135.1v19.1H136v-19.1h-3.6v-3.2h10.5v3.2H139.4z"/>
			<path class="st9" d="M155.9,154.1v-15.4h-0.1l-2.8,12.2h-2l-2.8-12.2h-0.1v15.4h-3.2V132h4.4l2.7,11.9h0.1l2.6-11.9h4.5v22.2
				H155.9z"/>
			<path class="st9" d="M171.9,150.9v3.2h-9V132h3.4V151L171.9,150.9L171.9,150.9z"/>
		</g>
		<path class="st9" d="M188.9,136.4v0.2c0,2-0.8,3.5-3.4,6.1l2.3,3.6h0.1v-3.3l2.9,0.2v3.7c0,1.2-0.1,2.4-0.5,3.3l2.8,4.1h-4l-0.6-1
			c-1,0.9-2.2,1.3-3.8,1.3c-3.4,0-5.5-1.9-5.5-5.4v-0.8c0-2,0.6-3.7,2.4-5.8c-1.5-2.5-2-4-2-5.7v-0.2c0-3.2,1.7-4.9,4.7-4.9
			C187.3,131.7,188.9,133.4,188.9,136.4z M183.2,145.2c-0.6,1.2-0.9,2-0.9,2.9v0.5c0,1.9,1,2.7,2.3,2.7c0.8,0,1.4-0.3,2-0.8
			L183.2,145.2L183.2,145.2z M182.7,136.6v0.2c0,0.9,0.3,1.8,1.1,3.4h0.1c1.4-1.6,1.9-2.4,1.9-3.4v-0.2c0-1.2-0.5-1.8-1.5-1.8
			C183.3,134.7,182.7,135.3,182.7,136.6z"/>
	</g>
	<g>
		<path class="st9" d="M149.8,167.3v2l-3.2,0.2v-1.8c0-1.8-0.6-2.6-1.9-2.6s-1.9,0.8-1.9,2.2v12.1c0,1.4,0.6,2.2,1.9,2.2
			s1.9-0.8,1.9-2.6v-2.5l3.2,0.2v2.7c0,3.4-2,5.3-5.3,5.3s-5.2-2-5.2-5.3v-12.2c0-3.4,1.9-5.3,5.2-5.3
			C147.8,161.9,149.8,163.9,149.8,167.3z"/>
		<path class="st9" d="M161.6,167v0.6l-3.2,0.4v-0.7c0-1.5-0.5-2.2-1.8-2.2c-1,0-1.7,0.5-1.7,1.8v0.4c0,1.2,0.6,2.2,2.9,4.3
			c2.9,2.8,4,4.5,4,7.1v1.1c0,3.3-2,5-5.2,5c-3.1,0-5.2-1.8-5.2-5.1v-1.4l3.2-0.4v1.5c0,1.5,0.7,2.2,1.9,2.2c1,0,1.9-0.5,1.9-2.1
			v-0.7c0-1.4-0.6-2.4-2.9-4.4c-2.9-2.8-4-4.5-4-7v-0.5c0-3.3,1.9-5,5-5C159.7,161.9,161.6,163.8,161.6,167z"/>
		<path class="st9" d="M173.1,167v0.6l-3.2,0.4v-0.7c0-1.5-0.5-2.2-1.8-2.2c-1,0-1.7,0.5-1.7,1.8v0.4c0,1.2,0.6,2.2,2.9,4.3
			c2.9,2.8,4,4.5,4,7.1v1.1c0,3.3-2,5-5.2,5c-3.1,0-5.2-1.8-5.2-5.1v-1.4l3.2-0.4v1.5c0,1.5,0.7,2.2,1.9,2.2c1,0,1.9-0.5,1.9-2.1
			v-0.7c0-1.4-0.6-2.4-2.9-4.4c-2.9-2.8-4-4.5-4-7v-0.5c0-3.3,1.9-5,5-5C171.1,161.9,173.1,163.8,173.1,167z"/>
	</g>
</g>
<path class="st11" d="M254.3,128.1c-23.6,0-38.8-17.9-60.1-17.9"/>
<path class="st12" d="M186.3,110.2L186.3,110.2c0,2.2,1.8,4,4,4l0,0c2.2,0,4-1.8,3.9-4l0,0c0-2.2-1.8-4-3.9-4l0,0
	C188.1,106.2,186.3,108,186.3,110.2z"/>
<path class="st12" d="M254.3,128.1L254.3,128.1c0,2.2,1.8,4,4,4l0,0c2.2,0,4-1.8,4-4l0,0c0-2.2-1.8-4-4-4l0,0
	C256.1,124.1,254.3,125.9,254.3,128.1z"/>
<g class="st8">
	<path class="st9" d="M663.5,64H739c5.9,0,10.7,4.8,10.7,10.7v134.2c0,5.9-4.8,10.7-10.7,10.7h-75.6c-5.9,0-10.7-4.8-10.7-10.7V74.7
		C652.8,68.8,657.6,64,663.5,64z"/>
	<path class="st10" d="M663.5,64H739c5.9,0,10.7,4.8,10.7,10.7v134.2c0,5.9-4.8,10.7-10.7,10.7h-75.6c-5.9,0-10.7-4.8-10.7-10.7
		V74.7C652.8,68.8,657.6,64,663.5,64z"/>
</g>
<path class="st2" d="M653.7,54.3h75.6c5.9,0,10.7,4.8,10.7,10.7v134.2c0,5.9-4.8,10.7-10.7,10.7h-75.6c-5.9,0-10.7-4.8-10.7-10.7
	V64.9C643.1,59,647.8,54.3,653.7,54.3z"/>
<path class="st11" d="M653.7,54.3h75.6c5.9,0,10.7,4.8,10.7,10.7v134.2c0,5.9-4.8,10.7-10.7,10.7h-75.6c-5.9,0-10.7-4.8-10.7-10.7
	V64.9C643.1,59,647.8,54.3,653.7,54.3z"/>
<line class="st11" x1="727" y1="74.2" x2="719" y2="66.3"/>
<line class="st11" x1="727" y1="66.3" x2="719" y2="74.2"/>
<path class="st11" d="M605.8,183.1c23.6,0,22.4,17.9,43.7,17.9"/>
<path class="st12" d="M657.5,201L657.5,201c0-2.2-1.8-4-4-4l0,0c-2.2,0-4,1.8-4,4l0,0c0,2.2,1.8,4,4,3.9l0,0
	C655.7,205,657.4,203.2,657.5,201z"/>
<path class="st12" d="M605.8,183.1L605.8,183.1c0-2.2-1.8-4-4-4l0,0c-2.2,0-4,1.8-4,4l0,0c0,2.2,1.8,4,4,4l0,0
	C604,187.1,605.8,185.4,605.8,183.1z"/>
<g class="st8">
	<path class="st9" d="M287,439.5h155.3c5.5,0,10,4.5,10,10v75c0,5.5-4.5,10-10,10H287c-5.5,0-10-4.5-10-10v-75
		C277,444,281.5,439.5,287,439.5z"/>
	<path class="st10" d="M287,439.5h155.3c5.5,0,10,4.5,10,10v75c0,5.5-4.5,10-10,10H287c-5.5,0-10-4.5-10-10v-75
		C277,444,281.5,439.5,287,439.5z"/>
</g>
<path class="st2" d="M277.3,429.7h155.3c5.5,0,10,4.5,10,10v75c0,5.5-4.5,10-10,10H277.3c-5.5,0-10-4.5-10-10v-75
	C267.3,434.2,271.7,429.7,277.3,429.7z"/>
<path class="st11" d="M277.3,429.7h155.3c5.5,0,10,4.5,10,10v75c0,5.5-4.5,10-10,10H277.3c-5.5,0-10-4.5-10-10v-75
	C267.3,434.2,271.7,429.7,277.3,429.7z"/>
<line class="st11" x1="280.3" y1="449.6" x2="288.2" y2="441.7"/>
<line class="st11" x1="280.3" y1="441.7" x2="288.2" y2="449.6"/>
<path class="st11" d="M355.4,434.9c0-21.3-17.9-20.1-17.9-43.7l0,0c0-6.3-5.1-11.5-11.5-11.5h-4.6"/>
<path class="st12" d="M355.4,434.9L355.4,434.9c2.2,0,4,1.8,4,4l0,0c0,2.2-1.8,4-4,4l0,0c-2.2,0-4-1.8-4-4l0,0
	C351.5,436.7,353.2,434.9,355.4,434.9z"/>
<path class="st12" d="M317.5,383.7L317.5,383.7c-2.2,0-4-1.8-4-4l0,0c0-2.2,1.8-4,4-4l0,0c2.2,0,4,1.8,4,4l0,0
	C321.5,381.9,319.7,383.7,317.5,383.7z"/>
<g class="st8">
	<path class="st9" d="M491,486.1h82.2c5.5,0,10,4.5,10,10v44.6c0,5.5-4.5,10-10,10H491c-5.5,0-10-4.5-10-10v-44.6
		C481,490.6,485.5,486.1,491,486.1z"/>
	<path class="st10" d="M491,486.1h82.2c5.5,0,10,4.5,10,10v44.6c0,5.5-4.5,10-10,10H491c-5.5,0-10-4.5-10-10v-44.6
		C481,490.6,485.5,486.1,491,486.1z"/>
</g>
<path class="st2" d="M481.3,476.4h82.2c5.5,0,10,4.5,10,10V531c0,5.5-4.5,10-10,10h-82.2c-5.5,0-10-4.5-10-10v-44.6
	C471.3,480.9,475.8,476.4,481.3,476.4z"/>
<path class="st11" d="M481.3,476.4h82.2c5.5,0,10,4.5,10,10V531c0,5.5-4.5,10-10,10h-82.2c-5.5,0-10-4.5-10-10v-44.6
	C471.3,480.9,475.8,476.4,481.3,476.4z"/>
<line class="st11" x1="484.3" y1="496.3" x2="492.2" y2="488.4"/>
<line class="st11" x1="484.3" y1="488.4" x2="492.2" y2="496.3"/>
<path class="st11" d="M432.8,494.8c23.6,0,22.4,17.9,43.7,17.9"/>
<path class="st12" d="M484.5,512.6L484.5,512.6c0-2.2-1.8-4-4-4l0,0c-2.2,0-4,1.8-4,4l0,0c0,2.2,1.8,4,4,4l0,0
	C482.7,516.6,484.5,514.8,484.5,512.6z"/>
<path class="st12" d="M432.8,494.8L432.8,494.8c0-2.2-1.8-4-4-4l0,0c-2.2,0-4,1.8-4,4l0,0c0,2.2,1.8,4,4,4l0,0
	C431.1,498.7,432.8,496.9,432.8,494.8z"/>
<g>
	<path class="st9" d="M517.6,510.2h-8v11.4h9.1l-0.7,5.1h-14v-36.2h14v5.1h-8.4v9.4h8V510.2z"/>
	<path class="st9" d="M526.4,516.1v2.2c0,2.7,0.8,4.2,2.9,4.2c2.2,0,2.8-2,2.8-4.4c0-3.9-0.9-5.1-4.7-8.1c-3.9-3-5.9-5-5.9-10.4
		c0-4.8,1.5-9.6,8-9.6c6.7,0,7.7,4.8,7.7,8.7v2h-5.5v-1.8c0-2.5-0.4-4.1-2.2-4.1s-2.3,1.6-2.3,4c0,2.5,0.5,3.8,3.6,6.2
		c5.4,4,7,6.3,7,12.4c0,5.1-1.8,10-8.6,10c-6.7,0-8.3-4.3-8.3-9v-2.2h5.7V516.1z"/>
	<path class="st9" d="M551.2,499.7v-0.5c0-1.5-0.3-3.6-2.5-3.6c-2.2,0-2.8,1.5-2.8,5.3v4.7c0.9-1.4,2.3-2.4,4.9-2.4
		c4.4,0,6.2,3.5,6.2,8.3v5.7c0,5.4-1.7,9.7-8.3,9.7c-7,0-8.2-5.1-8.2-9.9v-15.3c0-5.9,1.5-10.8,8.3-10.8c6.9,0,7.7,5.1,7.7,8.4v0.2
		L551.2,499.7L551.2,499.7z M551.4,518.2v-5.8c0-2.5-0.5-4.2-2.6-4.2s-2.8,1.5-2.8,4.4v5.6c0,2.3,0.5,4.4,2.8,4.4
		C550.9,522.6,551.4,520.8,551.4,518.2z"/>
</g>
<g>
	<g>
		<path class="st9" d="M299.3,477l-4.4-14.8h-0.1V477h-3.2v-22.3h3.8l4,13.3h0.1v-13.3h3.2V477H299.3z"/>
		<path class="st9" d="M316.8,460v11.7c0,3.5-2.1,5.6-5.4,5.6c-3.4,0-5.4-2.1-5.4-5.6V460c0-3.5,2.1-5.6,5.4-5.6
			C314.7,454.4,316.8,456.5,316.8,460z M309.3,460.1v11.6c0,1.7,0.7,2.5,2.1,2.5c1.3,0,2.1-0.9,2.1-2.5v-11.6c0-1.7-0.7-2.5-2.1-2.5
			C310,457.5,309.3,458.4,309.3,460.1z"/>
		<path class="st9" d="M324.9,454.7c3.6,0,5.6,2,5.6,5.6v11c0,3.7-2,5.6-5.6,5.6h-4.8v-22.2H324.9z M323.5,473.9h1.3
			c1.6,0,2.4-0.9,2.4-2.7v-10.6c0-1.9-0.7-2.7-2.4-2.7h-1.3V473.9z"/>
		<path class="st9" d="M337.2,457.8v6.3h4.9v3.1h-4.9v6.6h6.1v3.1h-9.5v-22.2h9.5v3.1H337.2z"/>
		<path class="st9" d="M346.2,477v-3.6h3.6v3.6H346.2z"/>
		<path class="st9" d="M359.8,471.8c0,3.6-1.7,5.5-5.2,5.5c-0.8,0-1.6-0.1-2.3-0.3l0.2-3.1c0.4,0.1,1,0.3,1.7,0.3
			c1.6,0,2.2-0.8,2.2-2.5v-17h3.4L359.8,471.8L359.8,471.8z"/>
		<path class="st9" d="M372.3,459.5v0.6l-3.2,0.3v-0.7c0-1.5-0.6-2.2-1.8-2.2c-1,0-1.7,0.5-1.7,1.8v0.5c0,1.2,0.6,2.3,2.8,4.3
			c3,2.8,4,4.6,4,7.2v1.1c0,3.3-2.1,5-5.2,5s-5.2-1.8-5.2-5.1v-1.5l3.2-0.3v1.5c0,1.5,0.7,2.2,1.9,2.2c1,0,1.8-0.5,1.8-2.1v-0.7
			c0-1.4-0.6-2.4-2.8-4.4c-3-2.8-4-4.6-4-7v-0.5c0-3.3,1.9-5,5-5S372.3,456.2,372.3,459.5z"/>
	</g>
	<g>
		<path class="st9" d="M387.4,477l-0.7-5.1H383l-0.7,5.1h-3.4l3.9-22.3h4.3L391,477H387.4z M383.4,468.9h2.8l-1.4-9.4h-0.1
			L383.4,468.9z"/>
		<path class="st9" d="M401,477l-4.4-14.8h-0.1V477h-3.2v-22.3h3.8l4,13.3h0.1v-13.3h3.2V477H401z"/>
		<path class="st9" d="M412.7,454.7c3.6,0,5.6,2,5.6,5.6v11c0,3.7-2,5.6-5.6,5.6h-4.8v-22.2H412.7z M411.3,473.9h1.3
			c1.6,0,2.4-0.9,2.4-2.7v-10.6c0-1.9-0.7-2.7-2.4-2.7h-1.3V473.9z"/>
	</g>
	<g>
		<path class="st9" d="M316.4,497.8h-1.6v9.4h-3.4v-22.3h4.9c3.6,0,5.6,2,5.6,5.6v1.6c0,2.4-0.8,4-2.4,4.9l3.1,10.2H319L316.4,497.8
			z M314.8,494.7h1.4c1.6,0,2.4-0.9,2.4-2.7v-1.1c0-1.9-0.7-2.7-2.4-2.7h-1.4V494.7z"/>
		<path class="st9" d="M328.4,488v6.3h4.9v3.1h-4.9v6.6h6.1v3.1H325v-22.3h9.5v3.1L328.4,488L328.4,488z"/>
		<path class="st9" d="M344.8,507.2l-0.7-5.1h-3.7l-0.7,5.1h-3.4l3.9-22.3h4.3l3.9,22.3H344.8z M340.8,499.1h2.8l-1.4-9.4h-0.1
			L340.8,499.1z"/>
		<path class="st9" d="M360.6,490v2l-3.2,0.2v-1.8c0-1.8-0.7-2.6-1.9-2.6c-1.2,0-1.9,0.8-1.9,2.3v12.2c0,1.5,0.7,2.3,1.9,2.3
			c1.2,0,1.9-0.8,1.9-2.6v-2.5l3.2,0.2v2.7c0,3.4-1.9,5.3-5.3,5.3c-3.3,0-5.2-2-5.2-5.3v-12.2c0-3.4,1.9-5.4,5.2-5.4
			C358.6,484.6,360.6,486.6,360.6,490z"/>
		<path class="st9" d="M368.9,488.1v19.1h-3.4v-19.1h-3.6v-3.2h10.6v3.2H368.9z"/>
		<path class="st9" d="M373.4,507.2v-3.5h3.6v3.6L373.4,507.2L373.4,507.2z"/>
		<path class="st9" d="M387,502c0,3.6-1.7,5.5-5.2,5.5c-0.8,0-1.6-0.1-2.3-0.3l0.2-3.1c0.4,0.1,1,0.3,1.7,0.3c1.6,0,2.2-0.8,2.2-2.5
			v-17h3.4L387,502L387,502z"/>
		<path class="st9" d="M399.5,489.7v0.6l-3.2,0.3v-0.7c0-1.5-0.6-2.2-1.8-2.2c-1,0-1.7,0.5-1.7,1.8v0.5c0,1.2,0.6,2.3,2.8,4.3
			c3,2.8,4,4.6,4,7.2v1.1c0,3.3-2.1,5-5.2,5s-5.2-1.8-5.2-5.1V501l3.2-0.3v1.5c0,1.5,0.7,2.2,1.9,2.2c1,0,1.8-0.5,1.8-2.1v-0.7
			c0-1.4-0.6-2.4-2.8-4.4c-3-2.8-4-4.6-4-7v-0.5c0-3.3,1.9-5,5-5S399.5,486.4,399.5,489.7z"/>
	</g>
</g>
<g>
	<path class="st9" d="M676.5,119.3v1.3l-6.5,0.6v-1.4c0-3.1-1.1-4.5-3.5-4.5c-2,0-3.4,1.1-3.4,3.6v1c0,2.5,1.3,4.5,5.7,8.5
		c6,5.6,8,9.2,8,14.4v2.2c0,6.6-4.1,10-10.3,10c-6.3,0-10.5-3.6-10.5-10.2v-2.9l6.5-0.6v3.1c0,3,1.4,4.5,3.8,4.5
		c2,0,3.7-1.1,3.7-4.3v-1.4c0-2.8-1.3-4.8-5.7-8.9c-6-5.5-8-9.2-8-14v-1.1c0-6.6,3.8-10,10.1-10
		C672.7,109.1,676.5,112.8,676.5,119.3z"/>
	<path class="st9" d="M687.9,116v12.6h9.9v6.3h-9.9v13.3h12.2v6.3h-19v-44.7h19v6.3H687.9z"/>
	<path class="st9" d="M727,120.4v23.3c0,7-4.1,11.3-10.9,11.3s-10.9-4.3-10.9-11.3v-23.3c0-7,4.1-11.3,10.9-11.3
		S727,113.4,727,120.4z M711.9,120.5v23.2c0,3.3,1.5,5.1,4.1,5.1s4.1-1.8,4.1-5.1v-23.2c0-3.3-1.5-5.1-4.1-5.1
		S711.9,117.2,711.9,120.5z"/>
</g>
</svg>
