<svg xmlns="http://www.w3.org/2000/svg" viewBox="0 0 445.8 147.9"><defs><style>.cls-1{fill:#1e306e;fill-rule:evenodd;}</style></defs><g id="Layer_2" data-name="Layer 2"><g id="Layer_1-2" data-name="Layer 1"><path class="cls-1" d="M15.9,0H76.8V14.6H15.9V0ZM192.4,115.2a30.3,30.3,0,0,0,2.5-12V43.9h14.6v59.3a44.2,44.2,0,0,1-28.4,41.4,49.7,49.7,0,0,1-35.6,0,45.9,45.9,0,0,1-14.7-9.3,44,44,0,0,1-13.7-32.1V43.9h14.6v59.3a29.4,29.4,0,0,0,9.2,21.5,33.4,33.4,0,0,0,45,0A34.1,34.1,0,0,0,192.4,115.2Zm68.3,30.9V110.9h37.6l17.9,35.2h16.4l-21.2-41.8a28.3,28.3,0,0,0,3.7-3.2,33.2,33.2,0,0,0,7.2-10.6A32.3,32.3,0,0,0,325,77.4a33,33,0,0,0-2.7-13.1,33.6,33.6,0,0,0-17.9-17.9,33,33,0,0,0-13.1-2.7H246.1V146h14.6Zm0-87.6h30.7a19.1,19.1,0,0,1,19,19,18.7,18.7,0,0,1-5.6,13.3,18.9,18.9,0,0,1-13.5,5.5H260.6V58.5Zm108.1,87.6,30.7-80.2,30.7,80.2h15.6L406.7,43.8H392.2L353.1,146.1ZM39.1,43.8,0,146.1H15.6L46.3,65.9,77,146.1H92.6L53.5,43.8Z"/></g></g></svg>