<svg id="Layer_1" data-name="Layer 1" xmlns="http://www.w3.org/2000/svg" viewBox="0 0 841.89 595.28"><defs><style>.cls-1{fill:#6c63ff;}.cls-2{isolation:isolate;}.cls-3{fill:#fff;}</style></defs><g id="Rectangle_363" data-name="Rectangle 363"><path class="cls-1" d="M195.53,371.71h-104a30,30,0,0,1-30-30v-88a30,30,0,0,1,30-30h104a30,30,0,0,1,30,30v88A30,30,0,0,1,195.53,371.71Zm-104-146a28,28,0,0,0-28,28v88a28,28,0,0,0,28,28h104a28,28,0,0,0,28-28v-88a28,28,0,0,0-28-28Z"/></g><g id="SEO" class="cls-2"><g class="cls-2"><path class="cls-1" d="M133.75,362.08c-2.08,0-3.69-1.14-3.69-3h1.83a1.68,1.68,0,0,0,1.86,1.55c1.2,0,1.88-.64,1.88-1.53,0-2.52-5.54-.89-5.54-4.73,0-1.83,1.46-3,3.59-3s3.4,1,3.55,2.83h-1.89a1.62,1.62,0,0,0-1.75-1.38c-1,0-1.76.45-1.76,1.46,0,2.35,5.52.88,5.52,4.69C137.35,360.58,136.08,362.08,133.75,362.08Z"/><path class="cls-1" d="M145.14,352.93h-4V356h3.6v1.39h-3.6v3.2h4V362h-5.76V351.54h5.76Z"/><path class="cls-1" d="M152,362.08a5.33,5.33,0,1,1,5.33-5.34A5.21,5.21,0,0,1,152,362.08Zm0-1.49a3.84,3.84,0,1,0-3.57-3.85A3.53,3.53,0,0,0,152,360.59Z"/></g></g><path class="cls-1" d="M138.15,311.05a29,29,0,1,1,20.49-8.48A29,29,0,0,1,138.15,311.05Zm0-56a27,27,0,1,0,27,27A27,27,0,0,0,138.15,255.1Z"/><path class="cls-1" d="M176.89,321.83a1,1,0,0,1-.7-.29l-19-19a1,1,0,0,1,0-1.41,1,1,0,0,1,1.42,0l19,19a1,1,0,0,1-.71,1.71Z"/><path class="cls-1" d="M123.65,296.56a1,1,0,0,1-.71-.29l-13.48-13.48a1,1,0,0,1,1.42-1.41l12.77,12.77L134,283.82a1,1,0,0,1,1.42,0l6.76,6.77,31.22-31.23h-1.29a1,1,0,0,1,0-2h3.72a1,1,0,0,1,.64.25.93.93,0,0,1,.14.14,1,1,0,0,1,.2.53.66.66,0,0,1,0,.14,1,1,0,0,1-.24.59h0l0,.06-33.63,33.64a1,1,0,0,1-1.42,0L134.68,286l-10.32,10.32A1,1,0,0,1,123.65,296.56Z"/><path class="cls-1" d="M175.79,262.68a1,1,0,0,1-1-1v-3.32a1,1,0,0,1,2,0v3.32A1,1,0,0,1,175.79,262.68Z"/><g id="Rectangle_364" data-name="Rectangle 364"><path class="cls-1" d="M369.53,371.71h-104a30,30,0,0,1-30-30v-88a30,30,0,0,1,30-30h104a30,30,0,0,1,30,30v88A30,30,0,0,1,369.53,371.71Zm-104-146a28,28,0,0,0-28,28v88a28,28,0,0,0,28,28h104a28,28,0,0,0,28-28v-88a28,28,0,0,0-28-28Z"/></g><g id="Software_Development" data-name="Software Development"><g class="cls-2"><path class="cls-1" d="M285.23,344.08c-2.08,0-3.69-1.14-3.69-3h1.83a1.67,1.67,0,0,0,1.86,1.55c1.2,0,1.87-.64,1.87-1.53,0-2.52-5.53-.89-5.53-4.73,0-1.83,1.45-3,3.58-3s3.41,1,3.56,2.83h-1.89a1.63,1.63,0,0,0-1.76-1.38c-1,0-1.75.45-1.75,1.46,0,2.35,5.52.88,5.52,4.69C288.83,342.58,287.55,344.08,285.23,344.08Z"/><path class="cls-1" d="M294.44,344.11a4,4,0,0,1-4.14-4.28,4.22,4.22,0,1,1,8.43,0A4.14,4.14,0,0,1,294.44,344.11Zm0-1.48a2.55,2.55,0,0,0,2.53-2.8,2.5,2.5,0,0,0-2.49-2.77,2.46,2.46,0,0,0-2.44,2.77C292,341.71,293.15,342.63,294.44,342.63Z"/><path class="cls-1" d="M300.63,337.1h-1v-1.39h1v-.58c0-1.91,1-2.73,3.14-2.73v1.42c-1,0-1.41.36-1.41,1.31v.58h1.53v1.39h-1.53V344h-1.73Z"/><path class="cls-1" d="M305.67,337.1h-1v-1.39h1v-2h1.73v2h2v1.39h-2v4.58c0,.61.24.87,1,.87h1.05V344h-1.35c-1.47,0-2.39-.61-2.39-2.29Z"/><path class="cls-1" d="M310,335.71h1.74l1.72,6.64,1.76-6.64H317l1.68,6.61,1.71-6.61h1.68L319.52,344h-1.8l-1.67-6.1-1.66,6.1h-1.8Z"/><path class="cls-1" d="M326.69,335.58a3.53,3.53,0,0,1,2.86,1.33v-1.2h1.73V344h-1.73v-1.22a3.55,3.55,0,0,1-2.89,1.36,4,4,0,0,1-3.87-4.31A3.92,3.92,0,0,1,326.69,335.58Zm.36,1.48a2.53,2.53,0,0,0-2.51,2.74,2.61,2.61,0,0,0,2.51,2.83,2.8,2.8,0,0,0,0-5.57Z"/><path class="cls-1" d="M335.24,344h-1.71v-8.26h1.71v1.2a2.67,2.67,0,0,1,2.47-1.33v1.76h-.43c-1.26,0-2,.53-2,2.29Z"/><path class="cls-1" d="M342.84,344.11a4,4,0,0,1-4.12-4.28,4,4,0,0,1,4.12-4.25,3.85,3.85,0,0,1,4,4.06,4.82,4.82,0,0,1-.06.84h-6.31a2.27,2.27,0,0,0,2.35,2.19,2,2,0,0,0,2-1.16h1.85A3.78,3.78,0,0,1,342.84,344.11Zm-2.34-5h4.58a2.16,2.16,0,0,0-2.31-2.09A2.25,2.25,0,0,0,340.5,339.1Z"/></g><g class="cls-2"><path class="cls-1" d="M276.78,356.8c0,3.21-2.19,5.17-5.54,5.17h-3.4V351.55h3.4C274.59,351.55,276.78,353.58,276.78,356.8Zm-5.54,3.78A3.43,3.43,0,0,0,275,356.8c0-2.38-1.32-3.85-3.78-3.85h-1.69v7.63Z"/><path class="cls-1" d="M282,362.11a4,4,0,0,1-4.13-4.28,4,4,0,0,1,4.13-4.25,3.85,3.85,0,0,1,4,4.06,6,6,0,0,1-.06.84h-6.32a2.28,2.28,0,0,0,2.36,2.19,2,2,0,0,0,2-1.16h1.84A3.76,3.76,0,0,1,282,362.11Zm-2.34-5h4.57A2.15,2.15,0,0,0,282,355,2.25,2.25,0,0,0,279.69,357.1Z"/><path class="cls-1" d="M288.58,353.71l2.34,6.73,2.34-6.73h1.82L291.93,362h-2l-3.14-8.26Z"/><path class="cls-1" d="M299.92,362.11a4,4,0,0,1-4.12-4.28,4,4,0,0,1,4.12-4.25,3.85,3.85,0,0,1,4,4.06,4.82,4.82,0,0,1-.06.84h-6.31a2.27,2.27,0,0,0,2.35,2.19,2,2,0,0,0,1.95-1.16h1.85A3.78,3.78,0,0,1,299.92,362.11Zm-2.34-5h4.58a2.16,2.16,0,0,0-2.31-2.09A2.25,2.25,0,0,0,297.58,357.1Z"/><path class="cls-1" d="M305.62,350.88h1.71V362h-1.71Z"/><path class="cls-1" d="M313.17,362.11a4,4,0,0,1-4.14-4.28,4.22,4.22,0,1,1,8.43,0A4.14,4.14,0,0,1,313.17,362.11Zm0-1.48a2.55,2.55,0,0,0,2.53-2.8,2.5,2.5,0,0,0-2.49-2.77,2.46,2.46,0,0,0-2.44,2.77C310.77,359.71,311.88,360.63,313.17,360.63Z"/><path class="cls-1" d="M323.74,353.58a3.91,3.91,0,0,1,3.89,4.22,4,4,0,0,1-3.89,4.31,3.73,3.73,0,0,1-2.88-1.34v5.13h-1.71V353.71h1.71v1.21A3.64,3.64,0,0,1,323.74,353.58Zm-.37,1.48a2.8,2.8,0,0,0,0,5.57,2.61,2.61,0,0,0,2.52-2.83A2.54,2.54,0,0,0,323.37,355.06Z"/><path class="cls-1" d="M341,357.35a2.09,2.09,0,1,0-4.16,0V362h-1.69v-4.62a2.09,2.09,0,1,0-4.16,0V362h-1.71v-8.26H331v1a3.15,3.15,0,0,1,2.45-1.08,3.19,3.19,0,0,1,3,1.63,3.39,3.39,0,0,1,6.28,1.89V362H341Z"/><path class="cls-1" d="M348.46,362.11a4,4,0,0,1-4.12-4.28,4,4,0,0,1,4.12-4.25,3.85,3.85,0,0,1,4,4.06,4.82,4.82,0,0,1-.06.84h-6.31a2.27,2.27,0,0,0,2.35,2.19,2,2,0,0,0,2-1.16h1.85A3.78,3.78,0,0,1,348.46,362.11Zm-2.34-5h4.58a2.16,2.16,0,0,0-2.31-2.09A2.25,2.25,0,0,0,346.12,357.1Z"/><path class="cls-1" d="M360,357.35a2.09,2.09,0,1,0-4.16,0V362h-1.71v-8.26h1.71v1a3.17,3.17,0,0,1,2.46-1.08,3.21,3.21,0,0,1,3.39,3.52V362H360Z"/><path class="cls-1" d="M364.17,355.1h-1v-1.39h1v-2h1.72v2h2v1.39h-2v4.58c0,.61.24.87,1,.87h1V362h-1.35c-1.47,0-2.38-.61-2.38-2.29Z"/></g></g><path class="cls-1" d="M358.19,297.54H276.88v-38.8A11.73,11.73,0,0,1,288.59,247h57.89a11.73,11.73,0,0,1,11.71,11.72Zm-79.31-2h77.31v-36.8a9.73,9.73,0,0,0-9.71-9.72H288.59a9.73,9.73,0,0,0-9.71,9.72Z"/><path class="cls-1" d="M353.37,304.51H281.7a4.82,4.82,0,0,1-4.82-4.81v-4.16h81.31v4.16A4.82,4.82,0,0,1,353.37,304.51Zm-74.49-7v2.16a2.81,2.81,0,0,0,2.82,2.81h71.67a2.82,2.82,0,0,0,2.82-2.81v-2.16Z"/><path class="cls-1" d="M297,264.32a2,2,0,0,1,1.9-1.49h0l-4.3,17.42a1.94,1.94,0,0,1-1.89,1.48h0Z"/><path class="cls-1" d="M305.15,269a4.05,4.05,0,0,1,4.3,3.15h-.25a2.64,2.64,0,0,1-1.94-1,2.67,2.67,0,0,0-2.11-.87c-1.7,0-3,1.21-3,3.49s1.26,3.52,3,3.52a2.66,2.66,0,0,0,2.1-.84,2.69,2.69,0,0,1,2-1h.21a4.15,4.15,0,0,1-4.3,3.15c-2.65,0-4.54-1.87-4.54-4.83A4.44,4.44,0,0,1,305.15,269Z"/><path class="cls-1" d="M315.57,278.65a4.82,4.82,0,1,1,4.78-4.83A4.62,4.62,0,0,1,315.57,278.65Zm0-1.36a3.17,3.17,0,0,0,3.2-3.47,3.13,3.13,0,0,0-3.15-3.45c-1.63,0-3.11,1.1-3.11,3.45S314,277.29,315.57,277.29Z"/><path class="cls-1" d="M326.24,269a4.08,4.08,0,0,1,3.46,1.82V266.7a.78.78,0,0,1,.78-.79h0a.78.78,0,0,1,.78.79v11a.78.78,0,0,1-.78.78h0a.78.78,0,0,1-.78-.78v-1a3.83,3.83,0,0,1-3.47,1.91c-2.5,0-4.42-2-4.42-4.85S323.73,269,326.24,269Zm.29,1.35a3.14,3.14,0,0,0-3.14,3.43,3.17,3.17,0,1,0,3.14-3.43Z"/><path class="cls-1" d="M337.91,278.65a4.49,4.49,0,0,1-4.61-4.83,4.44,4.44,0,0,1,4.61-4.8,4.28,4.28,0,0,1,4.47,4.46c0,.34,0,.61-.05.93h-7.45a2.94,2.94,0,0,0,3,2.93,2.75,2.75,0,0,0,2.1-.83,2.5,2.5,0,0,1,1.83-.89h.35A4.18,4.18,0,0,1,337.91,278.65Zm-3-5.49h5.88a2.74,2.74,0,0,0-2.94-2.83A2.89,2.89,0,0,0,334.9,273.16Z"/><g id="Rectangle_365" data-name="Rectangle 365"><path class="cls-1" d="M543.53,371.71h-104a30,30,0,0,1-30-30v-88a30,30,0,0,1,30-30h104a30,30,0,0,1,30,30v88A30,30,0,0,1,543.53,371.71Zm-104-146a28,28,0,0,0-28,28v88a28,28,0,0,0,28,28h104a28,28,0,0,0,28-28v-88a28,28,0,0,0-28-28Z"/></g><g id="UI_UX_Design" data-name="UI UX Design"><g class="cls-2"><path class="cls-1" d="M443.68,351.55h1.71v6.65a2.36,2.36,0,1,0,4.72,0v-6.65h1.71v6.62a3.76,3.76,0,0,1-4.09,3.91,3.72,3.72,0,0,1-4.05-3.91Z"/><path class="cls-1" d="M454,351.55h1.71V362H454Z"/><path class="cls-1" d="M461.86,347.82h1.69l-4.08,16.78h-1.68Z"/><path class="cls-1" d="M465.7,351.55h1.71v6.65a2.36,2.36,0,1,0,4.72,0v-6.65h1.71v6.62a3.76,3.76,0,0,1-4.09,3.91,3.72,3.72,0,0,1-4.05-3.91Z"/><path class="cls-1" d="M479.81,358.2l-2.2,3.78H475.7l3.24-5.21-3.25-5.22h1.92l2.37,3.81,2.22-3.81h1.9l-3.26,5.22,3.24,5.21h-1.91Z"/><path class="cls-1" d="M498.8,356.8c0,3.21-2.19,5.18-5.54,5.18h-3.4V351.55h3.4C496.61,351.55,498.8,353.58,498.8,356.8Zm-5.54,3.78A3.43,3.43,0,0,0,497,356.8c0-2.38-1.32-3.85-3.78-3.85h-1.69v7.63Z"/><path class="cls-1" d="M504.05,362.11a4,4,0,0,1-4.12-4.27,4,4,0,0,1,4.12-4.26,3.85,3.85,0,0,1,4,4.06,5.83,5.83,0,0,1-.06.84H501.7a2.27,2.27,0,0,0,2.35,2.19,2,2,0,0,0,1.95-1.15h1.84A3.76,3.76,0,0,1,504.05,362.11Zm-2.34-5h4.58A2.15,2.15,0,0,0,504,355,2.25,2.25,0,0,0,501.71,357.1Z"/><path class="cls-1" d="M512.75,362.11c-2,0-3.37-1.17-3.45-2.67h1.77a1.51,1.51,0,0,0,1.65,1.23c1,0,1.52-.42,1.52-1,0-1.62-4.8-.69-4.8-3.72,0-1.32,1.23-2.38,3.18-2.38s3.1,1,3.19,2.65H514.1c-.06-.72-.61-1.21-1.55-1.21s-1.39.37-1.39.93c0,1.66,4.67.73,4.76,3.72C515.92,361.06,514.7,362.11,512.75,362.11Z"/><path class="cls-1" d="M517.54,351.52a1.09,1.09,0,1,1,1.09,1.1A1.07,1.07,0,0,1,517.54,351.52Zm.22,2.19h1.71V362h-1.71Z"/><path class="cls-1" d="M525.05,353.58a3.54,3.54,0,0,1,2.87,1.33v-1.2h1.72v8.4a3.76,3.76,0,0,1-4,3.95c-2.2,0-3.84-1.1-4.05-2.93h1.7a2.29,2.29,0,0,0,2.35,1.44,2.21,2.21,0,0,0,2.32-2.46v-1.38a3.55,3.55,0,0,1-2.87,1.38,4,4,0,0,1-3.9-4.3A3.94,3.94,0,0,1,525.05,353.58Zm.36,1.48a2.53,2.53,0,0,0-2.5,2.75,2.6,2.6,0,0,0,2.5,2.82,2.8,2.8,0,0,0,0-5.57Z"/><path class="cls-1" d="M537.75,357.36c0-1.52-.82-2.3-2.07-2.3s-2.08.78-2.08,2.3V362h-1.71v-8.27h1.71v1a3.16,3.16,0,0,1,2.46-1.08,3.22,3.22,0,0,1,3.39,3.52V362h-1.7Z"/></g></g><path class="cls-1" d="M511.79,318.92h-2.26a3.31,3.31,0,0,1-3.31-3.31v-.77a13.94,13.94,0,0,1-2.26-.93l-.54.54a3.33,3.33,0,0,1-4.69,0l-1.6-1.6a3.33,3.33,0,0,1,0-4.69l.54-.54a13.94,13.94,0,0,1-.93-2.26H496a3.31,3.31,0,0,1-3.31-3.31v-2.26a3.31,3.31,0,0,1,3.31-3.31h.77a14.9,14.9,0,0,1,.93-2.26l-.54-.54a3.33,3.33,0,0,1,0-4.69l1.6-1.6a3.32,3.32,0,0,1,4.69,0l.54.54a14.9,14.9,0,0,1,2.26-.93v-.77a3.31,3.31,0,0,1,3.31-3.31h2.26a3.31,3.31,0,0,1,3.31,3.31V287a14.9,14.9,0,0,1,2.26.93l.54-.54a3.33,3.33,0,0,1,4.69,0l1.6,1.6a3.33,3.33,0,0,1,0,4.69l-.54.54a13.94,13.94,0,0,1,.93,2.26h.77a3.31,3.31,0,0,1,3.31,3.31v2.26a3.31,3.31,0,0,1-3.31,3.31h-.77a13.94,13.94,0,0,1-.93,2.26l.54.54a3.32,3.32,0,0,1,0,4.69l-1.6,1.6a3.32,3.32,0,0,1-4.69,0l-.54-.54a13.94,13.94,0,0,1-2.26.93v.77A3.31,3.31,0,0,1,511.79,318.92Zm-7.48-7.23a12.26,12.26,0,0,0,3.22,1.34,1.06,1.06,0,0,1,.8,1v1.56a1.2,1.2,0,0,0,1.2,1.2h2.26a1.21,1.21,0,0,0,1.21-1.2v-1.56a1,1,0,0,1,.79-1,12.26,12.26,0,0,0,3.22-1.34,1.06,1.06,0,0,1,1.28.16L519.4,313a1.21,1.21,0,0,0,1.7,0l1.6-1.6a1.2,1.2,0,0,0,0-1.7l-1.11-1.11a1.06,1.06,0,0,1-.16-1.28,12.26,12.26,0,0,0,1.34-3.22,1,1,0,0,1,1-.79h1.56a1.21,1.21,0,0,0,1.2-1.21v-2.26a1.2,1.2,0,0,0-1.2-1.2h-1.56a1.06,1.06,0,0,1-1-.8,12.26,12.26,0,0,0-1.34-3.22,1.06,1.06,0,0,1,.16-1.28l1.11-1.1a1.22,1.22,0,0,0,0-1.71l-1.6-1.6a1.21,1.21,0,0,0-1.7,0L518.29,290a1.06,1.06,0,0,1-1.28.16,12.26,12.26,0,0,0-3.22-1.34,1,1,0,0,1-.79-1v-1.56a1.21,1.21,0,0,0-1.21-1.2h-2.26a1.2,1.2,0,0,0-1.2,1.2v1.56a1.06,1.06,0,0,1-.8,1,12.26,12.26,0,0,0-3.22,1.34A1.06,1.06,0,0,1,503,290l-1.1-1.11a1.22,1.22,0,0,0-1.71,0l-1.6,1.6a1.21,1.21,0,0,0,0,1.7l1.11,1.11a1.06,1.06,0,0,1,.16,1.28,12.26,12.26,0,0,0-1.34,3.22,1.06,1.06,0,0,1-1,.8H496a1.2,1.2,0,0,0-1.2,1.2v2.26a1.21,1.21,0,0,0,1.2,1.21h1.56a1,1,0,0,1,1,.79,12.26,12.26,0,0,0,1.34,3.22,1.06,1.06,0,0,1-.16,1.28l-1.11,1.11a1.21,1.21,0,0,0,0,1.7l1.6,1.6a1.21,1.21,0,0,0,1.7,0l1.11-1.11a1.06,1.06,0,0,1,1.28-.16Z"/><path class="cls-1" d="M510.66,308.75a7.83,7.83,0,1,1,7.83-7.83A7.84,7.84,0,0,1,510.66,308.75Zm0-13.55a5.72,5.72,0,1,0,5.72,5.72,5.72,5.72,0,0,0-5.72-5.72Z"/><path class="cls-3" d="M501.38,250.45h-3v1.29a3.47,3.47,0,0,1-3.47,3.47H479a3.47,3.47,0,0,1-3.47-3.47v-.19a8.18,8.18,0,0,0-4.09,7.07v54a8.17,8.17,0,0,0,8.17,8.17h21.79a8.17,8.17,0,0,0,8.17-8.17v-54A8.17,8.17,0,0,0,501.38,250.45Z"/><path class="cls-1" d="M501.38,321.81H479.59a9.18,9.18,0,0,1-9.17-9.17v-54a9.21,9.21,0,0,1,4.59-7.93,1,1,0,0,1,1.5.86v.19a2.48,2.48,0,0,0,2.47,2.47h15.95a2.48,2.48,0,0,0,2.47-2.47v-1.29a1,1,0,0,1,1-1h3a9.18,9.18,0,0,1,9.17,9.17v54A9.18,9.18,0,0,1,501.38,321.81Zm-26.59-68.5a7.17,7.17,0,0,0-2.37,5.31v54a7.18,7.18,0,0,0,7.17,7.17h21.79a7.18,7.18,0,0,0,7.17-7.17v-54a7.18,7.18,0,0,0-7.17-7.17h-2v.29a4.47,4.47,0,0,1-4.47,4.47H479A4.48,4.48,0,0,1,474.79,253.31Z"/><rect class="cls-3" x="454.4" y="242.65" width="34.04" height="70.36" rx="8.17"/><path class="cls-1" d="M480.28,314H462.57a9.18,9.18,0,0,1-9.17-9.17v-54a9.19,9.19,0,0,1,9.17-9.17h17.71a9.19,9.19,0,0,1,9.17,9.17v54A9.18,9.18,0,0,1,480.28,314Zm-17.71-70.36a7.18,7.18,0,0,0-7.17,7.17v54a7.18,7.18,0,0,0,7.17,7.17h17.71a7.18,7.18,0,0,0,7.17-7.17v-54a7.18,7.18,0,0,0-7.17-7.17Z"/><path class="cls-1" d="M482.15,294.68H460.53a1,1,0,0,1,0-2h21.62a1,1,0,0,1,0,2Z"/><path class="cls-1" d="M480.62,299.1H460.53a1,1,0,0,1,0-2h20.09a1,1,0,0,1,0,2Z"/><path class="cls-1" d="M474.32,303.53H460.53a1,1,0,0,1,0-2h13.79a1,1,0,0,1,0,2Z"/><path class="cls-1" d="M470.57,290.25h-10a1,1,0,0,1,0-2h10a1,1,0,0,1,0,2Z"/><path class="cls-1" d="M471.42,266.13a5.36,5.36,0,1,1,5.36-5.36A5.36,5.36,0,0,1,471.42,266.13Zm0-8.71a3.36,3.36,0,1,0,3.36,3.35A3.35,3.35,0,0,0,471.42,257.42Z"/><path class="cls-1" d="M477.39,277.82H465.46a3.12,3.12,0,0,1-3.12-3.12,9.09,9.09,0,0,1,18.17,0A3.12,3.12,0,0,1,477.39,277.82Zm-6-10.2a7.09,7.09,0,0,0-7.08,7.08,1.12,1.12,0,0,0,1.12,1.12h11.93a1.12,1.12,0,0,0,1.12-1.12A7.1,7.1,0,0,0,471.42,267.62Z"/><g id="Group_349" data-name="Group 349"><g id="Group_347" data-name="Group 347"><g id="Rectangle_377" data-name="Rectangle 377"><path class="cls-1" d="M717.53,371.71h-104a30,30,0,0,1-30-30v-88a30,30,0,0,1,30-30h104a30,30,0,0,1,30,30v88A30,30,0,0,1,717.53,371.71Zm-104-146a28,28,0,0,0-28,28v88a28,28,0,0,0,28,28h104a28,28,0,0,0,28-28v-88a28,28,0,0,0-28-28Z"/></g></g><g id="Data_Science" data-name="Data Science" class="cls-2"><g class="cls-2"><path class="cls-1" d="M625.74,356.8c0,3.21-2.19,5.18-5.54,5.18h-3.4V351.55h3.4C623.55,351.55,625.74,353.58,625.74,356.8Zm-5.54,3.78A3.43,3.43,0,0,0,624,356.8c0-2.38-1.32-3.85-3.78-3.85h-1.69v7.63Z"/><path class="cls-1" d="M630.76,353.58a3.53,3.53,0,0,1,2.87,1.33v-1.2h1.72V362h-1.72v-1.23a3.59,3.59,0,0,1-2.9,1.36,4,4,0,0,1-3.87-4.3A3.94,3.94,0,0,1,630.76,353.58Zm.36,1.48a2.54,2.54,0,0,0-2.5,2.75,2.61,2.61,0,0,0,2.5,2.82,2.8,2.8,0,0,0,0-5.57Z"/><path class="cls-1" d="M637.87,355.11h-1v-1.4h1v-2h1.73v2h2v1.4h-2v4.57c0,.62.24.87,1,.87h1.05V362h-1.35c-1.47,0-2.39-.62-2.39-2.3Z"/><path class="cls-1" d="M646.51,353.58a3.53,3.53,0,0,1,2.87,1.33v-1.2h1.72V362h-1.72v-1.23a3.59,3.59,0,0,1-2.9,1.36,4,4,0,0,1-3.87-4.3A3.94,3.94,0,0,1,646.51,353.58Zm.36,1.48a2.54,2.54,0,0,0-2.5,2.75,2.61,2.61,0,0,0,2.5,2.82,2.8,2.8,0,0,0,0-5.57Z"/><path class="cls-1" d="M660.69,362.08c-2.09,0-3.69-1.14-3.69-3h1.83a1.67,1.67,0,0,0,1.86,1.54c1.2,0,1.87-.64,1.87-1.53,0-2.52-5.53-.88-5.53-4.72,0-1.83,1.45-3,3.58-3s3.41,1.05,3.56,2.83h-1.89a1.64,1.64,0,0,0-1.76-1.38c-1,0-1.75.45-1.75,1.46,0,2.35,5.52.88,5.52,4.69C664.29,360.58,663,362.08,660.69,362.08Z"/><path class="cls-1" d="M669.79,353.58a3.58,3.58,0,0,1,3.81,2.74h-1.84a1.94,1.94,0,0,0-2-1.3c-1.38,0-2.29,1-2.29,2.82s.91,2.83,2.29,2.83a1.9,1.9,0,0,0,2-1.3h1.84a3.7,3.7,0,0,1-3.81,2.74,4.27,4.27,0,0,1,0-8.53Z"/><path class="cls-1" d="M675.09,351.52a1.09,1.09,0,1,1,1.09,1.1A1.08,1.08,0,0,1,675.09,351.52Zm.22,2.19H677V362h-1.71Z"/><path class="cls-1" d="M682.83,362.11a4,4,0,0,1-4.13-4.27,4,4,0,0,1,4.13-4.26,3.85,3.85,0,0,1,4,4.06,5.83,5.83,0,0,1-.06.84h-6.32a2.27,2.27,0,0,0,2.36,2.19,2,2,0,0,0,1.95-1.15h1.84A3.77,3.77,0,0,1,682.83,362.11Zm-2.34-5h4.57a2.14,2.14,0,0,0-2.31-2.08A2.25,2.25,0,0,0,680.49,357.1Z"/><path class="cls-1" d="M694.39,357.36c0-1.52-.82-2.3-2.07-2.3s-2.08.78-2.08,2.3V362h-1.71v-8.27h1.71v1a3.16,3.16,0,0,1,2.46-1.08,3.22,3.22,0,0,1,3.39,3.52V362h-1.7Z"/><path class="cls-1" d="M701.74,353.58a3.58,3.58,0,0,1,3.81,2.74h-1.84a1.94,1.94,0,0,0-2-1.3c-1.38,0-2.29,1-2.29,2.82s.91,2.83,2.29,2.83a1.9,1.9,0,0,0,2-1.3h1.84a3.7,3.7,0,0,1-3.81,2.74,4.27,4.27,0,0,1,0-8.53Z"/><path class="cls-1" d="M710.82,362.11a4,4,0,0,1-4.13-4.27,4,4,0,0,1,4.13-4.26,3.85,3.85,0,0,1,4,4.06,5.83,5.83,0,0,1-.06.84h-6.32a2.27,2.27,0,0,0,2.36,2.19,2,2,0,0,0,1.95-1.15h1.84A3.77,3.77,0,0,1,710.82,362.11Zm-2.34-5h4.57a2.14,2.14,0,0,0-2.31-2.08A2.25,2.25,0,0,0,708.48,357.1Z"/></g></g><g id="datascience"><g id="Path_867" data-name="Path 867"><path class="cls-1" d="M664.56,332a1,1,0,0,1-.5-.13l-28.14-16.25a1,1,0,0,1-.5-.87V282.23a1,1,0,0,1,.5-.87l28.14-16.24a1,1,0,0,1,1,0l28.15,16.24a1,1,0,0,1,.5.87v32.51a1,1,0,0,1-.5.87l-28.15,16.25A1,1,0,0,1,664.56,332Zm-27.14-17.83,27.14,15.68,27.15-15.68V282.81l-27.15-15.67-27.14,15.67Z"/></g><g id="Line_375" data-name="Line 375"><path class="cls-1" d="M718.24,330.47a1,1,0,0,1-.5-.13l-53.68-31a1,1,0,1,1,1-1.73l53.68,31a1,1,0,0,1-.5,1.87Z"/></g><g id="Line_376" data-name="Line 376"><path class="cls-1" d="M613.16,329.16a1,1,0,0,1-.5-1.87L664,297.63a1,1,0,1,1,1,1.73L613.66,329A1,1,0,0,1,613.16,329.16Z"/></g><g id="Line_377" data-name="Line 377"><path class="cls-1" d="M664.56,290a1,1,0,0,1-1-1V242.22a1,1,0,0,1,2,0V289A1,1,0,0,1,664.56,290Z"/></g></g></g><rect class="cls-1" x="316.53" y="304.2" width="2" height="12.77"/><path class="cls-1" d="M332.34,318H302.73a1,1,0,0,1,0-2h29.61a1,1,0,0,1,0,2Z"/></svg>