<svg id="Layer_1" data-name="Layer 1" xmlns="http://www.w3.org/2000/svg" viewBox="0 0 150 150"><defs><style>.cls-1{fill:#8282c7;}.cls-2{fill:#e6e6ff;}.cls-3{fill:#ccc;}.cls-4{fill:#767676;}.cls-5{fill:#ff5c78;}.cls-6{fill:#e5e5e5;}.cls-7{fill:#555993;}.cls-8{fill:#7879a9;}.cls-9{fill:#9ca1f7;}.cls-10{fill:#373c41;}.cls-11{fill:#50555a;}.cls-12{fill:#faf58c;}.cls-13{fill:#ffdc64;}.cls-14,.cls-15,.cls-16,.cls-17{fill:none;stroke-linecap:round;stroke-miterlimit:10;stroke-width:0.94px;}.cls-14{stroke:#82878c;}.cls-15{stroke:#b9b9be;}.cls-16{stroke:#ebebf0;}.cls-17{stroke:#ffaa50;}</style></defs><rect class="cls-1" x="36.17" y="43.33" width="64.85" height="42.17"/><rect class="cls-2" x="38.8" y="47.35" width="58.75" height="34.94"/><path class="cls-3" d="M125,67.47l-6.15,8.33-6,.77-1.66-2.64,3.29-5.12,10.17-2-7.71,4.86a1.4,1.4,0,0,0-2.13,1.78,1.41,1.41,0,0,0,1.93.44,1.39,1.39,0,0,0,.59-1.6Z"/><polygon class="cls-4" points="113.53 77.7 112.01 78.66 111.56 77.95 109.36 74.45 108.92 73.75 110.44 72.8 111.15 73.93 112.81 76.57 113.53 77.7"/><path class="cls-5" d="M87.46,87.34c10.79-6.7,21.9-12.89,21.9-12.89l2.2,3.5s-13.8,9.44-26,16.86"/><polygon class="cls-3" points="118.45 84.42 110.93 88.41 111.06 96.12 118.72 99.85 122.39 97.9 122.34 94.87 119.01 96.45 115.12 94.51 115.05 90.19 118.52 88.16 122.25 89.38 122.19 86.24 118.45 84.42"/><rect class="cls-4" x="107.45" y="91.47" width="5.85" height="1.23" transform="translate(20.22 204.05) rotate(-91)"/><rect class="cls-3" x="94.22" y="78.8" width="3.95" height="27.13" transform="translate(5.51 190.16) rotate(-91)"/><polygon class="cls-4" points="116.45 94.08 119.34 95.36 121.89 93.5 121.55 90.36 118.66 89.08 116.11 90.94 116.45 94.08"/><ellipse class="cls-3" cx="119.08" cy="92.36" rx="1.67" ry="1.81" transform="translate(3.99 189.65) rotate(-78.01)"/><rect class="cls-6" x="44.39" y="49.74" width="47.58" height="56.93" rx="3.87"/><rect class="cls-1" x="44.39" y="49.74" width="47.58" height="4.73"/><rect class="cls-7" x="45.71" y="50.99" width="2.23" height="2.23"/><rect class="cls-8" x="49.33" y="50.99" width="2.23" height="2.23"/><rect class="cls-9" x="52.94" y="50.99" width="2.23" height="2.23"/><path class="cls-8" d="M66.09,54.47H79.66a0,0,0,0,1,0,0v.59a1.22,1.22,0,0,1-1.22,1.22H67.31a1.22,1.22,0,0,1-1.22-1.22v-.59A0,0,0,0,1,66.09,54.47Z"/><path class="cls-7" d="M55.24,54.47H68.8a0,0,0,0,1,0,0v.59a1.22,1.22,0,0,1-1.22,1.22H56.46a1.22,1.22,0,0,1-1.22-1.22v-.59A0,0,0,0,1,55.24,54.47Z"/><path class="cls-9" d="M44.39,54.47H58a0,0,0,0,1,0,0v.59a1.22,1.22,0,0,1-1.22,1.22H45.6a1.22,1.22,0,0,1-1.22-1.22v-.59A0,0,0,0,1,44.39,54.47Z"/><rect class="cls-9" x="47.94" y="60.36" width="17.74" height="15.67" rx="1.81"/><rect class="cls-9" x="68.8" y="60.36" width="19.5" height="1.3"/><rect class="cls-9" x="68.8" y="62.72" width="19.5" height="1.3"/><rect class="cls-9" x="68.8" y="65.09" width="19.5" height="1.3"/><rect class="cls-9" x="68.8" y="67.45" width="19.5" height="1.3"/><rect class="cls-9" x="68.8" y="69.82" width="19.5" height="1.3"/><rect class="cls-9" x="68.8" y="72.18" width="19.5" height="1.3"/><rect class="cls-9" x="68.8" y="74.55" width="19.5" height="1.3"/><rect class="cls-9" x="47.92" y="86.79" width="18.58" height="1.3"/><rect class="cls-9" x="47.92" y="89.15" width="18.58" height="1.3"/><rect class="cls-9" x="47.92" y="91.52" width="18.58" height="1.3"/><rect class="cls-9" x="47.92" y="93.88" width="18.58" height="1.3"/><rect class="cls-9" x="47.92" y="96.25" width="18.58" height="1.3"/><rect class="cls-9" x="47.92" y="98.61" width="18.58" height="1.3"/><rect class="cls-9" x="47.92" y="100.98" width="18.58" height="1.3"/><path class="cls-9" d="M64.7,83.91h-15a1.81,1.81,0,0,1-1.81-1.8h0a1.81,1.81,0,0,1,1.81-1.81h15a1.81,1.81,0,0,1,1.81,1.81h0A1.81,1.81,0,0,1,64.7,83.91Z"/><rect class="cls-9" x="69.91" y="86.79" width="18.58" height="1.3"/><rect class="cls-9" x="69.91" y="89.15" width="18.58" height="1.3"/><rect class="cls-9" x="69.91" y="91.52" width="18.58" height="1.3"/><rect class="cls-9" x="69.91" y="93.88" width="18.58" height="1.3"/><rect class="cls-9" x="69.91" y="96.25" width="18.58" height="1.3"/><rect class="cls-9" x="69.91" y="98.61" width="18.58" height="1.3"/><rect class="cls-9" x="69.91" y="100.98" width="18.58" height="1.3"/><path class="cls-9" d="M86.68,83.91h-15a1.81,1.81,0,0,1-1.81-1.8h0a1.81,1.81,0,0,1,1.81-1.81h15a1.81,1.81,0,0,1,1.81,1.81h0A1.81,1.81,0,0,1,86.68,83.91Z"/><path class="cls-10" d="M37.23,100.38A1.21,1.21,0,1,1,36,99.19,1.21,1.21,0,0,1,37.23,100.38Z"/><path class="cls-11" d="M32.82,93.08H39.1a0,0,0,0,1,0,0v4.56a2.76,2.76,0,0,1-2.76,2.76h-.75a2.76,2.76,0,0,1-2.76-2.76V93.08A0,0,0,0,1,32.82,93.08Z" transform="translate(-1.67 0.64) rotate(-0.99)"/><path class="cls-12" d="M46.34,79.88c-.14-7.77-8.53-13.45-16.66-8.83a8.34,8.34,0,0,0-3.24,3.37c-3.12,6-.84,11.93,3.59,14.7a1.46,1.46,0,0,1,.69,1.06l.43,3.24A2.62,2.62,0,0,0,33.8,95.7l4.28-.08a2.62,2.62,0,0,0,2.57-2.37L41,90a1.49,1.49,0,0,1,.66-1.09A10.67,10.67,0,0,0,46.34,79.88Z"/><path class="cls-13" d="M40.19,70.4A10.66,10.66,0,0,1,38.9,87.07a1.48,1.48,0,0,0-.65,1.09l-.32,3.26a2.64,2.64,0,0,1-2.57,2.37l-4.11.07A2.63,2.63,0,0,0,33.8,95.7l4.28-.08a2.62,2.62,0,0,0,2.57-2.37L41,90a1.49,1.49,0,0,1,.66-1.09A10.66,10.66,0,0,0,40.19,70.4Z"/><line class="cls-14" x1="32.82" y1="96.8" x2="39.1" y2="96.69"/><line class="cls-14" x1="32.85" y1="98.41" x2="39.12" y2="98.3"/><line class="cls-15" x1="33.53" y1="96.78" x2="37.17" y2="96.72"/><line class="cls-15" x1="33.55" y1="98.4" x2="37.2" y2="98.33"/><line class="cls-16" x1="34.13" y1="96.77" x2="35.96" y2="96.74"/><line class="cls-16" x1="34.16" y1="98.39" x2="35.99" y2="98.36"/><line class="cls-17" x1="34.27" y1="94.32" x2="32.11" y2="78.42"/><line class="cls-17" x1="39.17" y1="78.3" x2="37.56" y2="94.26"/><line class="cls-17" x1="30.72" y1="80.24" x2="40.67" y2="80.06"/></svg>