<svg id="Layer_1" data-name="Layer 1" xmlns="http://www.w3.org/2000/svg" xmlns:xlink="http://www.w3.org/1999/xlink" viewBox="0 0 150 150"><defs><style>.cls-1{fill:#8282c7;}.cls-2{fill:#555993;}.cls-3{fill:#fff;}.cls-4{fill:#7879a9;}.cls-5{fill:url(#linear-gradient);}.cls-6{fill:url(#linear-gradient-2);}.cls-7{fill:#ff791f;}</style><linearGradient id="linear-gradient" x1="28.13" y1="105.52" x2="51.09" y2="74.27" gradientUnits="userSpaceOnUse"><stop offset="0" stop-color="#6270ca"/><stop offset="0.13" stop-color="#6873c7"/><stop offset="0.3" stop-color="#797bbe"/><stop offset="0.49" stop-color="#9489af"/><stop offset="0.7" stop-color="#ba9c9b"/><stop offset="0.92" stop-color="#ebb481"/><stop offset="1" stop-color="#ffbe76"/></linearGradient><linearGradient id="linear-gradient-2" x1="13.46" y1="127.72" x2="40.25" y2="93.92" gradientUnits="userSpaceOnUse"><stop offset="0" stop-color="#ffdc8a"/><stop offset="1" stop-color="#ffc15b"/></linearGradient></defs><path class="cls-1" d="M125,82.21V67.79h-7.07a32.56,32.56,0,0,0-4.31-10.39l5-5L108.43,42.2l-5,5A32.94,32.94,0,0,0,93,42.89V35.82H78.62v7.07a32.94,32.94,0,0,0-10.4,4.31l-5-5L53,52.4l5,5a32.56,32.56,0,0,0-4.31,10.39H46.65V82.21h7.07A32.56,32.56,0,0,0,58,92.6l-5,5,10.19,10.2,5-5a32.94,32.94,0,0,0,10.4,4.31v7.07H93v-7.07a32.94,32.94,0,0,0,10.4-4.31l5,5,10.19-10.2-5-5a32.56,32.56,0,0,0,4.31-10.39ZM85.82,95.68A20.68,20.68,0,1,1,106.51,75,20.68,20.68,0,0,1,85.82,95.68Z"/><path class="cls-2" d="M98.29,53.54H29.34a1.53,1.53,0,0,0-1.65,1.51v1l7.54,14a2.4,2.4,0,0,0,2.16,1.33H90.14c1,0,3.16-1.94,3.6-2.82L100,55.85V55.4A1.65,1.65,0,0,0,98.29,53.54Z"/><path class="cls-1" d="M98.29,55H29.35c-.77,0-2,.67-1.55,1.5l7.44,15a2.4,2.4,0,0,0,2.15,1.33H90.15a2.6,2.6,0,0,0,2.33-1.43l7.36-14.75C100.36,55.7,99.13,55,98.29,55Z"/><rect class="cls-2" x="35.23" y="74.3" width="56.46" height="35.68" rx="2.84"/><rect class="cls-3" x="37.4" y="77.12" width="52.1" height="30.91"/><path class="cls-2" d="M40.45,69.62h-2.2c-.31,0-.52.09-.47.2l.13.33c.05.11.33.2.63.2h2.18c.3,0,.52-.09.48-.2l-.12-.33C41,69.71,40.76,69.62,40.45,69.62Z"/><path class="cls-2" d="M44.17,69.62H42c-.31,0-.53.09-.49.2l.12.33c0,.11.31.2.62.2h2.17c.31,0,.53-.09.5-.2l-.1-.33C44.76,69.71,44.48,69.62,44.17,69.62Z"/><path class="cls-2" d="M47.89,69.62h-2.2c-.31,0-.54.09-.5.2l.09.33c0,.11.31.2.61.2h2.18c.3,0,.53-.09.5-.2l-.08-.33C48.47,69.71,48.2,69.62,47.89,69.62Z"/><path class="cls-2" d="M51.61,69.62H49.4c-.3,0-.53.09-.51.2l.08.33c0,.11.29.2.59.2h2.18c.31,0,.54-.09.52-.2l-.06-.33C52.18,69.71,51.91,69.62,51.61,69.62Z"/><path class="cls-2" d="M55.32,69.62h-2.2c-.31,0-.54.09-.52.2l0,.33c0,.11.29.2.59.2h2.18c.3,0,.54-.09.52-.2l0-.33C55.89,69.71,55.63,69.62,55.32,69.62Z"/><path class="cls-2" d="M59,69.62h-2.2c-.31,0-.55.09-.54.2l0,.33c0,.11.27.2.57.2h2.18c.31,0,.55-.09.54-.2l0-.33C59.6,69.71,59.35,69.62,59,69.62Z"/><path class="cls-2" d="M62.76,69.62H60.55c-.3,0-.55.09-.54.2l0,.33c0,.11.25.2.56.2h2.18c.3,0,.55-.09.55-.2v-.33C63.32,69.71,63.07,69.62,62.76,69.62Z"/><path class="cls-2" d="M66.48,69.62H64.27c-.31,0-.56.09-.56.2v.33c0,.11.25.2.55.2h2.18c.3,0,.56-.09.56-.2l0-.33C67,69.71,66.78,69.62,66.48,69.62Z"/><path class="cls-2" d="M70.19,69.62H68c-.31,0-.56.09-.57.2l0,.33c0,.11.23.2.54.2h2.18c.3,0,.56-.09.57-.2l0-.33C70.74,69.71,70.5,69.62,70.19,69.62Z"/><path class="cls-2" d="M73.91,69.62h-2.2c-.31,0-.57.09-.58.2l0,.33c0,.11.23.2.53.2h2.18c.3,0,.57-.09.58-.2l.06-.33C74.45,69.71,74.22,69.62,73.91,69.62Z"/><path class="cls-2" d="M77.63,69.62H75.42c-.3,0-.57.09-.59.2l-.06.33c0,.11.21.2.51.2h2.18c.31,0,.57-.09.6-.2l.08-.33C78.16,69.71,77.94,69.62,77.63,69.62Z"/><path class="cls-2" d="M81.35,69.62H79.14c-.31,0-.58.09-.6.2l-.08.33c0,.11.2.2.5.2h2.18c.3,0,.57-.09.61-.2l.09-.33C81.88,69.71,81.65,69.62,81.35,69.62Z"/><path class="cls-2" d="M85.06,69.62h-2.2c-.31,0-.59.09-.62.2l-.1.33c0,.11.19.2.49.2h2.18c.31,0,.58-.09.62-.2l.12-.33C85.59,69.71,85.37,69.62,85.06,69.62Z"/><path class="cls-2" d="M88.78,69.62h-2.2c-.31,0-.59.09-.63.2l-.12.33c0,.11.17.2.48.2h2.18c.3,0,.58-.09.63-.2l.13-.33C89.3,69.71,89.09,69.62,88.78,69.62Z"/><path class="cls-2" d="M40.25,68.38H37.44c-.07,0-.12,0-.11.05l.42,1s.07.05.14.05h2.77c.06,0,.11,0,.1-.05l-.36-1S40.32,68.38,40.25,68.38Z"/><path class="cls-2" d="M45.44,67H42.57c-.07,0-.12,0-.11,0l.34,1.08a.19.19,0,0,0,.14,0h2.82c.07,0,.13,0,.12,0l-.29-1.08A.2.2,0,0,0,45.44,67Z"/><path class="cls-2" d="M45.91,65.63H43c-.07,0-.12,0-.12.05l.35,1.12s.07,0,.14,0h2.88c.07,0,.13,0,.12,0l-.29-1.12S46,65.63,45.91,65.63Z"/><path class="cls-2" d="M47.57,64.16h-3c-.08,0-.13,0-.12,0l.32,1.17s.07.05.15.05h2.94c.07,0,.13,0,.12-.05l-.27-1.17S47.64,64.16,47.57,64.16Z"/><path class="cls-2" d="M38.11,62.45H35.05c-.08,0-.13,0-.12.06l.56,1.38s.09.06.17.06h3c.08,0,.13,0,.12-.06l-.49-1.38S38.19,62.45,38.11,62.45Z"/><path class="cls-2" d="M42.19,62.45H39.13c-.08,0-.13,0-.12.06l.48,1.38s.08.06.16.06h3c.08,0,.14,0,.13-.06l-.42-1.38S42.27,62.45,42.19,62.45Z"/><path class="cls-2" d="M46.14,62.45h-3c-.08,0-.14,0-.13.06l.4,1.38s.08.06.16.06h3c.08,0,.14,0,.13-.06l-.33-1.38S46.23,62.45,46.14,62.45Z"/><path class="cls-2" d="M51.13,62.45h-4c-.09,0-.16,0-.15.07l.32,1.37s.09.06.18.06h3.94c.09,0,.16,0,.16-.06l-.24-1.37S51.22,62.45,51.13,62.45Z"/><path class="cls-2" d="M75.93,62.45h-4c-.1,0-.17,0-.18.07l-.16,1.37s.07.06.16.06h3.94c.09,0,.17,0,.18-.06l.24-1.37S76,62.45,75.93,62.45Z"/><path class="cls-2" d="M80,62.45H77c-.08,0-.15,0-.16.06l-.26,1.39s0,.05.13.05h2.94c.08,0,.15,0,.16-.05l.33-1.39S80.09,62.45,80,62.45Z"/><path class="cls-2" d="M70.89,62.45H52.29c-.19,0-.34.06-.33.14l.2,1.22c0,.08.18.14.37.14h18.2c.19,0,.35-.06.36-.14l.14-1.22C71.24,62.51,71.09,62.45,70.89,62.45Z"/><path class="cls-2" d="M51.46,64.16h-3c-.07,0-.13,0-.12,0l.25,1.17s.07.05.15.05h2.94c.07,0,.13,0,.12-.05l-.2-1.17S51.53,64.16,51.46,64.16Z"/><path class="cls-2" d="M55.35,64.16h-3c-.07,0-.13,0-.12,0l.19,1.17s.06.05.14.05H55.5c.07,0,.13,0,.13-.05l-.14-1.17S55.42,64.16,55.35,64.16Z"/><path class="cls-2" d="M59.24,64.16h-3c-.08,0-.14,0-.13,0l.12,1.17s.06.05.14.05h2.94c.07,0,.13,0,.13-.05l-.07-1.17S59.32,64.16,59.24,64.16Z"/><path class="cls-2" d="M63.13,64.16h-3c-.08,0-.14,0-.13,0l.05,1.17s.07.05.14.05h2.94c.07,0,.13,0,.13-.05V64.21S63.21,64.16,63.13,64.16Z"/><path class="cls-2" d="M67,64.16H64c-.07,0-.14,0-.14,0v1.17s.06.05.13.05H67c.07,0,.13,0,.14-.05l.06-1.17S67.1,64.16,67,64.16Z"/><path class="cls-2" d="M70.92,64.16h-3c-.07,0-.13,0-.14,0l-.07,1.17s.06.05.13.05h2.94c.07,0,.14,0,.14-.05l.13-1.17S71,64.16,70.92,64.16Z"/><path class="cls-2" d="M74.81,64.16h-3c-.07,0-.13,0-.14,0l-.14,1.17s.06.05.13.05H74.6c.07,0,.14,0,.14-.05l.2-1.17S74.89,64.16,74.81,64.16Z"/><path class="cls-2" d="M78.7,64.16h-3c-.08,0-.14,0-.15,0l-.2,1.17s0,.05.12.05h2.94c.07,0,.14,0,.15-.05l.26-1.17S78.78,64.16,78.7,64.16Z"/><path class="cls-2" d="M83.62,62.43H81.28c-.3,0-.56.09-.59.21L80.6,63c0,.12.19.22.48.22h2.31c.3,0,.56-.1.6-.22l.1-.35C84.13,62.52,83.91,62.43,83.62,62.43Z"/><path class="cls-2" d="M87.62,62.43H85.28c-.29,0-.56.09-.6.21l-.11.35c0,.12.18.22.47.22h2.31c.29,0,.57-.1.61-.22l.12-.35C88.12,62.52,87.92,62.43,87.62,62.43Z"/><path class="cls-2" d="M87.32,63.3H85c-.29,0-.56.1-.59.21l-.11.35c0,.11.17.21.46.21h2.29c.29,0,.55-.1.6-.21l.12-.35C87.82,63.4,87.61,63.3,87.32,63.3Z"/><path class="cls-2" d="M91.62,62.43H89.29c-.3,0-.58.09-.62.21l-.13.35c0,.12.17.22.46.22h2.31c.29,0,.57-.1.62-.22l.14-.35C92.12,62.52,91.92,62.43,91.62,62.43Z"/><path class="cls-2" d="M49.76,65.63H46.83c-.08,0-.13,0-.12.05L47,66.8a.2.2,0,0,0,.15,0H50c.07,0,.12,0,.12,0l-.23-1.12S49.83,65.63,49.76,65.63Z"/><path class="cls-2" d="M53.6,65.63H50.67c-.07,0-.13,0-.12.05l.21,1.12a.19.19,0,0,0,.14,0h2.88c.07,0,.13,0,.12,0l-.16-1.12S53.68,65.63,53.6,65.63Z"/><path class="cls-2" d="M57.45,65.63H54.51c-.07,0-.13,0-.12.05l.15,1.12s.06,0,.14,0h2.88c.07,0,.12,0,.12,0l-.1-1.12S57.52,65.63,57.45,65.63Z"/><path class="cls-2" d="M61.27,65.63H58.33c-.07,0-.13,0-.12.05l.08,1.12a.19.19,0,0,0,.14,0h2.88c.07,0,.13,0,.13,0l0-1.12S61.34,65.63,61.27,65.63Z"/><path class="cls-2" d="M65.11,65.63H62.18c-.07,0-.13,0-.13.05l0,1.12s.06,0,.13,0h2.88c.07,0,.13,0,.13,0l0-1.12S65.19,65.63,65.11,65.63Z"/><path class="cls-2" d="M68.79,65.63H65.86c-.07,0-.13,0-.14.05l0,1.12s0,0,.12,0h2.88c.08,0,.14,0,.14,0l.09-1.12S68.87,65.63,68.79,65.63Z"/><path class="cls-2" d="M72.6,65.63H69.67c-.08,0-.14,0-.14.05l-.1,1.12s0,0,.12,0h2.88c.08,0,.14,0,.14,0l.16-1.12S72.67,65.63,72.6,65.63Z"/><path class="cls-2" d="M76.41,65.63H73.48c-.08,0-.14,0-.14.05l-.17,1.12s0,0,.12,0h2.88c.08,0,.14,0,.14,0l.22-1.12S76.48,65.63,76.41,65.63Z"/><path class="cls-2" d="M80.2,65.63H77.26c-.07,0-.13,0-.14.05l-.23,1.12s0,0,.12,0h2.88c.07,0,.14,0,.14,0l.29-1.12S80.27,65.63,80.2,65.63Z"/><path class="cls-2" d="M84,65.63H81.05c-.07,0-.14,0-.15.05l-.29,1.12s0,0,.12,0h2.88a.19.19,0,0,0,.14,0l.35-1.12S84.05,65.63,84,65.63Z"/><path class="cls-2" d="M82.56,64.16h-3c-.07,0-.14,0-.15,0l-.27,1.17s0,.05.12.05H82.2c.08,0,.14,0,.15-.05l.33-1.17S82.63,64.16,82.56,64.16Z"/><path class="cls-2" d="M90.69,65.63H85c-.1,0-.19,0-.2.07l-.34,1.08s0,.07.15.07h5.56a.3.3,0,0,0,.21-.07l.44-1.08S90.79,65.63,90.69,65.63Z"/><path class="cls-2" d="M91.26,64.16H83.49c-.11,0-.22,0-.23.08l-.32,1.11s.07.08.18.08h7.62c.12,0,.23,0,.24-.08l.46-1.11S91.37,64.16,91.26,64.16Z"/><path class="cls-2" d="M42.1,65.63H36.38c-.1,0-.17,0-.16.07l.44,1.08a.3.3,0,0,0,.21.07h5.62c.1,0,.17,0,.16-.07l-.34-1.08S42.2,65.63,42.1,65.63Z"/><path class="cls-2" d="M43.62,64.16H35.75c-.12,0-.2,0-.18.08L36,65.35a.32.32,0,0,0,.24.08H44c.12,0,.2,0,.19-.08l-.32-1.11S43.74,64.16,43.62,64.16Z"/><path class="cls-2" d="M49.19,67H46.32c-.07,0-.13,0-.12,0l.28,1.08a.19.19,0,0,0,.14,0h2.82c.07,0,.12,0,.12,0l-.23-1.08A.19.19,0,0,0,49.19,67Z"/><path class="cls-2" d="M52.91,67H50c-.07,0-.13,0-.12,0l.22,1.08a.19.19,0,0,0,.14,0H53.1c.07,0,.12,0,.12,0l-.17-1.08A.19.19,0,0,0,52.91,67Z"/><path class="cls-2" d="M56.66,67H53.78c-.07,0-.12,0-.12,0l.16,1.08s.06,0,.13,0h2.83c.07,0,.12,0,.12,0l-.11-1.08S56.73,67,56.66,67Z"/><path class="cls-2" d="M60.4,67H57.53c-.07,0-.13,0-.13,0l.1,1.08s.06,0,.13,0h2.82c.07,0,.13,0,.13,0l0-1.08S60.47,67,60.4,67Z"/><path class="cls-2" d="M64.12,67H61.25c-.07,0-.13,0-.13,0l0,1.08s.06,0,.13,0h2.82c.07,0,.13,0,.13,0V67.08S64.19,67,64.12,67Z"/><path class="cls-2" d="M67.76,67H64.89c-.07,0-.13,0-.13,0l0,1.08s.06,0,.13,0h2.82c.07,0,.13,0,.13,0l.07-1.08S67.83,67,67.76,67Z"/><path class="cls-2" d="M71.53,67H68.66c-.07,0-.13,0-.13,0l-.08,1.08s0,0,.12,0h2.82c.07,0,.13,0,.13,0l.14-1.08S71.61,67,71.53,67Z"/><path class="cls-2" d="M75.26,67H72.39c-.07,0-.13,0-.13,0l-.15,1.08s0,0,.12,0h2.82a.19.19,0,0,0,.14,0l.19-1.08S75.33,67,75.26,67Z"/><path class="cls-2" d="M78.93,67H76.06a.19.19,0,0,0-.14,0l-.2,1.08s0,0,.11,0h2.83c.07,0,.13,0,.13,0l.26-1.08S79,67,78.93,67Z"/><path class="cls-2" d="M82.75,67H79.88a.19.19,0,0,0-.14,0l-.27,1.08s0,0,.12,0h2.82a.19.19,0,0,0,.14,0l.32-1.08S82.82,67,82.75,67Z"/><path class="cls-2" d="M86.41,67H83.53a.19.19,0,0,0-.14,0l-.33,1.08s0,0,.12,0H86a.19.19,0,0,0,.14,0l.38-1.08S86.48,67,86.41,67Z"/><path class="cls-2" d="M90.17,67H87.29a.19.19,0,0,0-.14,0l-.39,1.08s0,0,.11,0h2.82a.22.22,0,0,0,.15,0l.43-1.08S90.24,67,90.17,67Z"/><path class="cls-2" d="M44,68.38H41.16c-.07,0-.12,0-.11.05l.36,1s.07.05.14.05h2.76c.07,0,.12,0,.11-.05l-.31-1S44,68.38,44,68.38Z"/><path class="cls-2" d="M47.58,68.38H44.77c-.07,0-.12,0-.12.05l.3,1s.07.05.14.05h2.77c.06,0,.12,0,.11-.05l-.25-1S47.65,68.38,47.58,68.38Z"/><path class="cls-2" d="M51.28,68.38H48.46c-.07,0-.12,0-.11.05l.24,1s.07.05.14.05h2.76c.07,0,.12,0,.12-.05l-.2-1S51.35,68.38,51.28,68.38Z"/><path class="cls-2" d="M54.88,68.38H52.07c-.07,0-.12,0-.12.05l.19,1s.06.05.13.05H55c.07,0,.12,0,.12-.05l-.13-1S55,68.38,54.88,68.38Z"/><path class="cls-2" d="M58.6,68.38H55.79c-.07,0-.13,0-.12.05l.12,1s.06.05.13.05h2.77c.06,0,.12,0,.12-.05l-.08-1S58.67,68.38,58.6,68.38Z"/><path class="cls-2" d="M62.18,68.38H59.36c-.07,0-.12,0-.12.05l.07,1s0,.05.12.05H62.2c.07,0,.12,0,.12-.05l0-1S62.25,68.38,62.18,68.38Z"/><path class="cls-2" d="M65.89,68.38H63.08c-.07,0-.13,0-.13.05v1s0,.05.12.05h2.77c.06,0,.12,0,.12-.05l0-1S66,68.38,65.89,68.38Z"/><path class="cls-2" d="M69.5,68.38H66.68c-.07,0-.12,0-.13.05l0,1s.06.05.13.05h2.76c.07,0,.13,0,.13-.05l.1-1S69.57,68.38,69.5,68.38Z"/><path class="cls-2" d="M73.2,68.38H70.39c-.07,0-.13,0-.13.05l-.11,1s0,.05.12.05H73c.07,0,.13,0,.13-.05l.16-1S73.27,68.38,73.2,68.38Z"/><path class="cls-2" d="M76.9,68.38H74.09c-.07,0-.13,0-.14.05l-.17,1s0,.05.12.05h2.76c.07,0,.13,0,.14-.05l.22-1S77,68.38,76.9,68.38Z"/><path class="cls-2" d="M80.56,68.38H77.75c-.07,0-.13,0-.14.05l-.23,1s.05.05.12.05h2.76c.07,0,.13,0,.14-.05l.27-1S80.63,68.38,80.56,68.38Z"/><path class="cls-2" d="M84.08,68.38H81.26c-.07,0-.13,0-.14.05l-.28,1s0,.05.11.05h2.77c.07,0,.13,0,.14-.05l.33-1S84.15,68.38,84.08,68.38Z"/><path class="cls-2" d="M89.35,68.38H85.14c-.19,0-.37.06-.39.13l-.29.87c0,.07.11.13.3.13H88.9c.19,0,.37-.06.4-.13l.35-.87C89.68,68.44,89.54,68.38,89.35,68.38Z"/><path class="cls-2" d="M41.42,67h-4.3c-.19,0-.33.06-.3.14l.37.9c0,.07.21.13.4.13h4.22c.2,0,.33-.06.31-.13l-.3-.9C41.8,67.09,41.62,67,41.42,67Z"/><rect class="cls-4" x="39.05" y="72.82" width="8.38" height="1.47"/><rect class="cls-4" x="79.39" y="72.82" width="8.38" height="1.5"/><path class="cls-4" d="M74.21,56.1l-.79,5.38a.51.51,0,0,1-.51.44H54.58a.6.6,0,0,1-.59-.5l-.85-5.35a.36.36,0,0,1,.36-.42H63.64v3.27h.52V55.65h9.65A.4.4,0,0,1,74.21,56.1Z"/><path class="cls-2" d="M53.4,89.05a1,1,0,0,1-.5,1.33L50.05,91.7a1,1,0,0,0,0,1.82L53,94.92a1,1,0,0,1,.48,1.33l0,0a1,1,0,0,1-1.36.48l-6-3a1.3,1.3,0,0,1-.73-1.17,1.31,1.31,0,0,1,.73-1.18l6-2.92a1,1,0,0,1,1.36.49Z"/><path class="cls-2" d="M59.82,99.76,65.43,84.6a1.14,1.14,0,0,1,1.45-.67h0a1.15,1.15,0,0,1,.68,1.47L62,100.55a1.14,1.14,0,0,1-1.47.67h0A1.15,1.15,0,0,1,59.82,99.76Z"/><path class="cls-2" d="M75.62,88.56l6,2.92a1.32,1.32,0,0,1,.74,1.18h0a1.31,1.31,0,0,1-.73,1.17l-6,3a1,1,0,0,1-1.35-.48l0,0a1,1,0,0,1,.47-1.33l2.92-1.4a1,1,0,0,0,0-1.82l-2.86-1.32a1,1,0,0,1-.49-1.33h0A1,1,0,0,1,75.62,88.56Z"/><path class="cls-5" d="M38.32,84.07a12.87,12.87,0,0,1,8.54,3.55l-8.54,8.54Z"/><path class="cls-6" d="M38,110a13,13,0,0,1-.35-25.91V97a.34.34,0,0,0,0,.17l0,0,0,0,8.58,9.7A12.89,12.89,0,0,1,38,110Z"/><path class="cls-7" d="M38.45,97l8.91-8.91a12.9,12.9,0,0,1-.56,18.35Z"/></svg>