<svg id="Layer_1" data-name="Layer 1" xmlns="http://www.w3.org/2000/svg" viewBox="0 0 150 150"><defs><style>.cls-1{fill:#8282c7;}.cls-2{fill:#555993;}.cls-3{fill:#fff;}.cls-4{opacity:0.5;}.cls-5{fill:#f5f5f5;}.cls-6{fill:#e8505b;}.cls-7{fill:#e0e0e0;}.cls-8{fill:#ebebeb;}.cls-9{fill:#7879a9;}</style></defs><rect class="cls-1" x="30.36" y="35.58" width="89.28" height="71.57" rx="5.67"/><rect class="cls-2" x="41.77" y="29.42" width="66.47" height="83.88" rx="3.68" transform="translate(146.36 -3.64) rotate(90)"/><rect class="cls-3" x="35.26" y="40.05" width="79.49" height="62.63" rx="2.38"/><path class="cls-1" d="M25,102.54a10.23,10.23,0,0,0,8.73,4.94h82.54a10.23,10.23,0,0,0,8.73-4.94Z"/><path class="cls-2" d="M26.07,104h97.86a10,10,0,0,0,1.07-1.45H25A10,10,0,0,0,26.07,104Z"/><rect class="cls-2" x="68.59" y="45.58" width="41.99" height="10.11" transform="translate(179.18 101.27) rotate(180)"/><g class="cls-4"><rect class="cls-1" x="39.99" y="45.35" width="28.03" height="53.99" transform="translate(108.01 144.7) rotate(180)"/><rect class="cls-2" x="42.04" y="91.22" width="24.25" height="4.7" transform="translate(108.32 187.14) rotate(180)"/><rect class="cls-2" x="42.04" y="88.88" width="11.21" height="1.52" transform="translate(95.28 179.27) rotate(180)"/><rect class="cls-2" x="41.97" y="86.35" width="11.21" height="1.55" transform="translate(95.15 174.25) rotate(180)"/><rect class="cls-2" x="42.04" y="79.01" width="24.25" height="4.7" transform="translate(108.32 162.73) rotate(180)"/><rect class="cls-2" x="42.04" y="76.67" width="11.21" height="1.52" transform="translate(95.28 154.86) rotate(180)"/><rect class="cls-2" x="41.97" y="74.15" width="11.21" height="1.55" transform="translate(95.15 149.84) rotate(180)"/><rect class="cls-2" x="42.04" y="66.81" width="24.25" height="4.7" transform="translate(108.32 138.32) rotate(180)"/><rect class="cls-2" x="42.04" y="64.46" width="11.21" height="1.52" transform="translate(95.28 130.45) rotate(180)"/><rect class="cls-2" x="41.97" y="61.94" width="11.21" height="1.55" transform="translate(95.15 125.43) rotate(180)"/><rect class="cls-2" x="42.04" y="54.6" width="24.25" height="4.7" transform="translate(108.32 113.91) rotate(180)"/><rect class="cls-2" x="42.04" y="52.26" width="11.21" height="1.52" transform="translate(95.28 106.04) rotate(180)"/><rect class="cls-2" x="41.97" y="49.73" width="11.21" height="1.55" transform="translate(95.15 101.01) rotate(180)"/></g><rect class="cls-2" x="39.56" y="58.52" width="27.27" height="55.89" rx="4.14"/><path class="cls-3" d="M62.68,60.21H59a.92.92,0,0,0-.9.93v.67a.91.91,0,0,1-.89.93H50a.92.92,0,0,1-.9-.94v-.66a.92.92,0,0,0-.89-.94H43.72a2.9,2.9,0,0,0-2.9,2.9v46.47a2.9,2.9,0,0,0,2.9,2.9h19a2.9,2.9,0,0,0,2.9-2.89V63.11A2.89,2.89,0,0,0,62.68,60.21Z"/><path class="cls-2" d="M63.24,64.9s-.48,0-1.07,0-1.07,0-1.07,0,.48,0,1.07,0S63.24,64.89,63.24,64.9Z"/><path class="cls-2" d="M63.24,65.45s-.48,0-1.07,0-1.07,0-1.07,0a8.68,8.68,0,0,1,1.07,0C62.76,65.43,63.24,65.44,63.24,65.45Z"/><path class="cls-2" d="M63.25,66s-.48,0-1.07,0a10.21,10.21,0,0,1-1.07,0s.48,0,1.07,0A10.21,10.21,0,0,1,63.25,66Z"/><path class="cls-2" d="M43.78,66.62h.62v-.31a1.33,1.33,0,0,1,0-.2.17.17,0,0,1,.15-.14h.22a.18.18,0,0,1,.15.18v.48l0,0h.58l0,0v-.9a.2.2,0,0,0-.08-.14l-.25-.25-.25-.24L44.75,65a.31.31,0,0,0-.12-.09.22.22,0,0,0-.14,0l-.1.11-.21.21c-.13.13-.27.26-.36.37a.34.34,0,0,0,0,.22V65.7a.24.24,0,0,1,0-.12c.11-.13.23-.25.36-.39l.21-.21.11-.11a.17.17,0,0,1,.17,0,.28.28,0,0,1,.14.1l.11.11.25.24.25.25.06.07a.17.17,0,0,1,0,.1v.92h-.62v-.5a.14.14,0,0,0-.12-.14h-.21a.13.13,0,0,0-.12.11,1.21,1.21,0,0,0,0,.19v.33h-.64Z"/><rect class="cls-5" x="42.92" y="69.52" width="20.21" height="3.68" rx="1.55"/><path class="cls-2" d="M61.58,73.19h.11a1.43,1.43,0,0,0,.34-.06,1.77,1.77,0,0,0,.48-.26,1.52,1.52,0,0,0,.46-.58,1.25,1.25,0,0,0,.12-.43,4,4,0,0,0,0-.5,2.52,2.52,0,0,0,0-.54,1.38,1.38,0,0,0-.2-.53,1.48,1.48,0,0,0-1-.71,3.23,3.23,0,0,0-.7,0H44.47A1.53,1.53,0,0,0,43,70.94c0,.18,0,.38,0,.56a1.69,1.69,0,0,0,0,.55,1.56,1.56,0,0,0,.63.86,1.3,1.3,0,0,0,.49.2,1.57,1.57,0,0,0,.53,0H55l4.83,0H44.66a2.55,2.55,0,0,1-.55,0A1.92,1.92,0,0,1,43.6,73a1.67,1.67,0,0,1-.66-.9,2.17,2.17,0,0,1-.06-.57c0-.19,0-.37,0-.57a1.58,1.58,0,0,1,1.58-1.45H61.16a4.18,4.18,0,0,1,.71,0,1.6,1.6,0,0,1,1.05.73,1.51,1.51,0,0,1,.2.56,3.33,3.33,0,0,1,0,.54,4.09,4.09,0,0,1,0,.5,1.5,1.5,0,0,1-.13.44,1.59,1.59,0,0,1-.47.59,1.66,1.66,0,0,1-.5.25,1.43,1.43,0,0,1-.34.06Z"/><path class="cls-2" d="M61.89,71.27a1.47,1.47,0,0,1,0-.16.6.6,0,0,0-.24-.35.63.63,0,1,0,0,1,.6.6,0,0,0,.24-.35c0-.1,0-.16,0-.15v0a.26.26,0,0,1,0,.12.65.65,0,0,1-.24.39.7.7,0,0,1-.66.1.7.7,0,0,1,0-1.31.7.7,0,0,1,.66.1.65.65,0,0,1,.24.39.26.26,0,0,1,0,.12Z"/><path class="cls-2" d="M62.25,72.41s-.16-.12-.32-.29a1.16,1.16,0,0,1-.27-.35s.16.12.32.29A1.16,1.16,0,0,1,62.25,72.41Z"/><path class="cls-2" d="M45.65,71h-.36v-.1h.83V71h-.36v.93h-.11Z"/><path class="cls-2" d="M46.86,71.56h-.65a.29.29,0,0,0,.31.27.29.29,0,0,0,.23-.1l.06.07a.41.41,0,0,1-.7-.27.38.38,0,1,1,.75,0Zm-.65-.07h.55a.27.27,0,0,0-.27-.26A.28.28,0,0,0,46.21,71.49Z"/><path class="cls-2" d="M47.54,71.92l-.24-.33-.25.33h-.12l.31-.4L47,71.15h.11l.24.3.23-.3h.11l-.29.37.31.4Z"/><path class="cls-2" d="M48.24,71.87a.22.22,0,0,1-.16,0,.2.2,0,0,1-.23-.22v-.47h-.14v-.08h.14V71H48v.17h.24v.08H48v.46a.12.12,0,0,0,.14.14.2.2,0,0,0,.11,0Z"/><rect class="cls-2" x="43.77" y="76.21" width="4.42" height="4.42"/><path class="cls-2" d="M56.7,76.69s-1.48,0-3.3,0-3.3,0-3.3,0,1.48,0,3.3,0S56.7,76.67,56.7,76.69Z"/><path class="cls-2" d="M62,78.05s-2.66,0-5.94,0-5.93,0-5.93,0,2.65,0,5.93,0S62,78,62,78.05Z"/><path class="cls-2" d="M61.83,79s-2.63,0-5.87,0-5.86,0-5.86,0,2.62,0,5.86,0S61.83,79,61.83,79Z"/><path class="cls-2" d="M57,79.94s-1.56,0-3.47,0-3.46,0-3.46,0,1.55,0,3.46,0S57,79.92,57,79.94Z"/><rect class="cls-6" x="43.77" y="83.58" width="4.42" height="4.42"/><path class="cls-1" d="M56.7,84.06s-1.48,0-3.3,0-3.3,0-3.3,0,1.48,0,3.3,0S56.7,84,56.7,84.06Z"/><path class="cls-1" d="M62,85.42s-2.66,0-5.94,0-5.93,0-5.93,0,2.65,0,5.93,0S62,85.39,62,85.42Z"/><path class="cls-1" d="M61.83,86.38s-2.63,0-5.87,0-5.86,0-5.86,0,2.62,0,5.86,0S61.83,86.36,61.83,86.38Z"/><path class="cls-1" d="M57,87.31s-1.56,0-3.47,0-3.46,0-3.46,0,1.55,0,3.46,0S57,87.29,57,87.31Z"/><rect class="cls-2" x="43.77" y="90.95" width="4.42" height="4.42"/><path class="cls-2" d="M56.7,91.43s-1.48,0-3.3,0-3.3,0-3.3,0,1.48,0,3.3,0S56.7,91.41,56.7,91.43Z"/><path class="cls-2" d="M62,92.78s-2.66,0-5.94,0-5.93,0-5.93,0,2.65,0,5.93,0S62,92.76,62,92.78Z"/><path class="cls-2" d="M61.83,93.75s-2.63,0-5.87,0-5.86,0-5.86,0,2.62,0,5.86,0S61.83,93.73,61.83,93.75Z"/><path class="cls-2" d="M57,94.68s-1.56,0-3.47,0-3.46,0-3.46,0,1.55,0,3.46,0S57,94.66,57,94.68Z"/><rect class="cls-6" x="43.77" y="98.32" width="4.42" height="4.42"/><path class="cls-1" d="M56.7,98.8s-1.48,0-3.3,0-3.3,0-3.3,0,1.48,0,3.3,0S56.7,98.78,56.7,98.8Z"/><path class="cls-1" d="M62,100.15s-2.66,0-5.94,0-5.93,0-5.93,0,2.65,0,5.93,0S62,100.13,62,100.15Z"/><path class="cls-1" d="M61.83,101.12s-2.63,0-5.87,0-5.86,0-5.86,0,2.62,0,5.86,0S61.83,101.1,61.83,101.12Z"/><path class="cls-1" d="M57,102s-1.56,0-3.47,0-3.46,0-3.46,0,1.55,0,3.46,0S57,102,57,102Z"/><rect class="cls-7" x="43.77" y="105.69" width="4.42" height="4.42"/><path class="cls-7" d="M56.7,106.17s-1.48,0-3.3,0-3.3,0-3.3,0,1.48,0,3.3,0S56.7,106.15,56.7,106.17Z"/><path class="cls-8" d="M62,107.52s-2.66,0-5.94,0-5.93,0-5.93,0,2.65,0,5.93,0S62,107.5,62,107.52Z"/><path class="cls-8" d="M61.83,108.49s-2.63,0-5.87,0-5.86,0-5.86,0,2.62,0,5.86,0S61.83,108.47,61.83,108.49Z"/><path class="cls-8" d="M57,109.41s-1.56,0-3.47,0-3.46,0-3.46,0,1.55,0,3.46,0S57,109.39,57,109.41Z"/><rect class="cls-1" x="43.77" y="98.32" width="4.42" height="4.42"/><rect class="cls-1" x="43.77" y="83.58" width="4.42" height="4.42"/><rect class="cls-9" x="71.47" y="67.94" width="41.8" height="45.07" rx="1.93"/><rect class="cls-3" x="74.5" y="72.6" width="35.74" height="35.74" rx="1.08"/><path class="cls-2" d="M85.75,71.4H75.62a1.12,1.12,0,0,1-1.12-1.12h0a1.12,1.12,0,0,1,1.12-1.11H85.75a1.11,1.11,0,0,1,1.11,1.11h0A1.11,1.11,0,0,1,85.75,71.4Z"/><rect class="cls-2" x="107.94" y="69.17" width="2.31" height="2.31" rx="0.48"/><rect class="cls-2" x="104.37" y="69.17" width="2.31" height="2.31" rx="0.48"/><rect class="cls-2" x="80.88" y="76.2" width="18.6" height="2.12"/><rect class="cls-2" x="83.56" y="79.64" width="12.08" height="2.12"/><rect class="cls-2" x="83.56" y="83.12" width="14.37" height="2.12"/><rect class="cls-2" x="83.56" y="86.61" width="18.6" height="2.12"/><rect class="cls-2" x="83.56" y="90.09" width="12.42" height="2.12"/><rect class="cls-2" x="83.56" y="93.57" width="10.3" height="2.12"/><rect class="cls-2" x="83.56" y="97.06" width="14.37" height="2.12"/><rect class="cls-2" x="83.56" y="100.54" width="16.82" height="2.12"/><rect class="cls-2" x="83.56" y="104.03" width="12.81" height="2.12"/><path class="cls-9" d="M108,77.26a1.06,1.06,0,1,1-1.06-1.06A1.05,1.05,0,0,1,108,77.26Z"/><path class="cls-9" d="M108,80.69a1.06,1.06,0,1,1-1.06-1A1.05,1.05,0,0,1,108,80.69Z"/><path class="cls-9" d="M108,84.18a1.06,1.06,0,1,1-1.06-1.06A1.06,1.06,0,0,1,108,84.18Z"/><path class="cls-9" d="M108,87.66a1.06,1.06,0,1,1-1.06-1A1.05,1.05,0,0,1,108,87.66Z"/><path class="cls-9" d="M108,91.15a1.06,1.06,0,1,1-1.06-1.06A1.06,1.06,0,0,1,108,91.15Z"/><path class="cls-9" d="M108,94.63a1.06,1.06,0,1,1-1.06-1.06A1.05,1.05,0,0,1,108,94.63Z"/><path class="cls-9" d="M108,98.12a1.06,1.06,0,1,1-1.06-1.06A1.06,1.06,0,0,1,108,98.12Z"/><path class="cls-9" d="M108,101.6a1.06,1.06,0,1,1-1.06-1.06A1.05,1.05,0,0,1,108,101.6Z"/><path class="cls-9" d="M108,105.09a1.06,1.06,0,1,1-1.06-1.06A1.05,1.05,0,0,1,108,105.09Z"/><polygon class="cls-2" points="78.04 77.97 76.63 76.55 79.46 76.55 78.04 77.97"/></svg>