<svg xmlns="http://www.w3.org/2000/svg" xmlns:xlink="http://www.w3.org/1999/xlink" viewBox="0 0 150 150"><defs><style>.cls-1{isolation:isolate;}.cls-2{fill:#555993;}.cls-3{fill:url(#linear-gradient);}.cls-4{fill:url(#linear-gradient-2);}.cls-5{fill:#7879a9;}.cls-6{fill:#212048;opacity:0.2;mix-blend-mode:multiply;}.cls-7{fill:#a5c8cd;}.cls-8{fill:#87afb9;}.cls-11,.cls-9{fill:#fff;}.cls-10{fill:#c8e6ff;}.cls-11{opacity:0.37;mix-blend-mode:lighten;}.cls-12,.cls-13,.cls-14{fill:none;stroke-linejoin:round;stroke-width:3.22px;}.cls-12{stroke:#454563;}.cls-13{stroke:#5b5b7c;}.cls-14{stroke:#78789b;}.cls-15{fill:#fa2d14;}.cls-16{fill:#ff640a;}.cls-17{fill:#96dbbf;}.cls-18{fill:#d6eed8;}.cls-19{fill:#55c7a6;}</style><linearGradient id="linear-gradient" x1="98.72" y1="58.48" x2="52.9" y2="104.31" gradientTransform="translate(-6.52 157.2) rotate(-90)" gradientUnits="userSpaceOnUse"><stop offset="0" stop-color="#ded5ce"/><stop offset="1" stop-color="#fff"/></linearGradient><linearGradient id="linear-gradient-2" x1="115.04" y1="43.1" x2="66.42" y2="91.72" gradientTransform="matrix(1, 0, 0, 1, 0, 0)" xlink:href="#linear-gradient"/></defs><g class="cls-1"><g id="Layer_1" data-name="Layer 1"><path class="cls-2" d="M40.52,57.73h69.64a2.59,2.59,0,0,1,2.59,2.59V106a0,0,0,0,1,0,0H37.93a0,0,0,0,1,0,0V60.32A2.59,2.59,0,0,1,40.52,57.73Z"/><rect class="cls-3" x="54.17" y="47.41" width="42.34" height="68.9" transform="translate(157.2 6.52) rotate(90)"/><path class="cls-4" d="M108.11,60.69C94,74.81,81.44,88.93,67.35,103H48.65L80.83,70.85,91,60.69Zm-22.62,0H80.18Q60.53,80.34,40.89,100v3h2.34Q64.35,81.87,85.49,60.69Zm24.3,17.88V66.39L74.64,103H85.33ZM51,60.69,40.89,70.84V81.25L61.45,60.69ZM94.85,103h6.65q4.16-4.12,8.29-8.29V88.05Q102.32,95.54,94.85,103Z"/><path class="cls-5" d="M115.09,109.39H35.6a3.4,3.4,0,0,1-3.4-3.4h86.28A3.4,3.4,0,0,1,115.09,109.39Z"/><path class="cls-6" d="M69.89,106.83H82.27a.85.85,0,0,0,.84-.84h-14A.84.84,0,0,0,69.89,106.83Z"/><rect class="cls-7" x="33.47" y="82.08" width="14.85" height="3.52" transform="translate(-51.27 69.47) rotate(-55.14)"/><rect class="cls-8" x="42.1" y="77.57" width="3.87" height="3.52" transform="translate(-46.23 70.12) rotate(-55.14)"/><circle class="cls-9" cx="51.57" cy="67.9" r="11.76" transform="translate(-21.91 24.65) rotate(-22.3)"/><path class="cls-10" d="M44.06,60.81a10.37,10.37,0,0,1,1.15-1l14.37.29a11.61,11.61,0,0,1,3.89,5.78l-22.38-.46A11.75,11.75,0,0,1,44.06,60.81Z"/><path class="cls-10" d="M40.6,67.37l23.28.47a12.2,12.2,0,0,1,.06,2.26l-23.49-.47A12.21,12.21,0,0,1,40.6,67.37Z"/><path class="cls-11" d="M40,70c0-.24-.07-.48-.1-.72L54.36,79.32l-.72.16a12,12,0,0,1-2.79.16l-10-7A11.83,11.83,0,0,1,40,70Z"/><circle class="cls-12" cx="51.57" cy="67.9" r="11.76" transform="translate(-11.33 10.34) rotate(-10.32)"/><path class="cls-13" d="M53.51,79.5a11.76,11.76,0,0,0,4.78-21.25"/><path class="cls-14" d="M61.22,74.62a11.71,11.71,0,0,0,1.71-9.76"/><path class="cls-15" d="M26.29,104.82h0a3,3,0,0,0,4.17-.75L41.37,88.41a3,3,0,0,0-.74-4.18h0a3,3,0,0,0-4.18.75L25.54,100.64A3,3,0,0,0,26.29,104.82Z"/><path class="cls-16" d="M40.16,84a3,3,0,0,0-2,1.25L27.21,100.88a3,3,0,0,0,.74,4.18,3.1,3.1,0,0,0,.47.26,3,3,0,0,1-2.13-.5h0a3,3,0,0,1-.75-4.18L36.45,85A3,3,0,0,1,40.16,84Z"/><rect class="cls-5" x="72.83" y="40.61" width="52.17" height="56.25" rx="2.41"/><rect class="cls-9" x="76.61" y="46.43" width="44.61" height="44.61" rx="1.35"/><path class="cls-2" d="M90.65,44.93H78a1.39,1.39,0,0,1-1.39-1.39h0A1.39,1.39,0,0,1,78,42.15H90.65A1.39,1.39,0,0,1,92,43.54h0A1.39,1.39,0,0,1,90.65,44.93Z"/><rect class="cls-2" x="118.34" y="42.15" width="2.88" height="2.88" rx="0.6"/><rect class="cls-2" x="113.89" y="42.15" width="2.88" height="2.88" rx="0.6"/><rect class="cls-17" x="84.57" y="50.93" width="23.21" height="2.64"/><rect class="cls-17" x="87.91" y="55.22" width="15.08" height="2.64"/><rect class="cls-17" x="87.91" y="59.57" width="17.93" height="2.64"/><rect class="cls-17" x="87.91" y="63.91" width="23.21" height="2.64"/><rect class="cls-17" x="87.91" y="68.26" width="15.5" height="2.64"/><rect class="cls-17" x="87.91" y="72.61" width="12.86" height="2.64"/><rect class="cls-17" x="87.91" y="76.96" width="17.93" height="2.64"/><rect class="cls-17" x="87.91" y="81.31" width="20.99" height="2.64"/><rect class="cls-17" x="87.91" y="85.66" width="15.99" height="2.64"/><path class="cls-18" d="M118.42,52.25a1.32,1.32,0,1,1-1.32-1.32A1.32,1.32,0,0,1,118.42,52.25Z"/><path class="cls-18" d="M118.42,56.54a1.32,1.32,0,1,1-1.32-1.32A1.32,1.32,0,0,1,118.42,56.54Z"/><path class="cls-18" d="M118.42,60.89a1.32,1.32,0,1,1-1.32-1.32A1.32,1.32,0,0,1,118.42,60.89Z"/><path class="cls-18" d="M118.42,65.23a1.32,1.32,0,1,1-1.32-1.32A1.33,1.33,0,0,1,118.42,65.23Z"/><path class="cls-18" d="M118.42,69.58a1.32,1.32,0,1,1-1.32-1.32A1.32,1.32,0,0,1,118.42,69.58Z"/><path class="cls-18" d="M118.42,73.93a1.32,1.32,0,1,1-1.32-1.32A1.32,1.32,0,0,1,118.42,73.93Z"/><path class="cls-18" d="M118.42,78.28A1.32,1.32,0,1,1,117.1,77,1.32,1.32,0,0,1,118.42,78.28Z"/><path class="cls-18" d="M118.42,82.63a1.32,1.32,0,1,1-1.32-1.32A1.32,1.32,0,0,1,118.42,82.63Z"/><path class="cls-18" d="M118.42,87a1.32,1.32,0,1,1-1.32-1.32A1.32,1.32,0,0,1,118.42,87Z"/><polygon class="cls-19" points="81.03 53.14 79.26 51.37 82.8 51.37 81.03 53.14"/></g></g></svg>