<svg id="Layer_1" data-name="Layer 1" xmlns="http://www.w3.org/2000/svg" viewBox="0 0 150 150"><defs><style>.cls-1{fill:#555993;}.cls-2{fill:#fff;}.cls-3{fill:#f5f5f5;}.cls-4{fill:#e8505b;}.cls-5{fill:#8282c7;}.cls-6{fill:#e0e0e0;}.cls-7{fill:#ebebeb;}.cls-8{fill:#263238;}.cls-9{fill:#7879a9;}.cls-10{fill:#ff791f;}</style></defs><rect class="cls-1" x="83.57" y="30.15" width="30.74" height="63.01" rx="4.66"/><path class="cls-2" d="M109.63,32.06h-4.15a1,1,0,0,0-1,1v.75a1,1,0,0,1-1,1.06H95.37a1,1,0,0,1-1-1V33.1a1,1,0,0,0-1-1.05H88.26A3.27,3.27,0,0,0,85,35.31v52.4A3.26,3.26,0,0,0,88.25,91l21.37,0a3.27,3.27,0,0,0,3.26-3.27V35.33A3.26,3.26,0,0,0,109.63,32.06Z"/><path class="cls-1" d="M110.26,37.35s-.54,0-1.2,0-1.21,0-1.21,0,.54,0,1.21,0S110.26,37.34,110.26,37.35Z"/><path class="cls-1" d="M110.27,38s-.54,0-1.21,0-1.21,0-1.21,0,.54,0,1.21,0S110.27,38,110.27,38Z"/><path class="cls-1" d="M110.27,38.58s-.54,0-1.2,0-1.21,0-1.21,0,.54,0,1.21,0S110.27,38.57,110.27,38.58Z"/><path class="cls-1" d="M88.33,39.29H89v-.37a1.61,1.61,0,0,1,0-.22.21.21,0,0,1,.17-.16h.25a.2.2,0,0,1,.17.2v.55l0,0h.65l0,0v-1a.22.22,0,0,0-.09-.16l-.29-.28-.27-.27-.13-.13s-.09-.09-.14-.1a.2.2,0,0,0-.15,0l-.12.12-.23.23c-.15.16-.3.3-.41.43s0,.16,0,.24v.92s0,0,0-.08v-1a.22.22,0,0,1,0-.13c.12-.15.26-.28.41-.44l.23-.23.12-.13a.22.22,0,0,1,.19,0,.31.31,0,0,1,.16.11l.13.13.28.27.28.28a.29.29,0,0,1,.07.08.21.21,0,0,1,0,.11v1h-.7v-.57a.14.14,0,0,0-.13-.15h-.23a.17.17,0,0,0-.14.13,1.47,1.47,0,0,0,0,.21v.39h-.72Z"/><rect class="cls-3" x="87.36" y="42.55" width="22.78" height="4.14" rx="1.75"/><path class="cls-1" d="M108.39,46.69h.13a1.34,1.34,0,0,0,.37-.07,1.73,1.73,0,0,0,.55-.29,1.68,1.68,0,0,0,.52-.66,1.49,1.49,0,0,0,.14-.48,5.14,5.14,0,0,0,0-.56,4.19,4.19,0,0,0,0-.61,1.77,1.77,0,0,0-.23-.6,1.69,1.69,0,0,0-1.15-.8,4.12,4.12,0,0,0-.79,0H89.11a1.69,1.69,0,0,0-1.16.46,1.66,1.66,0,0,0-.54,1.1c0,.21,0,.43,0,.64a1.84,1.84,0,0,0,.06.62,1.72,1.72,0,0,0,.71,1,1.92,1.92,0,0,0,.55.24,3,3,0,0,0,.6,0h11.62l5.45,0H89.32a2.62,2.62,0,0,1-.62,0,1.8,1.8,0,0,1-1.32-1.26,2.33,2.33,0,0,1-.07-.64c0-.21,0-.42,0-.64A1.79,1.79,0,0,1,87.89,43a1.75,1.75,0,0,1,1.22-.48h18.81a5.3,5.3,0,0,1,.8,0,1.79,1.79,0,0,1,1.18.83,1.66,1.66,0,0,1,.23.63,4.29,4.29,0,0,1,0,.61c0,.2,0,.38,0,.56a1.94,1.94,0,0,1-.15.5,1.7,1.7,0,0,1-.53.66,1.82,1.82,0,0,1-.56.28,1.34,1.34,0,0,1-.38.07Z"/><path class="cls-1" d="M108.74,44.52a1.32,1.32,0,0,1,0-.18.72.72,0,0,0-.28-.39.73.73,0,0,0-.67-.1.71.71,0,0,0,0,1.34.68.68,0,0,0,.67-.1.72.72,0,0,0,.28-.39c0-.11,0-.18,0-.18a.18.18,0,0,0,0,0,1.15,1.15,0,0,1,0,.14.7.7,0,0,1-.27.43.76.76,0,0,1-.74.12.78.78,0,1,1,.74-1.36.72.72,0,0,1,.27.43,1.15,1.15,0,0,1,0,.14A.28.28,0,0,0,108.74,44.52Z"/><path class="cls-1" d="M109.15,45.82a1.91,1.91,0,0,1-.36-.34,1.49,1.49,0,0,1-.31-.39s.18.13.37.33S109.17,45.8,109.15,45.82Z"/><path class="cls-1" d="M90.43,44.21H90V44.1H91v.11h-.41v1h-.12Z"/><path class="cls-1" d="M91.8,44.86h-.73a.32.32,0,0,0,.34.3.37.37,0,0,0,.27-.11l.06.07a.39.39,0,0,1-.33.15.44.44,0,0,1-.46-.45.43.43,0,1,1,.85,0Zm-.73-.09h.62a.31.31,0,0,0-.31-.29A.3.3,0,0,0,91.07,44.77Z"/><path class="cls-1" d="M92.57,45.26l-.28-.37-.28.37h-.13l.34-.45-.32-.42H92l.26.34.26-.34h.13l-.33.42.35.45Z"/><path class="cls-1" d="M93.35,45.2a.23.23,0,0,1-.18.07.24.24,0,0,1-.26-.26v-.52h-.15v-.1h.15V44.2H93v.19h.27v.1H93V45a.13.13,0,0,0,.15.15.18.18,0,0,0,.13,0Z"/><rect class="cls-1" x="88.32" y="50.1" width="4.99" height="4.99"/><path class="cls-1" d="M102.89,50.64s-1.66,0-3.72,0-3.72,0-3.72,0,1.66,0,3.72,0S102.89,50.61,102.89,50.64Z"/><path class="cls-1" d="M108.83,52.17s-3,0-6.69,0-6.69,0-6.69,0,3-.05,6.69-.05S108.83,52.14,108.83,52.17Z"/><path class="cls-1" d="M108.68,53.26s-3,0-6.62,0-6.61,0-6.61,0,3,0,6.61,0S108.68,53.23,108.68,53.26Z"/><path class="cls-1" d="M103.26,54.3s-1.75,0-3.91,0-3.9,0-3.9,0,1.75,0,3.9,0S103.26,54.28,103.26,54.3Z"/><rect class="cls-4" x="88.32" y="58.41" width="4.99" height="4.99"/><path class="cls-5" d="M102.89,58.94s-1.66.05-3.72.05-3.72,0-3.72-.05,1.66,0,3.72,0S102.89,58.92,102.89,58.94Z"/><path class="cls-5" d="M108.83,60.47s-3,.05-6.69.05-6.69,0-6.69-.05,3,0,6.69,0S108.83,60.45,108.83,60.47Z"/><path class="cls-5" d="M108.68,61.56s-3,0-6.62,0-6.61,0-6.61,0,3,0,6.61,0S108.68,61.54,108.68,61.56Z"/><path class="cls-5" d="M103.26,62.61s-1.75,0-3.91,0-3.9,0-3.9,0,1.75,0,3.9,0S103.26,62.58,103.26,62.61Z"/><rect class="cls-1" x="88.32" y="66.71" width="4.99" height="4.99"/><path class="cls-1" d="M102.89,67.25s-1.66,0-3.72,0-3.72,0-3.72,0,1.66,0,3.72,0S102.89,67.23,102.89,67.25Z"/><path class="cls-1" d="M108.83,68.78s-3,0-6.69,0-6.69,0-6.69,0,3,0,6.69,0S108.83,68.76,108.83,68.78Z"/><path class="cls-1" d="M108.68,69.87s-3,0-6.62,0-6.61,0-6.61,0,3,0,6.61,0S108.68,69.85,108.68,69.87Z"/><path class="cls-1" d="M103.26,70.91s-1.75,0-3.91,0-3.9,0-3.9,0,1.75,0,3.9,0S103.26,70.89,103.26,70.91Z"/><rect class="cls-4" x="88.32" y="75.02" width="4.99" height="4.99"/><path class="cls-5" d="M102.89,75.56s-1.66,0-3.72,0-3.72,0-3.72,0,1.66,0,3.72,0S102.89,75.53,102.89,75.56Z"/><path class="cls-5" d="M108.83,77.09s-3,0-6.69,0-6.69,0-6.69,0,3,0,6.69,0S108.83,77.06,108.83,77.09Z"/><path class="cls-5" d="M108.68,78.18s-3,0-6.62,0-6.61,0-6.61,0,3,0,6.61,0S108.68,78.15,108.68,78.18Z"/><path class="cls-5" d="M103.26,79.22s-1.75,0-3.91,0-3.9,0-3.9,0,1.75,0,3.9,0S103.26,79.2,103.26,79.22Z"/><rect class="cls-6" x="88.32" y="83.33" width="4.99" height="4.99"/><path class="cls-6" d="M102.89,83.86s-1.66,0-3.72,0-3.72,0-3.72,0,1.66,0,3.72,0S102.89,83.84,102.89,83.86Z"/><path class="cls-7" d="M108.83,85.39s-3,0-6.69,0-6.69,0-6.69,0,3,0,6.69,0S108.83,85.37,108.83,85.39Z"/><path class="cls-7" d="M108.68,86.48s-3,0-6.62,0-6.61,0-6.61,0,3,0,6.61,0S108.68,86.46,108.68,86.48Z"/><path class="cls-7" d="M103.26,87.53s-1.75,0-3.91,0-3.9,0-3.9,0,1.75,0,3.9,0S103.26,87.5,103.26,87.53Z"/><rect class="cls-5" x="88.32" y="75.02" width="4.99" height="4.99"/><rect class="cls-5" x="88.32" y="58.41" width="4.99" height="4.99"/><path class="cls-1" d="M53.78,31.5h.13a1.43,1.43,0,0,1,.38,0,3.26,3.26,0,0,1,1.39.48,3.31,3.31,0,0,1,.85.69,3.42,3.42,0,0,1,.71,1.11,3.66,3.66,0,0,1,.28,1.51v1.75c0,5,0,12.14,0,21V94.83A4,4,0,0,1,57.4,96a3.7,3.7,0,0,1-.48,1,3.93,3.93,0,0,1-.77.86,3.84,3.84,0,0,1-2.15.83c-.78,0-1.56,0-2.34,0h-22A3.87,3.87,0,0,1,27.27,98a3.76,3.76,0,0,1-1.48-2,4.11,4.11,0,0,1-.16-1.26V93.49c0-1.67,0-3.33,0-5V78.78c0-6.39,0-12.54,0-18.41V43.72c0-2.61,0-5.13,0-7.55v-.9c0-.15,0-.3,0-.45s0-.3.08-.45a3.69,3.69,0,0,1,.78-1.57,4,4,0,0,1,1.38-1,4,4,0,0,1,1.66-.31h5.57a1.19,1.19,0,0,1,.73.2,1.3,1.3,0,0,1,.46.6,2.07,2.07,0,0,1,.07.74v.36c0,.12,0,.24,0,.35a1.24,1.24,0,0,0,.28.63,1.1,1.1,0,0,0,.57.35,1,1,0,0,0,.34,0h9.26a1.2,1.2,0,0,0,.46-.16,1.17,1.17,0,0,0,.52-.75,1.71,1.71,0,0,0,0-.45v-.45a2.07,2.07,0,0,1,0-.43,1.36,1.36,0,0,1,.14-.4,1.19,1.19,0,0,1,.6-.53,2.08,2.08,0,0,1,.74-.08h0a1.8,1.8,0,0,0-.73.07,1.17,1.17,0,0,0-.58.52,1.22,1.22,0,0,0-.13.38,2.07,2.07,0,0,0,0,.43v.45a1.81,1.81,0,0,1,0,.46,1.19,1.19,0,0,1-.54.78,1.25,1.25,0,0,1-.47.16,4.34,4.34,0,0,1-.51,0H37.61a1.1,1.1,0,0,1-.36,0,1.22,1.22,0,0,1-.6-.37,1.24,1.24,0,0,1-.29-.66,2.17,2.17,0,0,1,0-.36V33a2.16,2.16,0,0,0-.08-.72,1.18,1.18,0,0,0-.43-.56,1.05,1.05,0,0,0-.69-.19H29.57a3.76,3.76,0,0,0-1.62.3,3.83,3.83,0,0,0-1.35,1,3.79,3.79,0,0,0-.77,1.54c0,.14,0,.29-.07.44s0,.29,0,.44V94.74A3.88,3.88,0,0,0,25.89,96a3.75,3.75,0,0,0,1.44,2,3.86,3.86,0,0,0,2.36.65h22c.78,0,1.56,0,2.33,0a3.61,3.61,0,0,0,2.09-.81,3.57,3.57,0,0,0,.76-.84,3.48,3.48,0,0,0,.46-1,3.76,3.76,0,0,0,.14-1.11V89.25c0-11.72,0-22.29,0-31.16s0-16,0-21c0-.62,0-1.2,0-1.75a3.78,3.78,0,0,0-.28-1.5,3.63,3.63,0,0,0-.7-1.11,3.77,3.77,0,0,0-2.22-1.17,2.31,2.31,0,0,0-.38,0Z"/><path class="cls-1" d="M53.81,50a2.43,2.43,0,0,1,.7-.05l0,.05h0v-.26a1.48,1.48,0,0,1,0-.22.65.65,0,0,1,0-.21s0,.08,0,.21a1.48,1.48,0,0,1,0,.22v.26h0l-.06.06A2.23,2.23,0,0,1,53.81,50Z"/><path class="cls-1" d="M51.1,50a2.2,2.2,0,0,1,.67-.05,2.24,2.24,0,0,1,.68.05,2.05,2.05,0,0,1-.68.06A2,2,0,0,1,51.1,50Z"/><path class="cls-1" d="M48.38,50a2.24,2.24,0,0,1,.68-.05,2.29,2.29,0,0,1,.68.05,2.1,2.1,0,0,1-.68.06A2.05,2.05,0,0,1,48.38,50Z"/><path class="cls-1" d="M45.66,50a2.29,2.29,0,0,1,.68-.05A2.24,2.24,0,0,1,47,50a2.05,2.05,0,0,1-.68.06A2.1,2.1,0,0,1,45.66,50Z"/><path class="cls-1" d="M43,50a2.24,2.24,0,0,1,.68-.05,2.29,2.29,0,0,1,.68.05,2.1,2.1,0,0,1-.68.06A2.05,2.05,0,0,1,43,50Z"/><path class="cls-1" d="M40.23,50a2.29,2.29,0,0,1,.68-.05,2.24,2.24,0,0,1,.68.05,2.05,2.05,0,0,1-.68.06A2.1,2.1,0,0,1,40.23,50Z"/><path class="cls-1" d="M37.52,50a2.24,2.24,0,0,1,.68-.05,2.29,2.29,0,0,1,.68.05,2.1,2.1,0,0,1-.68.06A2.05,2.05,0,0,1,37.52,50Z"/><path class="cls-1" d="M34.8,50a2.29,2.29,0,0,1,.68-.05,2.24,2.24,0,0,1,.68.05,2.05,2.05,0,0,1-.68.06A2.1,2.1,0,0,1,34.8,50Z"/><path class="cls-1" d="M32.09,50a2.24,2.24,0,0,1,.68-.05,2.29,2.29,0,0,1,.68.05,2.1,2.1,0,0,1-.68.06A2.05,2.05,0,0,1,32.09,50Z"/><path class="cls-1" d="M30,49.25a2.37,2.37,0,0,1,0,.7c-.11-.1,0,0,0-.05h.49a.65.65,0,0,1,.21,0s-.08,0-.21,0H30L30,50A2.18,2.18,0,0,1,30,49.25Z"/><path class="cls-1" d="M30,46.5a2.24,2.24,0,0,1,0,.68,2.33,2.33,0,0,1,0,.69,2.14,2.14,0,0,1-.06-.69A2.05,2.05,0,0,1,30,46.5Z"/><path class="cls-1" d="M30,43.74a4.79,4.79,0,0,1,0,1.38,4,4,0,0,1,0-1.38Z"/><path class="cls-1" d="M30.73,41.66a2.37,2.37,0,0,1-.7.05l0-.05h0v.26c0,.08,0,.16,0,.22a.65.65,0,0,1,0,.21s0-.08,0-.21,0-.14,0-.22v-.26h0l.06,0A2.37,2.37,0,0,1,30.73,41.66Z"/><path class="cls-1" d="M33.45,41.66a2.29,2.29,0,0,1-.68.05,2.24,2.24,0,0,1-.68-.05,2.24,2.24,0,0,1,.68,0A2.29,2.29,0,0,1,33.45,41.66Z"/><path class="cls-1" d="M36.16,41.66a2.24,2.24,0,0,1-.68.05,2.29,2.29,0,0,1-.68-.05,2.29,2.29,0,0,1,.68,0A2.24,2.24,0,0,1,36.16,41.66Z"/><path class="cls-1" d="M38.88,41.66a2.29,2.29,0,0,1-.68.05,2.24,2.24,0,0,1-.68-.05,2.24,2.24,0,0,1,.68,0A2.29,2.29,0,0,1,38.88,41.66Z"/><path class="cls-1" d="M41.59,41.66a2.24,2.24,0,0,1-.68.05,2.29,2.29,0,0,1-.68-.05,2.29,2.29,0,0,1,.68,0A2.24,2.24,0,0,1,41.59,41.66Z"/><path class="cls-1" d="M44.31,41.66a2.29,2.29,0,0,1-.68.05,2.24,2.24,0,0,1-.68-.05,2.24,2.24,0,0,1,.68,0A2.29,2.29,0,0,1,44.31,41.66Z"/><path class="cls-1" d="M47,41.66a2.24,2.24,0,0,1-.68.05,2.29,2.29,0,0,1-.68-.05,2.29,2.29,0,0,1,.68,0A2.24,2.24,0,0,1,47,41.66Z"/><path class="cls-1" d="M49.74,41.66a2.29,2.29,0,0,1-.68.05,2.24,2.24,0,0,1-.68-.05,2.24,2.24,0,0,1,.68,0A2.29,2.29,0,0,1,49.74,41.66Z"/><path class="cls-1" d="M52.45,41.66a2.24,2.24,0,0,1-.68.05,2.2,2.2,0,0,1-.67-.05,2.2,2.2,0,0,1,.67,0A2.24,2.24,0,0,1,52.45,41.66Z"/><path class="cls-1" d="M54.51,42.37a3,3,0,0,1,0-.71l0,.05H54c-.13,0-.21,0-.21,0a.51.51,0,0,1,.21,0h.49l.06,0A2.27,2.27,0,0,1,54.51,42.37Z"/><path class="cls-1" d="M54.51,45.12a4.79,4.79,0,0,1,0-1.38,4,4,0,0,1,0,1.38Z"/><path class="cls-1" d="M54.51,47.87a2.81,2.81,0,0,1,0-.69,2.69,2.69,0,0,1,0-.68,2.05,2.05,0,0,1,.06.68A2.14,2.14,0,0,1,54.51,47.87Z"/><rect class="cls-1" x="29.87" y="41.45" width="0.43" height="0.43"/><rect class="cls-1" x="29.81" y="49.74" width="0.43" height="0.43"/><rect class="cls-1" x="42.05" y="49.74" width="0.43" height="0.43"/><rect class="cls-1" x="42.05" y="41.35" width="0.43" height="0.43"/><path class="cls-5" d="M54.5,37.53a12.3,12.3,0,0,1-1.37,0c-.76,0-1.38,0-1.38,0a12.56,12.56,0,0,1,1.38,0C53.89,37.51,54.5,37.52,54.5,37.53Z"/><path class="cls-5" d="M54.51,38.24s-.62,0-1.38,0-1.37,0-1.37,0,.61,0,1.37,0A12.86,12.86,0,0,1,54.51,38.24Z"/><path class="cls-5" d="M54.51,38.94s-.61,0-1.37,0a12.86,12.86,0,0,1-1.38,0s.62,0,1.38,0S54.51,38.92,54.51,38.94Z"/><path class="cls-6" d="M46.1,62.15s-1.9.05-4.24.05-4.24,0-4.24-.05,1.9,0,4.24,0S46.1,62.12,46.1,62.15Z"/><path class="cls-8" d="M52.87,63.89s-3.41,0-7.62,0-7.63,0-7.63,0,3.41,0,7.63,0S52.87,63.87,52.87,63.89Z"/><path class="cls-8" d="M52.69,65.14s-3.37,0-7.53,0-7.54,0-7.54,0,3.37,0,7.54,0S52.69,65.11,52.69,65.14Z"/><path class="cls-8" d="M46.52,66.32s-2,.05-4.45.05-4.45,0-4.45-.05,2,0,4.45,0S46.52,66.3,46.52,66.32Z"/><path class="cls-6" d="M46.1,81.09s-1.9,0-4.24,0-4.24,0-4.24,0,1.9,0,4.24,0S46.1,81.06,46.1,81.09Z"/><path class="cls-8" d="M52.87,82.83s-3.41,0-7.62,0-7.63,0-7.63,0,3.41,0,7.63,0S52.87,82.8,52.87,82.83Z"/><path class="cls-8" d="M52.69,84.07s-3.37.05-7.53.05-7.54,0-7.54-.05,3.37,0,7.54,0S52.69,84.05,52.69,84.07Z"/><path class="cls-8" d="M46.52,85.26s-2,0-4.45,0-4.45,0-4.45,0,2-.05,4.45-.05S46.52,85.23,46.52,85.26Z"/><path class="cls-1" d="M46.13,53.58s-1.9.05-4.25.05-4.24,0-4.24-.05,1.9,0,4.24,0S46.13,53.56,46.13,53.58Z"/><path class="cls-1" d="M52.9,55.32s-3.42,0-7.63,0-7.63,0-7.63,0,3.41,0,7.63,0S52.9,55.3,52.9,55.32Z"/><path class="cls-1" d="M52.72,56.57s-3.38,0-7.54,0-7.54,0-7.54,0,3.37,0,7.54,0S52.72,56.54,52.72,56.57Z"/><path class="cls-1" d="M46.54,57.76s-2,0-4.45,0-4.45,0-4.45,0,2,0,4.45,0S46.54,57.73,46.54,57.76Z"/><path class="cls-1" d="M34,58.12a2.37,2.37,0,0,1,.7,0,2.47,2.47,0,0,1,.71,0,2.47,2.47,0,0,1-.71.05A2.37,2.37,0,0,1,34,58.12Z"/><path class="cls-1" d="M31.16,58.12a2.47,2.47,0,0,1,.71,0,2.37,2.37,0,0,1,.7,0,2.37,2.37,0,0,1-.7.05A2.47,2.47,0,0,1,31.16,58.12Z"/><path class="cls-1" d="M30.64,55.83a4.11,4.11,0,0,1,0,1.4,4.93,4.93,0,0,1,0-1.4Z"/><path class="cls-1" d="M31,53.38a1,1,0,0,1-.37,0l.05,0c0,.1,0,.21,0,.34a2.23,2.23,0,0,1-.06.7,2.43,2.43,0,0,1-.05-.7c0-.13,0-.24,0-.34v-.05h0A1,1,0,0,1,31,53.38Z"/><path class="cls-1" d="M33.83,53.38a2.47,2.47,0,0,1-.71,0,2.37,2.37,0,0,1-.7,0,2.37,2.37,0,0,1,.7-.05A2.47,2.47,0,0,1,33.83,53.38Z"/><path class="cls-1" d="M35.39,54.63a2.18,2.18,0,0,1-.06-.7c0-.22,0-.42,0-.55l0,0-.16,0s.06,0,.16,0h0v0c0,.13,0,.33,0,.55A2.86,2.86,0,0,1,35.39,54.63Z"/><path class="cls-1" d="M35.39,57.45a2.27,2.27,0,0,1-.06-.71,2.23,2.23,0,0,1,.06-.7,2.93,2.93,0,0,1,0,.7A3,3,0,0,1,35.39,57.45Z"/><rect class="cls-1" x="35.07" y="57.89" width="0.53" height="0.53"/><rect class="cls-1" x="35.07" y="52.99" width="0.53" height="0.53"/><rect class="cls-1" x="30.38" y="57.89" width="0.53" height="0.53"/><rect class="cls-1" x="30.38" y="53.12" width="0.53" height="0.53"/><path class="cls-5" d="M34,66.85a2.37,2.37,0,0,1,.7,0,2.47,2.47,0,0,1,.71,0,2.47,2.47,0,0,1-.71.05A2.37,2.37,0,0,1,34,66.85Z"/><path class="cls-5" d="M31.16,66.85a2.47,2.47,0,0,1,.71,0,2.37,2.37,0,0,1,.7,0,2.37,2.37,0,0,1-.7.05A2.47,2.47,0,0,1,31.16,66.85Z"/><path class="cls-5" d="M30.64,64.56a4.11,4.11,0,0,1,0,1.4,4.93,4.93,0,0,1,0-1.4Z"/><path class="cls-5" d="M31,62.11a1,1,0,0,1-.37,0l.05,0c0,.1,0,.21,0,.34a2.18,2.18,0,0,1-.06.7,2.37,2.37,0,0,1-.05-.7c0-.13,0-.24,0-.34v0h0A1,1,0,0,1,31,62.11Z"/><path class="cls-5" d="M33.83,62.11a2.47,2.47,0,0,1-.71,0,2.37,2.37,0,0,1-.7,0,2.37,2.37,0,0,1,.7,0A2.47,2.47,0,0,1,33.83,62.11Z"/><path class="cls-5" d="M35.39,63.36a2.18,2.18,0,0,1-.06-.7c0-.22,0-.42,0-.55l0,0-.16,0,.16,0h0v0c0,.13,0,.33,0,.55A2.86,2.86,0,0,1,35.39,63.36Z"/><path class="cls-5" d="M35.39,66.18a2.23,2.23,0,0,1-.06-.7,2.27,2.27,0,0,1,.06-.71,3,3,0,0,1,0,.71A2.93,2.93,0,0,1,35.39,66.18Z"/><rect class="cls-5" x="35.07" y="66.62" width="0.53" height="0.53"/><rect class="cls-5" x="35.07" y="61.72" width="0.53" height="0.53"/><rect class="cls-5" x="30.38" y="66.62" width="0.53" height="0.53"/><rect class="cls-5" x="30.38" y="61.85" width="0.53" height="0.53"/><path class="cls-1" d="M34,76.1a2.47,2.47,0,0,1,.71,0,2.37,2.37,0,0,1,.7,0,2.37,2.37,0,0,1-.7.05A2.47,2.47,0,0,1,34,76.1Z"/><path class="cls-1" d="M31.19,76.1a2.37,2.37,0,0,1,.7,0,2.47,2.47,0,0,1,.71,0,2.47,2.47,0,0,1-.71.05A2.37,2.37,0,0,1,31.19,76.1Z"/><path class="cls-1" d="M30.67,73.8a2.47,2.47,0,0,1,0,.71,2.37,2.37,0,0,1,0,.7,2.37,2.37,0,0,1-.05-.7A2.47,2.47,0,0,1,30.67,73.8Z"/><path class="cls-1" d="M31,71.36a1.12,1.12,0,0,1-.37,0l0,0c0,.09,0,.21,0,.33a2.47,2.47,0,0,1,0,.71,2.47,2.47,0,0,1-.05-.71v-.38h.05A1,1,0,0,1,31,71.36Z"/><path class="cls-1" d="M33.85,71.36a2.86,2.86,0,0,1-.7,0,3,3,0,0,1-.71,0,2.27,2.27,0,0,1,.71-.06A2.18,2.18,0,0,1,33.85,71.36Z"/><path class="cls-1" d="M35.41,72.61a2.37,2.37,0,0,1,0-.7c0-.23,0-.43,0-.55l0,0q-.15,0-.15,0s.05,0,.15,0h0v0a4.12,4.12,0,0,1,0,.55A2.37,2.37,0,0,1,35.41,72.61Z"/><path class="cls-1" d="M35.41,75.42a4.92,4.92,0,0,1,0-1.4,4.93,4.93,0,0,1,0,1.4Z"/><rect class="cls-1" x="35.1" y="75.87" width="0.53" height="0.53"/><rect class="cls-1" x="35.1" y="70.96" width="0.53" height="0.53"/><rect class="cls-1" x="30.41" y="75.87" width="0.53" height="0.53"/><rect class="cls-1" x="30.41" y="71.09" width="0.53" height="0.53"/><path class="cls-5" d="M34,85.32a2.37,2.37,0,0,1,.7,0,2.47,2.47,0,0,1,.71,0,2.47,2.47,0,0,1-.71.05A2.37,2.37,0,0,1,34,85.32Z"/><path class="cls-5" d="M31.16,85.32a2.47,2.47,0,0,1,.71,0,2.37,2.37,0,0,1,.7,0,2.37,2.37,0,0,1-.7.05A2.47,2.47,0,0,1,31.16,85.32Z"/><path class="cls-5" d="M30.64,83a2.27,2.27,0,0,1,.06.71,2.18,2.18,0,0,1-.06.7,2.37,2.37,0,0,1-.05-.7A2.47,2.47,0,0,1,30.64,83Z"/><path class="cls-5" d="M31,80.58a1.12,1.12,0,0,1-.37,0l.05,0c0,.1,0,.21,0,.33a2.27,2.27,0,0,1-.06.71,2.47,2.47,0,0,1-.05-.71c0-.12,0-.23,0-.33v0h0A1,1,0,0,1,31,80.58Z"/><path class="cls-5" d="M33.83,80.58a2.47,2.47,0,0,1-.71,0,2.37,2.37,0,0,1-.7,0,2.18,2.18,0,0,1,.7-.06A2.27,2.27,0,0,1,33.83,80.58Z"/><path class="cls-5" d="M35.39,81.83a2.18,2.18,0,0,1-.06-.7c0-.23,0-.43,0-.55l0,0c-.1,0-.16,0-.16,0s.06,0,.16,0h0v0c0,.12,0,.32,0,.55A2.86,2.86,0,0,1,35.39,81.83Z"/><path class="cls-5" d="M35.39,84.65a2.27,2.27,0,0,1-.06-.71,2.18,2.18,0,0,1,.06-.7,2.86,2.86,0,0,1,0,.7A3,3,0,0,1,35.39,84.65Z"/><rect class="cls-5" x="35.07" y="85.09" width="0.53" height="0.53"/><rect class="cls-5" x="35.07" y="80.19" width="0.53" height="0.53"/><rect class="cls-5" x="30.38" y="85.09" width="0.53" height="0.53"/><rect class="cls-5" x="30.38" y="80.31" width="0.53" height="0.53"/><path class="cls-1" d="M34,94.86a2.37,2.37,0,0,1,.7,0,2.47,2.47,0,0,1,.71,0,2.47,2.47,0,0,1-.71,0A2.37,2.37,0,0,1,34,94.86Z"/><path class="cls-1" d="M31.16,94.86a2.47,2.47,0,0,1,.71,0,2.37,2.37,0,0,1,.7,0,2.37,2.37,0,0,1-.7,0A2.47,2.47,0,0,1,31.16,94.86Z"/><path class="cls-1" d="M30.64,92.57a4.11,4.11,0,0,1,0,1.4,4.93,4.93,0,0,1,0-1.4Z"/><path class="cls-1" d="M31,90.12a1.12,1.12,0,0,1-.37,0l.05,0c0,.1,0,.21,0,.33a2.27,2.27,0,0,1-.06.71,2.47,2.47,0,0,1-.05-.71c0-.12,0-.23,0-.33v-.05h0A1,1,0,0,1,31,90.12Z"/><path class="cls-1" d="M33.83,90.12a2.47,2.47,0,0,1-.71,0,2.37,2.37,0,0,1-.7,0,2.37,2.37,0,0,1,.7-.05A2.47,2.47,0,0,1,33.83,90.12Z"/><path class="cls-1" d="M35.39,91.37a2.18,2.18,0,0,1-.06-.7c0-.23,0-.43,0-.55l0,0-.16,0s.06,0,.16,0h0v0c0,.12,0,.32,0,.55A2.86,2.86,0,0,1,35.39,91.37Z"/><path class="cls-1" d="M35.39,94.19a2.27,2.27,0,0,1-.06-.71,2.18,2.18,0,0,1,.06-.7,2.86,2.86,0,0,1,0,.7A3,3,0,0,1,35.39,94.19Z"/><rect class="cls-1" x="35.07" y="94.63" width="0.53" height="0.53"/><rect class="cls-1" x="35.07" y="89.73" width="0.53" height="0.53"/><rect class="cls-1" x="30.38" y="94.63" width="0.53" height="0.53"/><rect class="cls-1" x="30.38" y="89.86" width="0.53" height="0.53"/><path class="cls-1" d="M45.93,71.2s-1.91,0-4.25,0-4.24,0-4.24,0,1.9,0,4.24,0S45.93,71.17,45.93,71.2Z"/><path class="cls-1" d="M52.69,72.94s-3.41,0-7.62,0-7.63,0-7.63,0,3.41,0,7.63,0S52.69,72.91,52.69,72.94Z"/><path class="cls-1" d="M52.51,74.18s-3.37,0-7.53,0-7.54,0-7.54,0,3.37-.05,7.54-.05S52.51,74.16,52.51,74.18Z"/><path class="cls-1" d="M46.34,75.37s-2,0-4.45,0-4.45,0-4.45,0,2-.05,4.45-.05S46.34,75.34,46.34,75.37Z"/><path class="cls-1" d="M45.93,90.53s-1.91,0-4.25,0-4.24,0-4.24,0,1.9,0,4.24,0S45.93,90.5,45.93,90.53Z"/><path class="cls-1" d="M52.69,92.27s-3.41,0-7.62,0-7.63,0-7.63,0,3.41,0,7.63,0S52.69,92.25,52.69,92.27Z"/><path class="cls-1" d="M52.51,93.52s-3.37,0-7.53,0-7.54,0-7.54,0,3.37,0,7.54,0S52.51,93.49,52.51,93.52Z"/><path class="cls-1" d="M46.34,94.7s-2,0-4.45,0-4.45,0-4.45,0,2,0,4.45,0S46.34,94.68,46.34,94.7Z"/><path class="cls-1" d="M30.11,38.85h.77v-.41a1.92,1.92,0,0,1,0-.24.19.19,0,0,1,.19-.17h.27a.24.24,0,0,1,.19.22v.61l0,0h.72l0,0V37.71a.22.22,0,0,0-.1-.17l-.31-.31-.31-.3-.14-.15a.53.53,0,0,0-.15-.11.21.21,0,0,0-.17,0,.8.8,0,0,0-.13.13l-.26.26c-.16.17-.33.32-.45.46a.61.61,0,0,0,0,.27v.92a.67.67,0,0,0,0,.1V37.69a.42.42,0,0,1,0-.15c.14-.16.29-.3.46-.48l.25-.26.14-.14a.26.26,0,0,1,.21,0,.33.33,0,0,1,.17.13l.15.14.3.3.32.31.08.09a.21.21,0,0,1,0,.12v1.15h-.78v-.63a.17.17,0,0,0-.14-.17h-.27a.18.18,0,0,0-.15.14,1.77,1.77,0,0,0,0,.23v.43h-.8Z"/><path class="cls-1" d="M36.18,47.53a1.9,1.9,0,0,1,0-.19.83.83,0,0,0-.3-.42.77.77,0,0,0-1.22.61.78.78,0,0,0,.5.72.77.77,0,0,0,.72-.1.87.87,0,0,0,.3-.42c0-.12,0-.2,0-.2s0,.08,0,.21a.86.86,0,0,1-.3.46.81.81,0,0,1-.8.14.88.88,0,0,1-.57-.81.87.87,0,0,1,.57-.8.84.84,0,0,1,.8.13.88.88,0,0,1,.3.47C36.2,47.46,36.19,47.53,36.18,47.53Z"/><polygon class="cls-1" points="65.17 117.61 25.04 103.14 79.8 85.25 119.47 97.76 65.17 117.61"/><polygon class="cls-5" points="70.84 115.53 114.31 99.64 86.21 90.78 42.13 105.18 70.84 115.53"/><polygon class="cls-5" points="65.13 119.85 70.24 70.94 125 53.05 119.44 99.99 65.13 119.85"/><polygon class="cls-5" points="25.04 103.14 25 105.67 65.13 119.85 65.17 117.61 25.04 103.14"/><polygon class="cls-1" points="65.13 119.85 63.82 119.39 68.91 70.2 70.24 70.94 65.13 119.85"/><polygon class="cls-9" points="125 53.05 123.69 52.38 68.91 70.2 70.24 70.94 125 53.05"/><path class="cls-10" d="M91.7,90.8c2,2,5.51,1.74,8-.62s2.84-5.9.89-7.92-5.52-1.75-8,.62S89.75,88.78,91.7,90.8Z"/></svg>