<svg id="Layer_1" data-name="Layer 1" xmlns="http://www.w3.org/2000/svg" viewBox="0 0 165 148.9"><defs><style>.cls-1,.cls-3{fill:none;stroke:#6c63ff;stroke-width:2px;}.cls-2{isolation:isolate;font-size:15px;font-family:Poppins-Medium, Poppins;font-weight:500;}.cls-2,.cls-4{fill:#6c63ff;}.cls-3{stroke-linejoin:round;}</style></defs><g id="Rectangle_364" data-name="Rectangle 364"><rect class="cls-1" x="1.5" y="1.45" width="162" height="146" rx="29"/></g><g id="Software_Development" data-name="Software Development"><text class="cls-2" transform="translate(45.64 120.72)">Software</text><text class="cls-2" transform="translate(31.68 138.72)">Development</text></g><path class="cls-1" d="M53.56,24.77h57.88a10.71,10.71,0,0,1,10.71,10.71v37.8a0,0,0,0,1,0,0H42.85a0,0,0,0,1,0,0V35.48A10.71,10.71,0,0,1,53.56,24.77Z"/><path class="cls-1" d="M42.85,73.28h79.31a0,0,0,0,1,0,0v3.16a3.82,3.82,0,0,1-3.82,3.82H46.66a3.82,3.82,0,0,1-3.82-3.82V73.28A0,0,0,0,1,42.85,73.28Z"/><rect class="cls-1" x="82.5" y="80.94" height="12.77"/><rect class="cls-3" x="67.7" y="93.71" width="29.61"/><path class="cls-4" d="M61.93,41.06a2,2,0,0,1,1.9-1.49h0L59.55,57a2,2,0,0,1-1.89,1.49h0Z"/><path class="cls-4" d="M70.11,45.77a4.05,4.05,0,0,1,4.31,3.15h-.25a2.6,2.6,0,0,1-1.94-1,2.73,2.73,0,0,0-2.12-.86c-1.69,0-3,1.21-3,3.48s1.26,3.52,3,3.52a2.65,2.65,0,0,0,2.11-.84,2.69,2.69,0,0,1,2-1h.22a4.15,4.15,0,0,1-4.31,3.14c-2.65,0-4.53-1.87-4.53-4.83S67.46,45.77,70.11,45.77Z"/><path class="cls-4" d="M80.54,55.39a4.52,4.52,0,0,1-4.64-4.83,4.71,4.71,0,1,1,9.41,0A4.62,4.62,0,0,1,80.54,55.39Zm0-1.36a3.16,3.16,0,0,0,3.19-3.47,3.13,3.13,0,0,0-3.14-3.45c-1.63,0-3.11,1.11-3.11,3.45S78.92,54,80.54,54Z"/><path class="cls-4" d="M91.21,45.77a4.06,4.06,0,0,1,3.45,1.82V43.44a.78.78,0,0,1,.79-.78h0a.78.78,0,0,1,.78.78v11a.78.78,0,0,1-.78.78h0a.78.78,0,0,1-.79-.78v-1a3.82,3.82,0,0,1-3.46,1.9c-2.5,0-4.42-2-4.42-4.84S88.7,45.77,91.21,45.77Zm.29,1.34a3.14,3.14,0,0,0-3.14,3.44,3.17,3.17,0,1,0,6.3,0A3.19,3.19,0,0,0,91.5,47.11Z"/><path class="cls-4" d="M102.88,55.39a4.49,4.49,0,0,1-4.61-4.83,4.43,4.43,0,0,1,4.61-4.79,4.26,4.26,0,0,1,4.46,4.45,7.21,7.21,0,0,1,0,.94H99.85a2.92,2.92,0,0,0,3,2.92,2.72,2.72,0,0,0,2.09-.82,2.52,2.52,0,0,1,1.84-.89h.35A4.18,4.18,0,0,1,102.88,55.39Zm-3-5.49h5.88a2.74,2.74,0,0,0-2.94-2.82A2.88,2.88,0,0,0,99.87,49.9Z"/></svg>