<svg id="Layer_1" data-name="Layer 1" xmlns="http://www.w3.org/2000/svg" viewBox="0 0 150 150"><defs><style>.cls-1{fill:#555993;}.cls-2{fill:#fff;}</style></defs><path class="cls-1" d="M77.89,111.92a19.9,19.9,0,0,1-2-.1l-.37,0-.64-3.28a19.58,19.58,0,0,1-3.26-.86l-2.17,2.54-.34-.16a21.5,21.5,0,0,1-3.67-2.1l-.31-.21,1.09-3.16a19.19,19.19,0,0,1-2.39-2.38l-3.15,1.11-.22-.3a21.48,21.48,0,0,1-2.13-3.65L58.14,99l2.52-2.19a18.51,18.51,0,0,1-.89-3.26l-3.28-.62,0-.37a21.25,21.25,0,0,1,0-4.22l0-.38,3.28-.63a19.43,19.43,0,0,1,.86-3.27l-2.54-2.17.16-.34a21.22,21.22,0,0,1,2.1-3.67l.21-.3,3.16,1.09a18.61,18.61,0,0,1,2.38-2.4L65,73.12l.3-.22a21.43,21.43,0,0,1,3.65-2.12l.34-.16,2.19,2.52a18.48,18.48,0,0,1,3.26-.88L75.33,69l.37,0a21.25,21.25,0,0,1,4.22,0l.38,0,.63,3.28a18.55,18.55,0,0,1,3.27.87l2.17-2.54.34.15a21.89,21.89,0,0,1,3.67,2.1l.3.22-1.09,3.16A17.41,17.41,0,0,1,92,78.57l3.15-1.12.22.31a21.43,21.43,0,0,1,2.12,3.65l.16.34-2.52,2.19A18.25,18.25,0,0,1,96,87.2l3.29.61,0,.37a22.14,22.14,0,0,1,0,4.23l0,.37L96,93.41a18.33,18.33,0,0,1-.87,3.27l2.54,2.17-.15.34a21.5,21.5,0,0,1-2.1,3.67l-.22.31-3.16-1.09a17.34,17.34,0,0,1-2.38,2.39l1.12,3.15-.31.22A21.48,21.48,0,0,1,86.85,110l-.34.15-2.19-2.52a18.27,18.27,0,0,1-3.26.89l-.61,3.28-.37,0C79.35,111.88,78.62,111.92,77.89,111.92Zm-1.57-1.06a21.13,21.13,0,0,0,3.28,0l.61-3.24.35,0a17.33,17.33,0,0,0,3.73-1l.32-.13,2.16,2.49a20.59,20.59,0,0,0,2.84-1.65l-1.09-3.11.27-.22a17.19,17.19,0,0,0,2.72-2.74l.22-.28L94.85,102a21.29,21.29,0,0,0,1.63-2.86L94,97l.13-.33a17.83,17.83,0,0,0,1-3.73l0-.35,3.24-.63a21.26,21.26,0,0,0,0-3.29l-3.24-.6-.06-.35a17.06,17.06,0,0,0-1-3.72l-.13-.33,2.49-2.16a20.65,20.65,0,0,0-1.66-2.84l-3.1,1.09-.22-.27a17.62,17.62,0,0,0-2.74-2.72l-.28-.22,1.07-3.12a20.58,20.58,0,0,0-2.85-1.63l-2.14,2.5-.33-.13a17.92,17.92,0,0,0-3.74-1l-.35,0-.62-3.24a20.07,20.07,0,0,0-3.29,0l-.6,3.23-.35.06a17.73,17.73,0,0,0-3.73,1l-.33.13L69,71.84a20.65,20.65,0,0,0-2.84,1.66l1.1,3.1-.28.22a18.07,18.07,0,0,0-2.72,2.74l-.22.28-3.11-1.07a19.61,19.61,0,0,0-1.63,2.85l2.5,2.14-.13.33a17.34,17.34,0,0,0-1,3.74l0,.35-3.23.62a21.25,21.25,0,0,0,0,3.29l3.24.6.05.35a17.17,17.17,0,0,0,1,3.73l.13.33-2.49,2.16A20.59,20.59,0,0,0,61,102.1l3.11-1.1.22.28A17.62,17.62,0,0,0,67.08,104l.28.22-1.07,3.11A19.61,19.61,0,0,0,69.14,109l2.14-2.5.33.13a17.26,17.26,0,0,0,3.73,1l.35,0ZM77.9,95.08a4.71,4.71,0,0,1-4.08-2.34,4.72,4.72,0,0,1,1.7-6.44h0a4.71,4.71,0,1,1,2.38,8.78Zm0-8.42a3.63,3.63,0,0,0-1.86.51h0a3.69,3.69,0,1,0,1.86-.51Z"/><path class="cls-1" d="M112.35,114.68l-.95-2.11a11.78,11.78,0,0,1-2.14,0l-1.05,2-.37-.06a16.29,16.29,0,0,1-2.82-.83l-.34-.14.22-2.3a12.46,12.46,0,0,1-1.82-1.11l-1.94,1.25-.28-.24a14.59,14.59,0,0,1-2-2.13l-.23-.3,1.34-1.87a13.67,13.67,0,0,1-1-1.88l-2.31.12-.12-.35a15.68,15.68,0,0,1-.69-2.86l0-.37,2.1-1a12.75,12.75,0,0,1,.05-2.14l-2.05-1,.07-.37a15.43,15.43,0,0,1,.82-2.82l.15-.34,2.29.22a12.46,12.46,0,0,1,1.11-1.82L99,90.29l.25-.28a14.52,14.52,0,0,1,2.12-2l.3-.23,1.87,1.34a13.67,13.67,0,0,1,1.88-1l-.12-2.3.36-.13a15.39,15.39,0,0,1,2.85-.69l.37,0,1,2.1a12.66,12.66,0,0,1,2.13,0l1-2,.37.07a14.7,14.7,0,0,1,2.82.83l.35.14-.23,2.29a12.52,12.52,0,0,1,1.82,1.12l1.94-1.26.29.25a15,15,0,0,1,2,2.12l.23.3-1.34,1.88a13,13,0,0,1,1,1.87l2.31-.11.12.35a14.63,14.63,0,0,1,.69,2.85l0,.37-2.1,1a12.64,12.64,0,0,1,0,2.13l2,1.06-.07.36a15,15,0,0,1-.82,2.82l-.14.35-2.3-.23a13.12,13.12,0,0,1-1.11,1.83l1.25,1.93-.25.29a15,15,0,0,1-2.12,2l-.3.23-1.87-1.34a12.67,12.67,0,0,1-1.88,1l.12,2.31-.36.12a14.63,14.63,0,0,1-2.85.69Zm-.33-3.16.93,2.06a12.79,12.79,0,0,0,1.94-.48l-.11-2.25.33-.13a12,12,0,0,0,2.3-1.26l.29-.2,1.83,1.31a12.6,12.6,0,0,0,1.45-1.38l-1.22-1.89L120,107a12,12,0,0,0,1.37-2.24l.15-.32,2.24.22a14.12,14.12,0,0,0,.57-1.92l-2-1,0-.35a12.09,12.09,0,0,0,.06-2.62l0-.35,2-.94a13.36,13.36,0,0,0-.47-1.94l-2.25.11-.13-.32a11.67,11.67,0,0,0-1.26-2.3l-.2-.29,1.31-1.84A14.52,14.52,0,0,0,120,89.44l-1.89,1.23-.28-.22a12,12,0,0,0-2.24-1.37l-.32-.14.22-2.25a14.51,14.51,0,0,0-1.92-.56l-1,2-.35,0a12.09,12.09,0,0,0-2.62-.07l-.35,0-.94-2a14.43,14.43,0,0,0-1.94.47l.11,2.25-.33.14a12.21,12.21,0,0,0-2.3,1.25l-.29.21L101.74,89a14.58,14.58,0,0,0-1.45,1.38l1.23,1.9-.22.28a11.39,11.39,0,0,0-1.37,2.24l-.15.32-2.24-.22A14,14,0,0,0,97,96.81l2,1,0,.35a12.09,12.09,0,0,0-.06,2.62l0,.36-2.05.93a12.76,12.76,0,0,0,.47,1.94l2.25-.11.14.33a11.91,11.91,0,0,0,1.25,2.3l.2.29-1.31,1.83a13.51,13.51,0,0,0,1.38,1.45l1.9-1.22.28.21a11.62,11.62,0,0,0,2.23,1.37l.32.15-.22,2.25a14.51,14.51,0,0,0,1.92.56l1-2,.35,0a11.49,11.49,0,0,0,2.62.06Zm-1.38-4.62h-.18a7,7,0,0,1-5-2.2,7.11,7.11,0,0,1,.24-10h0a7.11,7.11,0,1,1,4.91,12.26Zm-4.22-11.54a6.11,6.11,0,1,0,8.43,8.85,6.12,6.12,0,0,0,.21-8.64,6.12,6.12,0,0,0-8.64-.21Z"/><path class="cls-1" d="M107.76,77,107.28,76a6.6,6.6,0,0,1-.77,0L106,77l-.37-.07a8.16,8.16,0,0,1-1.46-.43l-.34-.14.11-1.17c-.22-.12-.44-.25-.65-.39l-1,.63-.28-.24a8.42,8.42,0,0,1-1-1.1l-.23-.3.69-1a5.44,5.44,0,0,1-.37-.67l-1.17.06-.12-.35a7.61,7.61,0,0,1-.36-1.48l0-.37,1.06-.48a6.6,6.6,0,0,1,0-.77l-1-.53.07-.37a7.42,7.42,0,0,1,.43-1.46l.14-.34,1.16.11c.12-.22.26-.44.4-.65l-.63-1,.24-.28a7.81,7.81,0,0,1,1.1-1l.29-.23,1,.69a5.44,5.44,0,0,1,.67-.37l-.06-1.17.35-.12a7.44,7.44,0,0,1,1.48-.36l.37-.06.48,1.07a6.6,6.6,0,0,1,.77,0l.53-1,.37.07a7.13,7.13,0,0,1,1.45.43l.35.14-.11,1.16c.22.12.44.26.65.4l1-.63.29.24a7.74,7.74,0,0,1,1,1.1l.24.29-.69,1a5.44,5.44,0,0,1,.37.67l1.17-.06.12.35a7.44,7.44,0,0,1,.36,1.48l0,.37-1.07.48a6.62,6.62,0,0,1,0,.77l1,.53-.07.37a7.83,7.83,0,0,1-.43,1.45l-.14.35-1.16-.11c-.13.22-.26.44-.4.65l.63,1-.24.29a7.74,7.74,0,0,1-1.1,1l-.3.23-1-.68a5.44,5.44,0,0,1-.67.37l.06,1.17-.35.12a7.79,7.79,0,0,1-1.48.36Zm.14-2.11.46,1,.56-.14,0-1.11.32-.13a6,6,0,0,0,1.11-.6l.29-.21.9.65a5.33,5.33,0,0,0,.42-.4l-.6-.93.21-.28a6,6,0,0,0,.66-1.08l.15-.32,1.1.11a5.18,5.18,0,0,0,.17-.56l-1-.5,0-.35a6.64,6.64,0,0,0,0-1.26l0-.35,1-.46c0-.19-.09-.38-.14-.56l-1.11.05-.13-.33a5.57,5.57,0,0,0-.6-1.1l-.21-.29.65-.9a5.33,5.33,0,0,0-.4-.42l-.93.6-.28-.22a5.84,5.84,0,0,0-1.08-.65l-.32-.15.11-1.11-.56-.16-.5,1-.35-.05a5.32,5.32,0,0,0-1.26,0l-.35,0-.46-1a5.09,5.09,0,0,0-.56.14l0,1.1-.33.14a5.57,5.57,0,0,0-1.1.6l-.29.21-.9-.65a4,4,0,0,0-.42.4l.6.93-.22.28a6.11,6.11,0,0,0-.65,1.07l-.15.32-1.1-.1c-.07.18-.12.37-.17.55l1,.51,0,.35a5.32,5.32,0,0,0,0,1.26l0,.35-1,.46a5.09,5.09,0,0,0,.14.56l1.11,0,.13.32a6,6,0,0,0,.6,1.11l.21.29-.65.9c.13.14.26.29.4.42l.93-.6.28.21a6.3,6.3,0,0,0,1.07.66l.32.15-.1,1.1c.18.07.37.12.55.17l.51-1,.35.05a6.64,6.64,0,0,0,1.26,0Zm-.85-3.66a1.95,1.95,0,0,1-1.34-3.36h0a1.94,1.94,0,0,1,1.39-.53,1.89,1.89,0,0,1,1.36.6,2,2,0,0,1,.54,1.39,1.93,1.93,0,0,1-.6,1.36A2,2,0,0,1,107.05,71.27Zm-.65-2.63A.95.95,0,0,0,107.71,70a.92.92,0,0,0,.29-.66.9.9,0,0,0-.26-.68.92.92,0,0,0-.66-.29.93.93,0,0,0-.68.26Z"/><rect class="cls-2" x="47.16" y="37.68" width="41.32" height="84.69" rx="6.27"/><path class="cls-1" d="M82.2,122.88H53.42a6.78,6.78,0,0,1-6.77-6.77V43.94a6.78,6.78,0,0,1,6.77-6.76H82.22A6.77,6.77,0,0,1,89,44v72.15a6.78,6.78,0,0,1-6.77,6.77Zm0-1h0A5.77,5.77,0,0,0,88,116.11V44a5.77,5.77,0,0,0-5.76-5.77H53.43a5.77,5.77,0,0,0-5.77,5.76V116.1a5.79,5.79,0,0,0,5.77,5.77Z"/><path class="cls-2" d="M82.19,40.24H76.61a1.39,1.39,0,0,0-1.36,1.42v1a1.38,1.38,0,0,1-1.35,1.41H63a1.39,1.39,0,0,1-1.35-1.42v-1a1.39,1.39,0,0,0-1.36-1.42H53.46a4.39,4.39,0,0,0-4.39,4.39V115a4.38,4.38,0,0,0,4.39,4.39l28.72,0a4.39,4.39,0,0,0,4.39-4.39V44.64A4.39,4.39,0,0,0,82.19,40.24Z"/><path class="cls-1" d="M82.17,120H53.45a4.91,4.91,0,0,1-4.89-4.9V44.62a4.9,4.9,0,0,1,4.89-4.89h6.85a1.9,1.9,0,0,1,1.86,1.92v1a.89.89,0,0,0,.85.92H73.9a.8.8,0,0,0,.59-.26.91.91,0,0,0,.26-.65v-1a1.92,1.92,0,0,1,.54-1.35,1.8,1.8,0,0,1,1.32-.57h5.58a4.9,4.9,0,0,1,4.88,4.9v70.42A4.89,4.89,0,0,1,82.17,120ZM53.46,40.73a3.89,3.89,0,0,0-3.89,3.89V115a3.9,3.9,0,0,0,3.89,3.9H82.17a3.89,3.89,0,0,0,3.89-3.89V44.64a3.89,3.89,0,0,0-3.88-3.9H76.61A.81.81,0,0,0,76,41a1,1,0,0,0-.26.66v1A2,2,0,0,1,75.22,44a1.85,1.85,0,0,1-1.32.56H63a1.89,1.89,0,0,1-1.85-1.92v-1a.89.89,0,0,0-.86-.92Z"/><rect class="cls-2" x="24.98" y="27.62" width="39.5" height="72.7" rx="8.61"/><path class="cls-1" d="M55.86,100.82H33.59a9.13,9.13,0,0,1-9.11-9.12V36.23a9.12,9.12,0,0,1,9.11-9.11H55.86A9.12,9.12,0,0,1,65,36.23V91.7A9.12,9.12,0,0,1,55.86,100.82ZM33.59,28.12a8.12,8.12,0,0,0-8.11,8.11V91.7a8.12,8.12,0,0,0,8.11,8.12H55.86A8.12,8.12,0,0,0,64,91.7V36.23a8.12,8.12,0,0,0-8.11-8.11Z"/><path class="cls-2" d="M47.47,44.53a4,4,0,0,0,.79-2.37V39.77a4,4,0,1,0-8,0v2.39a3.94,3.94,0,0,0,.86,2.47,9.41,9.41,0,0,0-6.28,8.87H54.58S53.82,46.37,47.47,44.53Z"/><path class="cls-1" d="M54.58,54H34.37v-.5a9.9,9.9,0,0,1,6-9.1,4.46,4.46,0,0,1-.59-2.24V39.77a4.49,4.49,0,1,1,9,0v2.39a4.5,4.5,0,0,1-.52,2.1c6,2.18,6.83,9.12,6.84,9.19l.06.55Zm-19.2-1H54c-.33-1.66-1.72-6.56-6.66-8l-.69-.2.43-.58a3.43,3.43,0,0,0,.69-2.07V39.77a3.49,3.49,0,1,0-7,0v2.39a3.46,3.46,0,0,0,.75,2.16l.44.55-.67.24A8.92,8.92,0,0,0,35.38,53Z"/><rect class="cls-1" x="29.58" y="73.47" width="30.3" height="2.08"/><rect class="cls-1" x="29.58" y="77.17" width="27.17" height="2.08"/><rect class="cls-1" x="29.58" y="80.86" width="18.33" height="2.08"/><rect class="cls-1" x="29.58" y="70.07" width="10.92" height="2.08"/></svg>