<svg id="Layer_1" data-name="Layer 1" xmlns="http://www.w3.org/2000/svg" viewBox="0 0 165 148.9"><defs><style>.cls-1,.cls-5{fill:none;}.cls-1,.cls-4,.cls-5{stroke:#6c63ff;stroke-width:2px;}.cls-2{isolation:isolate;font-size:15px;font-family:Poppins-Medium, Poppins;font-weight:500;}.cls-2,.cls-3{fill:#6c63ff;}.cls-4{fill:#fff;}.cls-4,.cls-5{stroke-linecap:round;stroke-linejoin:round;}</style></defs><g id="Rectangle_365" data-name="Rectangle 365"><rect class="cls-1" x="1.5" y="1.45" width="162" height="146" rx="29"/></g><g id="UI_UX_Design" data-name="UI UX Design"><text class="cls-2" transform="translate(33.53 138.72)">UI/UX Design</text></g><path class="cls-3" d="M102.76,95.67H100.5a3.32,3.32,0,0,1-3.32-3.32v-.76a14.26,14.26,0,0,1-2.25-.94l-.55.54a3.3,3.3,0,0,1-4.68,0L88.1,89.6a3.32,3.32,0,0,1,0-4.69l.54-.54a15.39,15.39,0,0,1-.94-2.26h-.76a3.31,3.31,0,0,1-3.31-3.31V76.54a3.32,3.32,0,0,1,3.31-3.32h.76A15.39,15.39,0,0,1,88.64,71l-.54-.54a3.32,3.32,0,0,1,0-4.69l1.6-1.59a3.3,3.3,0,0,1,4.68,0l.55.54a14.26,14.26,0,0,1,2.25-.94V63a3.32,3.32,0,0,1,3.32-3.32h2.26A3.32,3.32,0,0,1,106.07,63v.76a14.37,14.37,0,0,1,2.26.94l.54-.54a3.31,3.31,0,0,1,4.69,0l1.6,1.59a3.33,3.33,0,0,1,0,4.69l-.55.54a14.37,14.37,0,0,1,.94,2.26h.77a3.32,3.32,0,0,1,3.31,3.32V78.8a3.32,3.32,0,0,1-3.31,3.31h-.77a14.37,14.37,0,0,1-.94,2.26l.55.54a3.33,3.33,0,0,1,0,4.69l-1.6,1.59a3.32,3.32,0,0,1-4.69,0l-.54-.54a14.37,14.37,0,0,1-2.26.94v.76A3.32,3.32,0,0,1,102.76,95.67Zm-7.48-7.23a12.58,12.58,0,0,0,3.22,1.33,1.07,1.07,0,0,1,.79,1v1.55a1.21,1.21,0,0,0,1.21,1.21h2.26a1.21,1.21,0,0,0,1.2-1.21V90.8a1.08,1.08,0,0,1,.79-1A12.65,12.65,0,0,0,108,88.44a1,1,0,0,1,1.28.16l1.1,1.1a1.2,1.2,0,0,0,1.71,0l1.59-1.6a1.19,1.19,0,0,0,0-1.7l-1.1-1.1A1.06,1.06,0,0,1,112.4,84a12.82,12.82,0,0,0,1.34-3.22,1.06,1.06,0,0,1,1-.79h1.56a1.2,1.2,0,0,0,1.2-1.2V76.54a1.21,1.21,0,0,0-1.2-1.21h-1.56a1,1,0,0,1-1-.79,12.82,12.82,0,0,0-1.34-3.22,1.06,1.06,0,0,1,.16-1.29l1.1-1.1a1.19,1.19,0,0,0,0-1.7l-1.59-1.6a1.21,1.21,0,0,0-1.71,0l-1.1,1.1a1,1,0,0,1-1.28.16,12.65,12.65,0,0,0-3.23-1.33,1.06,1.06,0,0,1-.79-1V63a1.21,1.21,0,0,0-1.2-1.21H100.5A1.21,1.21,0,0,0,99.29,63v1.56a1,1,0,0,1-.79,1,12.58,12.58,0,0,0-3.22,1.33A1,1,0,0,1,94,66.73l-1.11-1.1a1.19,1.19,0,0,0-1.7,0l-1.6,1.6a1.2,1.2,0,0,0,0,1.7l1.1,1.1a1.07,1.07,0,0,1,.17,1.29,12.12,12.12,0,0,0-1.34,3.22,1,1,0,0,1-1,.79H86.94a1.21,1.21,0,0,0-1.21,1.21V78.8A1.21,1.21,0,0,0,86.94,80H88.5a1.06,1.06,0,0,1,1,.79A12.12,12.12,0,0,0,90.86,84a1.07,1.07,0,0,1-.17,1.29l-1.1,1.1a1.2,1.2,0,0,0,0,1.7l1.6,1.6a1.19,1.19,0,0,0,1.7,0L94,88.6a1.06,1.06,0,0,1,1.28-.16Z"/><path class="cls-3" d="M101.63,85.5a7.84,7.84,0,1,1,7.83-7.83A7.84,7.84,0,0,1,101.63,85.5Zm0-13.56a5.73,5.73,0,1,0,5.72,5.73,5.74,5.74,0,0,0-5.72-5.73Z"/><path class="cls-4" d="M92.35,27.2h-3v1.29A3.47,3.47,0,0,1,85.9,32h-16a3.47,3.47,0,0,1-3.46-3.47V28.3a8.15,8.15,0,0,0-4.09,7.07v54a8.17,8.17,0,0,0,8.17,8.17H92.35a8.17,8.17,0,0,0,8.17-8.17v-54A8.17,8.17,0,0,0,92.35,27.2Z"/><rect class="cls-4" x="45.37" y="19.4" width="34.04" height="70.36" rx="8.17"/><line class="cls-5" x1="51.5" y1="70.42" x2="73.11" y2="70.42"/><line class="cls-5" x1="51.5" y1="74.85" x2="71.58" y2="74.85"/><line class="cls-5" x1="51.5" y1="79.28" x2="65.28" y2="79.28"/><line class="cls-5" x1="51.5" y1="65.99" x2="61.54" y2="65.99"/><circle class="cls-5" cx="62.39" cy="37.52" r="4.36" transform="translate(-9.63 26.87) rotate(-22.61)"/><path class="cls-5" d="M62.39,43.36h0a8.09,8.09,0,0,0-8.08,8.09h0a2.12,2.12,0,0,0,2.12,2.12H68.35a2.12,2.12,0,0,0,2.12-2.12h0A8.08,8.08,0,0,0,62.39,43.36Z"/></svg>